G04 #@! TF.FileFunction,Legend,Bot*
%FSLAX46Y46*%
G04 Gerber Fmt 4.6, Leading zero omitted, Abs format (unit mm)*
G04 Created by KiCad (PCBNEW 4.0.7) date 02/25/18 21:11:53*
%MOMM*%
%LPD*%
G01*
G04 APERTURE LIST*
%ADD10C,0.100000*%
%ADD11C,0.300000*%
G04 APERTURE END LIST*
D10*
D11*
X221086428Y-113073571D02*
X221800714Y-113073571D01*
X221800714Y-111573571D01*
X220586428Y-112287857D02*
X220086428Y-112287857D01*
X219872142Y-113073571D02*
X220586428Y-113073571D01*
X220586428Y-111573571D01*
X219872142Y-111573571D01*
X219443571Y-111573571D02*
X218586428Y-111573571D01*
X219014999Y-113073571D02*
X219014999Y-111573571D01*
X218015000Y-111573571D02*
X218157857Y-111859286D01*
X217443571Y-113002143D02*
X217229285Y-113073571D01*
X216872142Y-113073571D01*
X216729285Y-113002143D01*
X216657856Y-112930714D01*
X216586428Y-112787857D01*
X216586428Y-112645000D01*
X216657856Y-112502143D01*
X216729285Y-112430714D01*
X216872142Y-112359286D01*
X217157856Y-112287857D01*
X217300714Y-112216429D01*
X217372142Y-112145000D01*
X217443571Y-112002143D01*
X217443571Y-111859286D01*
X217372142Y-111716429D01*
X217300714Y-111645000D01*
X217157856Y-111573571D01*
X216800714Y-111573571D01*
X216586428Y-111645000D01*
X213943571Y-113073571D02*
X214443571Y-112359286D01*
X214800714Y-113073571D02*
X214800714Y-111573571D01*
X214229286Y-111573571D01*
X214086428Y-111645000D01*
X214015000Y-111716429D01*
X213943571Y-111859286D01*
X213943571Y-112073571D01*
X214015000Y-112216429D01*
X214086428Y-112287857D01*
X214229286Y-112359286D01*
X214800714Y-112359286D01*
X213015000Y-111573571D02*
X212729286Y-111573571D01*
X212586428Y-111645000D01*
X212443571Y-111787857D01*
X212372143Y-112073571D01*
X212372143Y-112573571D01*
X212443571Y-112859286D01*
X212586428Y-113002143D01*
X212729286Y-113073571D01*
X213015000Y-113073571D01*
X213157857Y-113002143D01*
X213300714Y-112859286D01*
X213372143Y-112573571D01*
X213372143Y-112073571D01*
X213300714Y-111787857D01*
X213157857Y-111645000D01*
X213015000Y-111573571D01*
X210872142Y-112930714D02*
X210943571Y-113002143D01*
X211157857Y-113073571D01*
X211300714Y-113073571D01*
X211514999Y-113002143D01*
X211657857Y-112859286D01*
X211729285Y-112716429D01*
X211800714Y-112430714D01*
X211800714Y-112216429D01*
X211729285Y-111930714D01*
X211657857Y-111787857D01*
X211514999Y-111645000D01*
X211300714Y-111573571D01*
X211157857Y-111573571D01*
X210943571Y-111645000D01*
X210872142Y-111716429D01*
X210229285Y-113073571D02*
X210229285Y-111573571D01*
X209372142Y-113073571D02*
X210014999Y-112216429D01*
X209372142Y-111573571D02*
X210229285Y-112430714D01*
X208729285Y-112930714D02*
X208657857Y-113002143D01*
X208729285Y-113073571D01*
X208800714Y-113002143D01*
X208729285Y-112930714D01*
X208729285Y-113073571D01*
X208729285Y-112502143D02*
X208800714Y-111645000D01*
X208729285Y-111573571D01*
X208657857Y-111645000D01*
X208729285Y-112502143D01*
X208729285Y-111573571D01*
X101542856Y-62174286D02*
X101542856Y-62888571D01*
X102042856Y-61388571D02*
X101542856Y-62174286D01*
X101042856Y-61388571D01*
X100542856Y-62888571D02*
X100542856Y-61388571D01*
X100042856Y-62460000D01*
X99542856Y-61388571D01*
X99542856Y-62888571D01*
X98899999Y-61531429D02*
X98828570Y-61460000D01*
X98685713Y-61388571D01*
X98328570Y-61388571D01*
X98185713Y-61460000D01*
X98114284Y-61531429D01*
X98042856Y-61674286D01*
X98042856Y-61817143D01*
X98114284Y-62031429D01*
X98971427Y-62888571D01*
X98042856Y-62888571D01*
X96614285Y-62888571D02*
X97471428Y-62888571D01*
X97042856Y-62888571D02*
X97042856Y-61388571D01*
X97185713Y-61602857D01*
X97328571Y-61745714D01*
X97471428Y-61817143D01*
X95257142Y-61388571D02*
X95971428Y-61388571D01*
X96042857Y-62102857D01*
X95971428Y-62031429D01*
X95828571Y-61960000D01*
X95471428Y-61960000D01*
X95328571Y-62031429D01*
X95257142Y-62102857D01*
X95185714Y-62245714D01*
X95185714Y-62602857D01*
X95257142Y-62745714D01*
X95328571Y-62817143D01*
X95471428Y-62888571D01*
X95828571Y-62888571D01*
X95971428Y-62817143D01*
X96042857Y-62745714D01*
X93757143Y-62888571D02*
X94614286Y-62888571D01*
X94185714Y-62888571D02*
X94185714Y-61388571D01*
X94328571Y-61602857D01*
X94471429Y-61745714D01*
X94614286Y-61817143D01*
X92042858Y-62460000D02*
X91328572Y-62460000D01*
X92185715Y-62888571D02*
X91685715Y-61388571D01*
X91185715Y-62888571D01*
X90685715Y-62888571D02*
X90685715Y-61888571D01*
X90685715Y-62174286D02*
X90614287Y-62031429D01*
X90542858Y-61960000D01*
X90400001Y-61888571D01*
X90257144Y-61888571D01*
X89114287Y-62817143D02*
X89257144Y-62888571D01*
X89542858Y-62888571D01*
X89685716Y-62817143D01*
X89757144Y-62745714D01*
X89828573Y-62602857D01*
X89828573Y-62174286D01*
X89757144Y-62031429D01*
X89685716Y-61960000D01*
X89542858Y-61888571D01*
X89257144Y-61888571D01*
X89114287Y-61960000D01*
X87828573Y-62888571D02*
X87828573Y-62102857D01*
X87900002Y-61960000D01*
X88042859Y-61888571D01*
X88328573Y-61888571D01*
X88471430Y-61960000D01*
X87828573Y-62817143D02*
X87971430Y-62888571D01*
X88328573Y-62888571D01*
X88471430Y-62817143D01*
X88542859Y-62674286D01*
X88542859Y-62531429D01*
X88471430Y-62388571D01*
X88328573Y-62317143D01*
X87971430Y-62317143D01*
X87828573Y-62245714D01*
X86471430Y-62888571D02*
X86471430Y-61388571D01*
X86471430Y-62817143D02*
X86614287Y-62888571D01*
X86900001Y-62888571D01*
X87042859Y-62817143D01*
X87114287Y-62745714D01*
X87185716Y-62602857D01*
X87185716Y-62174286D01*
X87114287Y-62031429D01*
X87042859Y-61960000D01*
X86900001Y-61888571D01*
X86614287Y-61888571D01*
X86471430Y-61960000D01*
X85185716Y-62817143D02*
X85328573Y-62888571D01*
X85614287Y-62888571D01*
X85757144Y-62817143D01*
X85828573Y-62674286D01*
X85828573Y-62102857D01*
X85757144Y-61960000D01*
X85614287Y-61888571D01*
X85328573Y-61888571D01*
X85185716Y-61960000D01*
X85114287Y-62102857D01*
X85114287Y-62245714D01*
X85828573Y-62388571D01*
X82471430Y-62745714D02*
X82542859Y-62817143D01*
X82757145Y-62888571D01*
X82900002Y-62888571D01*
X83114287Y-62817143D01*
X83257145Y-62674286D01*
X83328573Y-62531429D01*
X83400002Y-62245714D01*
X83400002Y-62031429D01*
X83328573Y-61745714D01*
X83257145Y-61602857D01*
X83114287Y-61460000D01*
X82900002Y-61388571D01*
X82757145Y-61388571D01*
X82542859Y-61460000D01*
X82471430Y-61531429D01*
X81614287Y-62888571D02*
X81757145Y-62817143D01*
X81828573Y-62674286D01*
X81828573Y-61388571D01*
X80400002Y-62888571D02*
X80400002Y-62102857D01*
X80471431Y-61960000D01*
X80614288Y-61888571D01*
X80900002Y-61888571D01*
X81042859Y-61960000D01*
X80400002Y-62817143D02*
X80542859Y-62888571D01*
X80900002Y-62888571D01*
X81042859Y-62817143D01*
X81114288Y-62674286D01*
X81114288Y-62531429D01*
X81042859Y-62388571D01*
X80900002Y-62317143D01*
X80542859Y-62317143D01*
X80400002Y-62245714D01*
X79757145Y-62817143D02*
X79614288Y-62888571D01*
X79328573Y-62888571D01*
X79185716Y-62817143D01*
X79114288Y-62674286D01*
X79114288Y-62602857D01*
X79185716Y-62460000D01*
X79328573Y-62388571D01*
X79542859Y-62388571D01*
X79685716Y-62317143D01*
X79757145Y-62174286D01*
X79757145Y-62102857D01*
X79685716Y-61960000D01*
X79542859Y-61888571D01*
X79328573Y-61888571D01*
X79185716Y-61960000D01*
X78542859Y-62817143D02*
X78400002Y-62888571D01*
X78114287Y-62888571D01*
X77971430Y-62817143D01*
X77900002Y-62674286D01*
X77900002Y-62602857D01*
X77971430Y-62460000D01*
X78114287Y-62388571D01*
X78328573Y-62388571D01*
X78471430Y-62317143D01*
X78542859Y-62174286D01*
X78542859Y-62102857D01*
X78471430Y-61960000D01*
X78328573Y-61888571D01*
X78114287Y-61888571D01*
X77971430Y-61960000D01*
X77257144Y-62888571D02*
X77257144Y-61888571D01*
X77257144Y-61388571D02*
X77328573Y-61460000D01*
X77257144Y-61531429D01*
X77185716Y-61460000D01*
X77257144Y-61388571D01*
X77257144Y-61531429D01*
X75900001Y-62817143D02*
X76042858Y-62888571D01*
X76328572Y-62888571D01*
X76471430Y-62817143D01*
X76542858Y-62745714D01*
X76614287Y-62602857D01*
X76614287Y-62174286D01*
X76542858Y-62031429D01*
X76471430Y-61960000D01*
X76328572Y-61888571D01*
X76042858Y-61888571D01*
X75900001Y-61960000D01*
X95078571Y-63938571D02*
X94578571Y-65438571D01*
X94078571Y-63938571D01*
X92792857Y-64010000D02*
X92935714Y-63938571D01*
X93150000Y-63938571D01*
X93364285Y-64010000D01*
X93507143Y-64152857D01*
X93578571Y-64295714D01*
X93650000Y-64581429D01*
X93650000Y-64795714D01*
X93578571Y-65081429D01*
X93507143Y-65224286D01*
X93364285Y-65367143D01*
X93150000Y-65438571D01*
X93007143Y-65438571D01*
X92792857Y-65367143D01*
X92721428Y-65295714D01*
X92721428Y-64795714D01*
X93007143Y-64795714D01*
X92078571Y-65438571D02*
X92078571Y-63938571D01*
X91578571Y-65010000D01*
X91078571Y-63938571D01*
X91078571Y-65438571D01*
X89221428Y-65438571D02*
X89221428Y-63938571D01*
X88650000Y-63938571D01*
X88507142Y-64010000D01*
X88435714Y-64081429D01*
X88364285Y-64224286D01*
X88364285Y-64438571D01*
X88435714Y-64581429D01*
X88507142Y-64652857D01*
X88650000Y-64724286D01*
X89221428Y-64724286D01*
X87507142Y-65438571D02*
X87650000Y-65367143D01*
X87721428Y-65224286D01*
X87721428Y-63938571D01*
X86292857Y-65438571D02*
X86292857Y-64652857D01*
X86364286Y-64510000D01*
X86507143Y-64438571D01*
X86792857Y-64438571D01*
X86935714Y-64510000D01*
X86292857Y-65367143D02*
X86435714Y-65438571D01*
X86792857Y-65438571D01*
X86935714Y-65367143D01*
X87007143Y-65224286D01*
X87007143Y-65081429D01*
X86935714Y-64938571D01*
X86792857Y-64867143D01*
X86435714Y-64867143D01*
X86292857Y-64795714D01*
X85721428Y-64438571D02*
X85364285Y-65438571D01*
X85007143Y-64438571D02*
X85364285Y-65438571D01*
X85507143Y-65795714D01*
X85578571Y-65867143D01*
X85721428Y-65938571D01*
X83864286Y-65367143D02*
X84007143Y-65438571D01*
X84292857Y-65438571D01*
X84435714Y-65367143D01*
X84507143Y-65224286D01*
X84507143Y-64652857D01*
X84435714Y-64510000D01*
X84292857Y-64438571D01*
X84007143Y-64438571D01*
X83864286Y-64510000D01*
X83792857Y-64652857D01*
X83792857Y-64795714D01*
X84507143Y-64938571D01*
X83150000Y-65438571D02*
X83150000Y-64438571D01*
X83150000Y-64724286D02*
X83078572Y-64581429D01*
X83007143Y-64510000D01*
X82864286Y-64438571D01*
X82721429Y-64438571D01*
X91471428Y-66631429D02*
X91399999Y-66560000D01*
X91257142Y-66488571D01*
X90899999Y-66488571D01*
X90757142Y-66560000D01*
X90685713Y-66631429D01*
X90614285Y-66774286D01*
X90614285Y-66917143D01*
X90685713Y-67131429D01*
X91542856Y-67988571D01*
X90614285Y-67988571D01*
X89685714Y-66488571D02*
X89542857Y-66488571D01*
X89400000Y-66560000D01*
X89328571Y-66631429D01*
X89257142Y-66774286D01*
X89185714Y-67060000D01*
X89185714Y-67417143D01*
X89257142Y-67702857D01*
X89328571Y-67845714D01*
X89400000Y-67917143D01*
X89542857Y-67988571D01*
X89685714Y-67988571D01*
X89828571Y-67917143D01*
X89900000Y-67845714D01*
X89971428Y-67702857D01*
X90042857Y-67417143D01*
X90042857Y-67060000D01*
X89971428Y-66774286D01*
X89900000Y-66631429D01*
X89828571Y-66560000D01*
X89685714Y-66488571D01*
X87757143Y-67988571D02*
X88614286Y-67988571D01*
X88185714Y-67988571D02*
X88185714Y-66488571D01*
X88328571Y-66702857D01*
X88471429Y-66845714D01*
X88614286Y-66917143D01*
X86900000Y-67131429D02*
X87042858Y-67060000D01*
X87114286Y-66988571D01*
X87185715Y-66845714D01*
X87185715Y-66774286D01*
X87114286Y-66631429D01*
X87042858Y-66560000D01*
X86900000Y-66488571D01*
X86614286Y-66488571D01*
X86471429Y-66560000D01*
X86400000Y-66631429D01*
X86328572Y-66774286D01*
X86328572Y-66845714D01*
X86400000Y-66988571D01*
X86471429Y-67060000D01*
X86614286Y-67131429D01*
X86900000Y-67131429D01*
X87042858Y-67202857D01*
X87114286Y-67274286D01*
X87185715Y-67417143D01*
X87185715Y-67702857D01*
X87114286Y-67845714D01*
X87042858Y-67917143D01*
X86900000Y-67988571D01*
X86614286Y-67988571D01*
X86471429Y-67917143D01*
X86400000Y-67845714D01*
X86328572Y-67702857D01*
X86328572Y-67417143D01*
X86400000Y-67274286D01*
X86471429Y-67202857D01*
X86614286Y-67131429D01*
X97364286Y-70110000D02*
X96650000Y-70110000D01*
X97507143Y-70538571D02*
X97007143Y-69038571D01*
X96507143Y-70538571D01*
X96007143Y-70538571D02*
X96007143Y-69538571D01*
X96007143Y-69038571D02*
X96078572Y-69110000D01*
X96007143Y-69181429D01*
X95935715Y-69110000D01*
X96007143Y-69038571D01*
X96007143Y-69181429D01*
X94650000Y-70538571D02*
X94650000Y-69038571D01*
X94650000Y-70467143D02*
X94792857Y-70538571D01*
X95078571Y-70538571D01*
X95221429Y-70467143D01*
X95292857Y-70395714D01*
X95364286Y-70252857D01*
X95364286Y-69824286D01*
X95292857Y-69681429D01*
X95221429Y-69610000D01*
X95078571Y-69538571D01*
X94792857Y-69538571D01*
X94650000Y-69610000D01*
X93292857Y-70538571D02*
X93292857Y-69752857D01*
X93364286Y-69610000D01*
X93507143Y-69538571D01*
X93792857Y-69538571D01*
X93935714Y-69610000D01*
X93292857Y-70467143D02*
X93435714Y-70538571D01*
X93792857Y-70538571D01*
X93935714Y-70467143D01*
X94007143Y-70324286D01*
X94007143Y-70181429D01*
X93935714Y-70038571D01*
X93792857Y-69967143D01*
X93435714Y-69967143D01*
X93292857Y-69895714D01*
X92578571Y-69538571D02*
X92578571Y-70538571D01*
X92578571Y-69681429D02*
X92507143Y-69610000D01*
X92364285Y-69538571D01*
X92150000Y-69538571D01*
X92007143Y-69610000D01*
X91935714Y-69752857D01*
X91935714Y-70538571D01*
X89364285Y-70538571D02*
X90078571Y-70538571D01*
X90078571Y-69038571D01*
X88221428Y-70538571D02*
X88221428Y-69752857D01*
X88292857Y-69610000D01*
X88435714Y-69538571D01*
X88721428Y-69538571D01*
X88864285Y-69610000D01*
X88221428Y-70467143D02*
X88364285Y-70538571D01*
X88721428Y-70538571D01*
X88864285Y-70467143D01*
X88935714Y-70324286D01*
X88935714Y-70181429D01*
X88864285Y-70038571D01*
X88721428Y-69967143D01*
X88364285Y-69967143D01*
X88221428Y-69895714D01*
X87649999Y-69538571D02*
X87364285Y-70538571D01*
X87078571Y-69824286D01*
X86792856Y-70538571D01*
X86507142Y-69538571D01*
X85935713Y-70538571D02*
X85935713Y-69538571D01*
X85935713Y-69824286D02*
X85864285Y-69681429D01*
X85792856Y-69610000D01*
X85649999Y-69538571D01*
X85507142Y-69538571D01*
X84435714Y-70467143D02*
X84578571Y-70538571D01*
X84864285Y-70538571D01*
X85007142Y-70467143D01*
X85078571Y-70324286D01*
X85078571Y-69752857D01*
X85007142Y-69610000D01*
X84864285Y-69538571D01*
X84578571Y-69538571D01*
X84435714Y-69610000D01*
X84364285Y-69752857D01*
X84364285Y-69895714D01*
X85078571Y-70038571D01*
X83721428Y-69538571D02*
X83721428Y-70538571D01*
X83721428Y-69681429D02*
X83650000Y-69610000D01*
X83507142Y-69538571D01*
X83292857Y-69538571D01*
X83150000Y-69610000D01*
X83078571Y-69752857D01*
X83078571Y-70538571D01*
X81721428Y-70467143D02*
X81864285Y-70538571D01*
X82149999Y-70538571D01*
X82292857Y-70467143D01*
X82364285Y-70395714D01*
X82435714Y-70252857D01*
X82435714Y-69824286D01*
X82364285Y-69681429D01*
X82292857Y-69610000D01*
X82149999Y-69538571D01*
X81864285Y-69538571D01*
X81721428Y-69610000D01*
X80507143Y-70467143D02*
X80650000Y-70538571D01*
X80935714Y-70538571D01*
X81078571Y-70467143D01*
X81150000Y-70324286D01*
X81150000Y-69752857D01*
X81078571Y-69610000D01*
X80935714Y-69538571D01*
X80650000Y-69538571D01*
X80507143Y-69610000D01*
X80435714Y-69752857D01*
X80435714Y-69895714D01*
X81150000Y-70038571D01*
X102078572Y-72088571D02*
X101792858Y-73088571D01*
X101507144Y-72374286D01*
X101221429Y-73088571D01*
X100935715Y-72088571D01*
X100507143Y-72088571D02*
X100221429Y-73088571D01*
X99935715Y-72374286D01*
X99650000Y-73088571D01*
X99364286Y-72088571D01*
X98935714Y-72088571D02*
X98650000Y-73088571D01*
X98364286Y-72374286D01*
X98078571Y-73088571D01*
X97792857Y-72088571D01*
X97221428Y-72945714D02*
X97150000Y-73017143D01*
X97221428Y-73088571D01*
X97292857Y-73017143D01*
X97221428Y-72945714D01*
X97221428Y-73088571D01*
X95864285Y-73088571D02*
X95864285Y-72302857D01*
X95935714Y-72160000D01*
X96078571Y-72088571D01*
X96364285Y-72088571D01*
X96507142Y-72160000D01*
X95864285Y-73017143D02*
X96007142Y-73088571D01*
X96364285Y-73088571D01*
X96507142Y-73017143D01*
X96578571Y-72874286D01*
X96578571Y-72731429D01*
X96507142Y-72588571D01*
X96364285Y-72517143D01*
X96007142Y-72517143D01*
X95864285Y-72445714D01*
X95149999Y-73088571D02*
X95149999Y-72088571D01*
X95149999Y-71588571D02*
X95221428Y-71660000D01*
X95149999Y-71731429D01*
X95078571Y-71660000D01*
X95149999Y-71588571D01*
X95149999Y-71731429D01*
X93792856Y-73088571D02*
X93792856Y-71588571D01*
X93792856Y-73017143D02*
X93935713Y-73088571D01*
X94221427Y-73088571D01*
X94364285Y-73017143D01*
X94435713Y-72945714D01*
X94507142Y-72802857D01*
X94507142Y-72374286D01*
X94435713Y-72231429D01*
X94364285Y-72160000D01*
X94221427Y-72088571D01*
X93935713Y-72088571D01*
X93792856Y-72160000D01*
X92435713Y-73088571D02*
X92435713Y-72302857D01*
X92507142Y-72160000D01*
X92649999Y-72088571D01*
X92935713Y-72088571D01*
X93078570Y-72160000D01*
X92435713Y-73017143D02*
X92578570Y-73088571D01*
X92935713Y-73088571D01*
X93078570Y-73017143D01*
X93149999Y-72874286D01*
X93149999Y-72731429D01*
X93078570Y-72588571D01*
X92935713Y-72517143D01*
X92578570Y-72517143D01*
X92435713Y-72445714D01*
X91721427Y-72088571D02*
X91721427Y-73088571D01*
X91721427Y-72231429D02*
X91649999Y-72160000D01*
X91507141Y-72088571D01*
X91292856Y-72088571D01*
X91149999Y-72160000D01*
X91078570Y-72302857D01*
X91078570Y-73088571D01*
X90149998Y-73088571D02*
X90292856Y-73017143D01*
X90364284Y-72874286D01*
X90364284Y-71588571D01*
X88935713Y-73088571D02*
X88935713Y-72302857D01*
X89007142Y-72160000D01*
X89149999Y-72088571D01*
X89435713Y-72088571D01*
X89578570Y-72160000D01*
X88935713Y-73017143D02*
X89078570Y-73088571D01*
X89435713Y-73088571D01*
X89578570Y-73017143D01*
X89649999Y-72874286D01*
X89649999Y-72731429D01*
X89578570Y-72588571D01*
X89435713Y-72517143D01*
X89078570Y-72517143D01*
X88935713Y-72445714D01*
X88364284Y-72088571D02*
X88078570Y-73088571D01*
X87792856Y-72374286D01*
X87507141Y-73088571D01*
X87221427Y-72088571D01*
X86649998Y-73088571D02*
X86649998Y-72088571D01*
X86649998Y-72374286D02*
X86578570Y-72231429D01*
X86507141Y-72160000D01*
X86364284Y-72088571D01*
X86221427Y-72088571D01*
X85149999Y-73017143D02*
X85292856Y-73088571D01*
X85578570Y-73088571D01*
X85721427Y-73017143D01*
X85792856Y-72874286D01*
X85792856Y-72302857D01*
X85721427Y-72160000D01*
X85578570Y-72088571D01*
X85292856Y-72088571D01*
X85149999Y-72160000D01*
X85078570Y-72302857D01*
X85078570Y-72445714D01*
X85792856Y-72588571D01*
X84435713Y-72088571D02*
X84435713Y-73088571D01*
X84435713Y-72231429D02*
X84364285Y-72160000D01*
X84221427Y-72088571D01*
X84007142Y-72088571D01*
X83864285Y-72160000D01*
X83792856Y-72302857D01*
X83792856Y-73088571D01*
X82435713Y-73017143D02*
X82578570Y-73088571D01*
X82864284Y-73088571D01*
X83007142Y-73017143D01*
X83078570Y-72945714D01*
X83149999Y-72802857D01*
X83149999Y-72374286D01*
X83078570Y-72231429D01*
X83007142Y-72160000D01*
X82864284Y-72088571D01*
X82578570Y-72088571D01*
X82435713Y-72160000D01*
X81221428Y-73017143D02*
X81364285Y-73088571D01*
X81649999Y-73088571D01*
X81792856Y-73017143D01*
X81864285Y-72874286D01*
X81864285Y-72302857D01*
X81792856Y-72160000D01*
X81649999Y-72088571D01*
X81364285Y-72088571D01*
X81221428Y-72160000D01*
X81149999Y-72302857D01*
X81149999Y-72445714D01*
X81864285Y-72588571D01*
X80507142Y-72945714D02*
X80435714Y-73017143D01*
X80507142Y-73088571D01*
X80578571Y-73017143D01*
X80507142Y-72945714D01*
X80507142Y-73088571D01*
X79149999Y-73017143D02*
X79292856Y-73088571D01*
X79578570Y-73088571D01*
X79721428Y-73017143D01*
X79792856Y-72945714D01*
X79864285Y-72802857D01*
X79864285Y-72374286D01*
X79792856Y-72231429D01*
X79721428Y-72160000D01*
X79578570Y-72088571D01*
X79292856Y-72088571D01*
X79149999Y-72160000D01*
X78292856Y-73088571D02*
X78435714Y-73017143D01*
X78507142Y-72945714D01*
X78578571Y-72802857D01*
X78578571Y-72374286D01*
X78507142Y-72231429D01*
X78435714Y-72160000D01*
X78292856Y-72088571D01*
X78078571Y-72088571D01*
X77935714Y-72160000D01*
X77864285Y-72231429D01*
X77792856Y-72374286D01*
X77792856Y-72802857D01*
X77864285Y-72945714D01*
X77935714Y-73017143D01*
X78078571Y-73088571D01*
X78292856Y-73088571D01*
X77149999Y-73088571D02*
X77149999Y-72088571D01*
X77149999Y-72231429D02*
X77078571Y-72160000D01*
X76935713Y-72088571D01*
X76721428Y-72088571D01*
X76578571Y-72160000D01*
X76507142Y-72302857D01*
X76507142Y-73088571D01*
X76507142Y-72302857D02*
X76435713Y-72160000D01*
X76292856Y-72088571D01*
X76078571Y-72088571D01*
X75935713Y-72160000D01*
X75864285Y-72302857D01*
X75864285Y-73088571D01*
M02*
