M48
;DRILL file {KiCad 4.0.7} date 02/25/18 17:47:28
;FORMAT={-:-/ absolute / inch / decimal}
FMAT,2
INCH,TZ
T1C0.016
T2C0.024
T3C0.030
T4C0.031
T5C0.032
T6C0.039
T7C0.040
T8C0.042
T9C0.051
T10C0.091
T11C0.043
T12C0.047
T13C0.063
%
G90
G05
M72
T1
X2.9427Y-3.3146
X3.8377Y-2.8627
X3.8602Y-2.9032
X3.9962Y-2.5696
X4.0562Y-3.073
X4.0828Y-3.1009
X4.165Y-2.4052
X4.2149Y-2.3198
X4.7912Y-3.3321
X5.0895Y-2.4828
X5.0988Y-2.875
X5.1611Y-3.425
X5.253Y-2.8198
T2
X3.7409Y-4.25
X3.8Y-4.25
X6.15Y-2.55
X6.2091Y-2.55
X7.2Y-2.5659
X7.2Y-2.625
X7.2159Y-3.475
X7.2159Y-3.75
X7.225Y-2.925
X7.225Y-3.2
X7.275Y-3.475
X7.275Y-3.75
X7.2841Y-2.925
X7.2841Y-3.2
T3
X5.3537Y-3.8575
X5.3537Y-3.9575
X5.3537Y-4.0575
X5.3537Y-4.1575
T4
X3.0016Y-3.7
X3.1Y-3.7
X3.525Y-3.4329
X3.525Y-3.625
X3.75Y-3.425
X3.75Y-3.65
X3.8484Y-3.425
X3.8484Y-3.65
X3.925Y-4.25
X4.0234Y-4.25
X5.2Y-2.3
X5.2Y-2.475
X5.2Y-2.575
X5.2Y-2.675
X5.2Y-2.775
X5.2Y-2.875
X5.2Y-2.975
X5.2Y-3.075
X5.2Y-3.175
X5.2Y-3.275
X5.2Y-3.375
X5.2Y-3.475
X5.2Y-3.575
X5.2984Y-2.3
X5.6031Y-2.075
X5.8Y-2.075
X5.8Y-2.475
X5.8Y-2.575
X5.8Y-2.675
X5.8Y-2.775
X5.8Y-2.875
X5.8Y-2.975
X5.8Y-3.075
X5.8Y-3.175
X5.8Y-3.275
X5.8Y-3.375
X5.8Y-3.475
X5.8Y-3.575
X5.9Y-2.25
X5.9984Y-2.25
X6.025Y-2.775
X6.025Y-2.875
X6.025Y-2.975
X6.025Y-3.075
X6.025Y-3.175
X6.025Y-3.275
X6.025Y-3.375
X6.025Y-3.475
X6.2266Y-3.675
X6.325Y-2.775
X6.325Y-2.875
X6.325Y-2.975
X6.325Y-3.075
X6.325Y-3.175
X6.325Y-3.275
X6.325Y-3.375
X6.325Y-3.475
X6.325Y-3.675
X6.475Y-3.675
X6.5734Y-3.675
X6.625Y-2.775
X6.625Y-2.875
X6.625Y-2.975
X6.625Y-3.075
X6.625Y-3.175
X6.625Y-3.275
X6.625Y-3.375
X6.625Y-3.55
X6.725Y-2.475
X6.8234Y-2.475
X6.925Y-2.775
X6.925Y-2.875
X6.925Y-2.975
X6.925Y-3.075
X6.925Y-3.175
X6.925Y-3.275
X6.925Y-3.375
X6.925Y-3.55
X7.275Y-4.025
X7.3734Y-4.025
X7.475Y-2.9
X7.475Y-3.
X7.475Y-3.1
X7.475Y-3.2
X7.475Y-3.3
X7.475Y-3.4
X7.475Y-3.5
X7.475Y-3.6
X7.475Y-3.7
X7.475Y-3.8
X7.7016Y-4.025
X7.775Y-2.9
X7.775Y-3.
X7.775Y-3.1
X7.775Y-3.2
X7.775Y-3.3
X7.775Y-3.4
X7.775Y-3.5
X7.775Y-3.6
X7.775Y-3.7
X7.775Y-3.8
X7.8Y-4.025
X7.925Y-3.
X7.925Y-3.0984
X7.925Y-3.6016
X7.925Y-3.7
X8.1Y-2.85
X8.1984Y-2.85
X8.3766Y-3.925
X8.475Y-3.925
X8.775Y-3.925
X8.8734Y-3.925
T5
X3.4213Y-4.025
X3.4213Y-4.125
X3.5Y-4.025
X3.5Y-4.125
T6
X5.15Y-4.325
X5.15Y-4.5022
X5.4059Y-4.325
X5.4059Y-4.5022
X5.525Y-4.325
X5.525Y-4.5022
X5.7809Y-4.325
X5.7809Y-4.5022
X5.9Y-4.325
X5.9Y-4.5022
X6.1559Y-4.325
X6.1559Y-4.5022
X6.275Y-4.325
X6.275Y-4.5022
X6.5309Y-4.325
X6.5309Y-4.5022
X6.65Y-4.325
X6.65Y-4.5022
X6.9059Y-4.325
X6.9059Y-4.5022
X8.175Y-2.3
X8.3719Y-2.3
T7
X4.275Y-2.273
X4.275Y-2.373
X4.275Y-2.473
X4.275Y-2.573
X4.275Y-2.673
X4.275Y-2.773
X4.275Y-2.873
X4.275Y-2.973
X4.275Y-3.073
X4.275Y-3.173
X4.275Y-3.273
X4.275Y-3.373
X4.275Y-3.473
X4.275Y-3.573
X4.275Y-3.673
X4.275Y-3.773
X4.275Y-3.873
X4.275Y-3.973
X4.275Y-4.073
X4.275Y-4.173
X4.5254Y-2.423
X4.6254Y-2.423
X4.875Y-2.271
X4.875Y-2.373
X4.875Y-2.473
X4.875Y-2.573
X4.875Y-2.673
X4.875Y-2.773
X4.875Y-2.873
X4.875Y-2.973
X4.875Y-3.073
X4.875Y-3.173
X4.875Y-3.273
X4.875Y-3.373
X4.875Y-3.473
X4.875Y-3.573
X4.875Y-3.673
X4.875Y-3.773
X4.875Y-3.873
X4.875Y-3.973
X4.875Y-4.073
X4.875Y-4.173
T8
X6.975Y-3.75
X6.975Y-3.876
X6.975Y-4.002
X8.549Y-3.05
X8.675Y-3.05
X8.801Y-3.05
T9
X7.225Y-4.325
X7.35Y-2.3
X7.4219Y-4.325
X7.4681Y-2.3
X7.65Y-4.325
X7.8469Y-4.325
T10
X3.315Y-3.8388
X3.315Y-4.3112
T11
X3.8362Y-2.2472
T12
X8.4482Y-3.499
X8.7238Y-3.499
T13
X3.8362Y-3.074
T2
X8.4522Y-3.5856G85X8.4285Y-3.5856
G05
X8.5112Y-3.4085G85X8.4876Y-3.4085
G05
X8.6687Y-3.4085G85X8.6451Y-3.4085
G05
X8.7868Y-3.4085G85X8.7632Y-3.4085
G05
X8.7868Y-3.625G85X8.7632Y-3.625
G05
T6
X8.59Y-2.4425G85X8.59Y-2.5213
G05
X8.8144Y-2.3638G85X8.7356Y-2.3638
G05
X8.8144Y-2.6G85X8.7356Y-2.6
G05
T0
M30
