G04 #@! TF.FileFunction,Soldermask,Bot*
%FSLAX46Y46*%
G04 Gerber Fmt 4.6, Leading zero omitted, Abs format (unit mm)*
G04 Created by KiCad (PCBNEW 4.0.7) date 02/25/18 17:47:24*
%MOMM*%
%LPD*%
G01*
G04 APERTURE LIST*
%ADD10C,0.100000*%
%ADD11C,2.000000*%
%ADD12R,1.600000X1.600000*%
%ADD13C,1.600000*%
%ADD14R,2.400000X2.400000*%
%ADD15C,2.400000*%
%ADD16R,2.000000X2.000000*%
%ADD17C,1.500000*%
%ADD18R,3.900000X3.900000*%
%ADD19O,2.400000X1.800000*%
%ADD20R,2.400000X1.800000*%
%ADD21C,1.920000*%
%ADD22C,3.100000*%
%ADD23C,3.000000*%
%ADD24O,2.000000X2.000000*%
%ADD25C,1.974800*%
%ADD26C,2.100000*%
%ADD27R,2.650000X2.127200*%
%ADD28O,2.650000X2.127200*%
%ADD29O,2.127200X2.127200*%
%ADD30C,1.924000*%
%ADD31C,1.900000*%
G04 APERTURE END LIST*
D10*
D11*
X149860000Y-57150000D03*
X152360000Y-57150000D03*
X147320000Y-52705000D03*
X142320000Y-52705000D03*
X99695000Y-107950000D03*
X102195000Y-107950000D03*
D12*
X96520000Y-107950000D03*
D13*
X95020000Y-107950000D03*
D14*
X207645000Y-58420000D03*
D15*
X212645000Y-58420000D03*
D16*
X205740000Y-72390000D03*
D11*
X208240000Y-72390000D03*
X78740000Y-93980000D03*
X76240000Y-93980000D03*
X95250000Y-92710000D03*
X97750000Y-92710000D03*
X95250000Y-86995000D03*
X97750000Y-86995000D03*
D12*
X156210000Y-64770000D03*
D13*
X157710000Y-64770000D03*
D11*
X132080000Y-58420000D03*
X134580000Y-58420000D03*
D12*
X182880000Y-66675000D03*
D13*
X182880000Y-65175000D03*
D11*
X164465000Y-93345000D03*
X166965000Y-93345000D03*
X160655000Y-93345000D03*
X158155000Y-93345000D03*
D12*
X183515000Y-74295000D03*
D13*
X185015000Y-74295000D03*
D12*
X183515000Y-81280000D03*
D13*
X185015000Y-81280000D03*
D12*
X184785000Y-88265000D03*
D13*
X183285000Y-88265000D03*
D12*
X184785000Y-95250000D03*
D13*
X183285000Y-95250000D03*
D11*
X201295000Y-93980000D03*
X201295000Y-91480000D03*
X201295000Y-76200000D03*
X201295000Y-78700000D03*
X184785000Y-102235000D03*
X187285000Y-102235000D03*
X198120000Y-102235000D03*
X195620000Y-102235000D03*
D16*
X222885000Y-99695000D03*
D11*
X225385000Y-99695000D03*
D16*
X212765000Y-99695000D03*
D11*
X215265000Y-99695000D03*
D16*
X170815000Y-62865000D03*
D11*
X173315000Y-62865000D03*
X97440000Y-78080000D03*
D17*
X97440000Y-57080000D03*
D18*
X222885000Y-66040000D03*
X222885000Y-60040000D03*
X218185000Y-63040000D03*
D19*
X222885000Y-92075000D03*
X214385000Y-91075000D03*
D20*
X215885000Y-86575000D03*
D19*
X219885000Y-86575000D03*
X222885000Y-86575000D03*
D13*
X221585000Y-88875000D03*
X214585000Y-88875000D03*
D21*
X88900000Y-102235000D03*
X88900000Y-104775000D03*
X86900000Y-104775000D03*
X86900000Y-102235000D03*
D22*
X84200000Y-97505000D03*
X84200000Y-109505000D03*
D23*
X186690000Y-58420000D03*
X189690000Y-58420000D03*
X183515000Y-109855000D03*
X188515000Y-109855000D03*
X194310000Y-109855000D03*
X199310000Y-109855000D03*
D11*
X175895000Y-90170000D03*
D24*
X168275000Y-90170000D03*
D25*
X217144200Y-77470000D03*
X220344600Y-77470000D03*
X223545000Y-77470000D03*
X177165000Y-101650800D03*
X177165000Y-98450400D03*
X177165000Y-95250000D03*
D26*
X146835000Y-114355000D03*
X140335000Y-114355000D03*
X146835000Y-109855000D03*
X140335000Y-109855000D03*
X156360000Y-114355000D03*
X149860000Y-114355000D03*
X156360000Y-109855000D03*
X149860000Y-109855000D03*
X165885000Y-114355000D03*
X159385000Y-114355000D03*
X165885000Y-109855000D03*
X159385000Y-109855000D03*
X137310000Y-114355000D03*
X130810000Y-114355000D03*
X137310000Y-109855000D03*
X130810000Y-109855000D03*
X175410000Y-114355000D03*
X168910000Y-114355000D03*
X175410000Y-109855000D03*
X168910000Y-109855000D03*
D27*
X108585000Y-57734200D03*
D28*
X108585000Y-60274200D03*
X108585000Y-62814200D03*
X108585000Y-65354200D03*
X108585000Y-67894200D03*
X108585000Y-70434200D03*
X108585000Y-72974200D03*
X108585000Y-75514200D03*
X108585000Y-78054200D03*
X108585000Y-80594200D03*
X108585000Y-83134200D03*
X108585000Y-85674200D03*
X108585000Y-88214200D03*
X108585000Y-90754200D03*
X108585000Y-93294200D03*
X108585000Y-95834200D03*
X108585000Y-98374200D03*
X108585000Y-100914200D03*
X108585000Y-103454200D03*
X108585000Y-105994200D03*
X123825000Y-105994200D03*
X123825000Y-103454200D03*
X123825000Y-100914200D03*
X123825000Y-98374200D03*
X123825000Y-95834200D03*
X123825000Y-93294200D03*
X123825000Y-90754200D03*
X123825000Y-88214200D03*
X123825000Y-85674200D03*
X123825000Y-83134200D03*
X123825000Y-80594200D03*
X123825000Y-78054200D03*
X123825000Y-75514200D03*
X123825000Y-72974200D03*
X123825000Y-70434200D03*
X123825000Y-67894200D03*
X123825000Y-65354200D03*
X123825000Y-62814200D03*
X123825000Y-60274200D03*
X123825000Y-57683400D03*
D29*
X117485000Y-61544200D03*
X114945000Y-61544200D03*
D30*
X135985000Y-105600000D03*
X135985000Y-103060000D03*
X135985000Y-100520000D03*
X135985000Y-97980000D03*
D16*
X132080000Y-62865000D03*
D24*
X147320000Y-90805000D03*
X132080000Y-65405000D03*
X147320000Y-88265000D03*
X132080000Y-67945000D03*
X147320000Y-85725000D03*
X132080000Y-70485000D03*
X147320000Y-83185000D03*
X132080000Y-73025000D03*
X147320000Y-80645000D03*
X132080000Y-75565000D03*
X147320000Y-78105000D03*
X132080000Y-78105000D03*
X147320000Y-75565000D03*
X132080000Y-80645000D03*
X147320000Y-73025000D03*
X132080000Y-83185000D03*
X147320000Y-70485000D03*
X132080000Y-85725000D03*
X147320000Y-67945000D03*
X132080000Y-88265000D03*
X147320000Y-65405000D03*
X132080000Y-90805000D03*
X147320000Y-62865000D03*
D16*
X153035000Y-70485000D03*
D24*
X160655000Y-88265000D03*
X153035000Y-73025000D03*
X160655000Y-85725000D03*
X153035000Y-75565000D03*
X160655000Y-83185000D03*
X153035000Y-78105000D03*
X160655000Y-80645000D03*
X153035000Y-80645000D03*
X160655000Y-78105000D03*
X153035000Y-83185000D03*
X160655000Y-75565000D03*
X153035000Y-85725000D03*
X160655000Y-73025000D03*
X153035000Y-88265000D03*
X160655000Y-70485000D03*
D16*
X168275000Y-70485000D03*
D24*
X175895000Y-85725000D03*
X168275000Y-73025000D03*
X175895000Y-83185000D03*
X168275000Y-75565000D03*
X175895000Y-80645000D03*
X168275000Y-78105000D03*
X175895000Y-78105000D03*
X168275000Y-80645000D03*
X175895000Y-75565000D03*
X168275000Y-83185000D03*
X175895000Y-73025000D03*
X168275000Y-85725000D03*
X175895000Y-70485000D03*
D16*
X189865000Y-73660000D03*
D24*
X197485000Y-96520000D03*
X189865000Y-76200000D03*
X197485000Y-93980000D03*
X189865000Y-78740000D03*
X197485000Y-91440000D03*
X189865000Y-81280000D03*
X197485000Y-88900000D03*
X189865000Y-83820000D03*
X197485000Y-86360000D03*
X189865000Y-86360000D03*
X197485000Y-83820000D03*
X189865000Y-88900000D03*
X197485000Y-81280000D03*
X189865000Y-91440000D03*
X197485000Y-78740000D03*
X189865000Y-93980000D03*
X197485000Y-76200000D03*
X189865000Y-96520000D03*
X197485000Y-73660000D03*
D31*
X89535000Y-92075000D03*
X89535000Y-87195000D03*
M02*
