G04 #@! TF.FileFunction,Copper,L2,Bot,Signal*
%FSLAX46Y46*%
G04 Gerber Fmt 4.6, Leading zero omitted, Abs format (unit mm)*
G04 Created by KiCad (PCBNEW 4.0.7) date 02/25/18 21:11:53*
%MOMM*%
%LPD*%
G01*
G04 APERTURE LIST*
%ADD10C,0.100000*%
%ADD11C,1.600000*%
%ADD12R,1.200000X1.200000*%
%ADD13C,1.200000*%
%ADD14R,2.000000X2.000000*%
%ADD15C,2.000000*%
%ADD16R,1.600000X1.600000*%
%ADD17R,3.500000X3.500000*%
%ADD18O,2.000000X1.400000*%
%ADD19R,2.000000X1.400000*%
%ADD20C,1.520000*%
%ADD21C,2.700000*%
%ADD22C,2.600000*%
%ADD23O,1.600000X1.600000*%
%ADD24C,1.574800*%
%ADD25C,1.700000*%
%ADD26R,2.250000X1.727200*%
%ADD27O,2.250000X1.727200*%
%ADD28O,1.727200X1.727200*%
%ADD29C,1.524000*%
%ADD30C,1.500000*%
%ADD31C,0.600000*%
%ADD32C,0.250000*%
%ADD33C,0.254000*%
G04 APERTURE END LIST*
D10*
D11*
X149860000Y-57150000D03*
X152360000Y-57150000D03*
X147320000Y-52705000D03*
X142320000Y-52705000D03*
X99695000Y-107950000D03*
X102195000Y-107950000D03*
D12*
X96520000Y-107950000D03*
D13*
X95020000Y-107950000D03*
D14*
X207645000Y-58420000D03*
D15*
X212645000Y-58420000D03*
D16*
X205740000Y-72390000D03*
D11*
X208240000Y-72390000D03*
X78740000Y-93980000D03*
X76240000Y-93980000D03*
X95250000Y-92710000D03*
X97750000Y-92710000D03*
X95250000Y-86995000D03*
X97750000Y-86995000D03*
D12*
X156210000Y-64770000D03*
D13*
X157710000Y-64770000D03*
D11*
X132080000Y-58420000D03*
X134580000Y-58420000D03*
D12*
X182880000Y-66675000D03*
D13*
X182880000Y-65175000D03*
D11*
X164465000Y-93345000D03*
X166965000Y-93345000D03*
X160655000Y-93345000D03*
X158155000Y-93345000D03*
D12*
X183515000Y-74295000D03*
D13*
X185015000Y-74295000D03*
D12*
X183515000Y-81280000D03*
D13*
X185015000Y-81280000D03*
D12*
X184785000Y-88265000D03*
D13*
X183285000Y-88265000D03*
D12*
X184785000Y-95250000D03*
D13*
X183285000Y-95250000D03*
D11*
X201295000Y-93980000D03*
X201295000Y-91480000D03*
X201295000Y-76200000D03*
X201295000Y-78700000D03*
X184785000Y-102235000D03*
X187285000Y-102235000D03*
X198120000Y-102235000D03*
X195620000Y-102235000D03*
D16*
X222885000Y-99695000D03*
D11*
X225385000Y-99695000D03*
D16*
X212765000Y-99695000D03*
D11*
X215265000Y-99695000D03*
D16*
X170815000Y-62865000D03*
D11*
X173315000Y-62865000D03*
D17*
X222885000Y-66040000D03*
X222885000Y-60040000D03*
X218185000Y-63040000D03*
D18*
X222885000Y-92075000D03*
X214385000Y-91075000D03*
D19*
X215885000Y-86575000D03*
D18*
X219885000Y-86575000D03*
X222885000Y-86575000D03*
D20*
X88900000Y-102235000D03*
X88900000Y-104775000D03*
X86900000Y-104775000D03*
X86900000Y-102235000D03*
D21*
X84200000Y-97505000D03*
X84200000Y-109505000D03*
D22*
X186690000Y-58420000D03*
X189690000Y-58420000D03*
X183515000Y-109855000D03*
X188515000Y-109855000D03*
X194310000Y-109855000D03*
X199310000Y-109855000D03*
D11*
X175895000Y-90170000D03*
D23*
X168275000Y-90170000D03*
D24*
X217144200Y-77470000D03*
X220344600Y-77470000D03*
X223545000Y-77470000D03*
X177165000Y-101650800D03*
X177165000Y-98450400D03*
X177165000Y-95250000D03*
D25*
X146835000Y-114355000D03*
X140335000Y-114355000D03*
X146835000Y-109855000D03*
X140335000Y-109855000D03*
X156360000Y-114355000D03*
X149860000Y-114355000D03*
X156360000Y-109855000D03*
X149860000Y-109855000D03*
X165885000Y-114355000D03*
X159385000Y-114355000D03*
X165885000Y-109855000D03*
X159385000Y-109855000D03*
X137310000Y-114355000D03*
X130810000Y-114355000D03*
X137310000Y-109855000D03*
X130810000Y-109855000D03*
X175410000Y-114355000D03*
X168910000Y-114355000D03*
X175410000Y-109855000D03*
X168910000Y-109855000D03*
D26*
X108585000Y-57734200D03*
D27*
X108585000Y-60274200D03*
X108585000Y-62814200D03*
X108585000Y-65354200D03*
X108585000Y-67894200D03*
X108585000Y-70434200D03*
X108585000Y-72974200D03*
X108585000Y-75514200D03*
X108585000Y-78054200D03*
X108585000Y-80594200D03*
X108585000Y-83134200D03*
X108585000Y-85674200D03*
X108585000Y-88214200D03*
X108585000Y-90754200D03*
X108585000Y-93294200D03*
X108585000Y-95834200D03*
X108585000Y-98374200D03*
X108585000Y-100914200D03*
X108585000Y-103454200D03*
X108585000Y-105994200D03*
X123825000Y-105994200D03*
X123825000Y-103454200D03*
X123825000Y-100914200D03*
X123825000Y-98374200D03*
X123825000Y-95834200D03*
X123825000Y-93294200D03*
X123825000Y-90754200D03*
X123825000Y-88214200D03*
X123825000Y-85674200D03*
X123825000Y-83134200D03*
X123825000Y-80594200D03*
X123825000Y-78054200D03*
X123825000Y-75514200D03*
X123825000Y-72974200D03*
X123825000Y-70434200D03*
X123825000Y-67894200D03*
X123825000Y-65354200D03*
X123825000Y-62814200D03*
X123825000Y-60274200D03*
X123825000Y-57683400D03*
D28*
X117485000Y-61544200D03*
X114945000Y-61544200D03*
D29*
X135985000Y-105600000D03*
X135985000Y-103060000D03*
X135985000Y-100520000D03*
X135985000Y-97980000D03*
D16*
X132080000Y-62865000D03*
D23*
X147320000Y-90805000D03*
X132080000Y-65405000D03*
X147320000Y-88265000D03*
X132080000Y-67945000D03*
X147320000Y-85725000D03*
X132080000Y-70485000D03*
X147320000Y-83185000D03*
X132080000Y-73025000D03*
X147320000Y-80645000D03*
X132080000Y-75565000D03*
X147320000Y-78105000D03*
X132080000Y-78105000D03*
X147320000Y-75565000D03*
X132080000Y-80645000D03*
X147320000Y-73025000D03*
X132080000Y-83185000D03*
X147320000Y-70485000D03*
X132080000Y-85725000D03*
X147320000Y-67945000D03*
X132080000Y-88265000D03*
X147320000Y-65405000D03*
X132080000Y-90805000D03*
X147320000Y-62865000D03*
D16*
X153035000Y-70485000D03*
D23*
X160655000Y-88265000D03*
X153035000Y-73025000D03*
X160655000Y-85725000D03*
X153035000Y-75565000D03*
X160655000Y-83185000D03*
X153035000Y-78105000D03*
X160655000Y-80645000D03*
X153035000Y-80645000D03*
X160655000Y-78105000D03*
X153035000Y-83185000D03*
X160655000Y-75565000D03*
X153035000Y-85725000D03*
X160655000Y-73025000D03*
X153035000Y-88265000D03*
X160655000Y-70485000D03*
D16*
X168275000Y-70485000D03*
D23*
X175895000Y-85725000D03*
X168275000Y-73025000D03*
X175895000Y-83185000D03*
X168275000Y-75565000D03*
X175895000Y-80645000D03*
X168275000Y-78105000D03*
X175895000Y-78105000D03*
X168275000Y-80645000D03*
X175895000Y-75565000D03*
X168275000Y-83185000D03*
X175895000Y-73025000D03*
X168275000Y-85725000D03*
X175895000Y-70485000D03*
D16*
X189865000Y-73660000D03*
D23*
X197485000Y-96520000D03*
X189865000Y-76200000D03*
X197485000Y-93980000D03*
X189865000Y-78740000D03*
X197485000Y-91440000D03*
X189865000Y-81280000D03*
X197485000Y-88900000D03*
X189865000Y-83820000D03*
X197485000Y-86360000D03*
X189865000Y-86360000D03*
X197485000Y-83820000D03*
X189865000Y-88900000D03*
X197485000Y-81280000D03*
X189865000Y-91440000D03*
X197485000Y-78740000D03*
X189865000Y-93980000D03*
X197485000Y-76200000D03*
X189865000Y-96520000D03*
X197485000Y-73660000D03*
D30*
X89535000Y-92075000D03*
X89535000Y-87195000D03*
D31*
X129274000Y-63062600D03*
X98048300Y-73740400D03*
X103026800Y-78054200D03*
X97477200Y-72712800D03*
X103702900Y-78762100D03*
X101502900Y-65267400D03*
X105792000Y-61092100D03*
X74744300Y-84189600D03*
X107059500Y-58923200D03*
X131091700Y-86995000D03*
X129509800Y-73025000D03*
X121696600Y-84636100D03*
X133426200Y-71623100D03*
D32*
X153316400Y-71610300D02*
X153035000Y-71610300D01*
X154160300Y-72454200D02*
X153316400Y-71610300D01*
X154160300Y-73282200D02*
X154160300Y-72454200D01*
X160173700Y-79295600D02*
X154160300Y-73282200D01*
X165959100Y-79295600D02*
X160173700Y-79295600D01*
X167149700Y-78105000D02*
X165959100Y-79295600D01*
X168275000Y-78105000D02*
X167149700Y-78105000D01*
X153035000Y-70485000D02*
X153035000Y-71047600D01*
X153035000Y-71047600D02*
X153035000Y-71610300D01*
X200660000Y-72390000D02*
X186690000Y-58420000D01*
X205740000Y-72390000D02*
X200660000Y-72390000D01*
X156210000Y-67872600D02*
X153035000Y-71047600D01*
X156210000Y-64770000D02*
X156210000Y-67872600D01*
X149860000Y-57494700D02*
X149860000Y-57150000D01*
X156210000Y-63844700D02*
X149860000Y-57494700D01*
X156210000Y-64770000D02*
X156210000Y-63844700D01*
X149860000Y-55245000D02*
X149860000Y-57150000D01*
X147320000Y-52705000D02*
X149860000Y-55245000D01*
X144759300Y-55265700D02*
X147320000Y-52705000D01*
X135234300Y-55265700D02*
X144759300Y-55265700D01*
X132080000Y-58420000D02*
X135234300Y-55265700D01*
X129407900Y-61092100D02*
X132080000Y-58420000D01*
X129274000Y-61092100D02*
X129407900Y-61092100D01*
X124640800Y-56458900D02*
X129274000Y-61092100D01*
X107404100Y-56458900D02*
X124640800Y-56458900D01*
X94060600Y-69802400D02*
X107404100Y-56458900D01*
X94060600Y-108372900D02*
X94060600Y-69802400D01*
X94582800Y-108895100D02*
X94060600Y-108372900D01*
X98749900Y-108895100D02*
X94582800Y-108895100D01*
X99695000Y-107950000D02*
X98749900Y-108895100D01*
X129274000Y-61092100D02*
X129274000Y-63062600D01*
X98915200Y-104629500D02*
X96520000Y-107024700D01*
X98915200Y-74607300D02*
X98915200Y-104629500D01*
X98048300Y-73740400D02*
X98915200Y-74607300D01*
X96520000Y-107950000D02*
X96520000Y-107024700D01*
X196070300Y-81280000D02*
X190990300Y-76200000D01*
X197485000Y-81280000D02*
X196070300Y-81280000D01*
X189865000Y-76200000D02*
X190427700Y-76200000D01*
X190427700Y-76200000D02*
X190990300Y-76200000D01*
X189865000Y-75637300D02*
X189865000Y-73660000D01*
X190427700Y-76200000D02*
X189865000Y-75637300D01*
X197485000Y-83820000D02*
X197485000Y-81280000D01*
X189865000Y-96520000D02*
X189865000Y-95394700D01*
X190146400Y-95394700D02*
X189865000Y-95394700D01*
X196359700Y-89181400D02*
X190146400Y-95394700D01*
X196359700Y-85789200D02*
X196359700Y-89181400D01*
X197203600Y-84945300D02*
X196359700Y-85789200D01*
X197485000Y-84945300D02*
X197203600Y-84945300D01*
X197485000Y-83820000D02*
X197485000Y-84945300D01*
X207645000Y-67970800D02*
X207645000Y-58420000D01*
X217144200Y-77470000D02*
X207645000Y-67970800D01*
X182880000Y-67736000D02*
X182880000Y-66675000D01*
X176176300Y-74439700D02*
X182880000Y-67736000D01*
X175895000Y-74439700D02*
X176176300Y-74439700D01*
X175895000Y-75565000D02*
X175895000Y-74439700D01*
X168275000Y-80645000D02*
X167149700Y-80645000D01*
X162069700Y-85725000D02*
X160655000Y-85725000D01*
X167149700Y-80645000D02*
X162069700Y-85725000D01*
X164095100Y-93345000D02*
X164465000Y-93345000D01*
X159525700Y-88775600D02*
X164095100Y-93345000D01*
X159525700Y-87698300D02*
X159525700Y-88775600D01*
X160373700Y-86850300D02*
X159525700Y-87698300D01*
X160655000Y-86850300D02*
X160373700Y-86850300D01*
X160655000Y-85725000D02*
X160655000Y-86850300D01*
X168275000Y-75565000D02*
X168275000Y-76690300D01*
X160655000Y-88265000D02*
X161780300Y-88265000D01*
X161780300Y-87983700D02*
X161780300Y-88265000D01*
X167849000Y-81915000D02*
X161780300Y-87983700D01*
X168652800Y-81915000D02*
X167849000Y-81915000D01*
X169441100Y-81126700D02*
X168652800Y-81915000D01*
X169441100Y-77575100D02*
X169441100Y-81126700D01*
X168556300Y-76690300D02*
X169441100Y-77575100D01*
X168275000Y-76690300D02*
X168556300Y-76690300D01*
X161818700Y-94508700D02*
X160655000Y-93345000D01*
X164953900Y-94508700D02*
X161818700Y-94508700D01*
X165626200Y-93836400D02*
X164953900Y-94508700D01*
X165626200Y-92110900D02*
X165626200Y-93836400D01*
X161780300Y-88265000D02*
X165626200Y-92110900D01*
X185015000Y-75586000D02*
X185015000Y-74295000D01*
X189583700Y-80154700D02*
X185015000Y-75586000D01*
X189865000Y-80154700D02*
X189583700Y-80154700D01*
X189865000Y-81280000D02*
X189865000Y-80154700D01*
X168275000Y-85725000D02*
X168275000Y-83185000D01*
X187555000Y-83820000D02*
X185015000Y-81280000D01*
X189865000Y-83820000D02*
X187555000Y-83820000D01*
X187615300Y-86360000D02*
X185710300Y-88265000D01*
X189865000Y-86360000D02*
X187615300Y-86360000D01*
X184785000Y-88265000D02*
X185710300Y-88265000D01*
X186980300Y-93980000D02*
X185710300Y-95250000D01*
X189865000Y-93980000D02*
X186980300Y-93980000D01*
X184785000Y-95250000D02*
X185710300Y-95250000D01*
X197203700Y-95105300D02*
X197485000Y-95105300D01*
X194310000Y-97999000D02*
X197203700Y-95105300D01*
X194310000Y-109855000D02*
X194310000Y-97999000D01*
X197485000Y-93980000D02*
X197485000Y-95105300D01*
X199880400Y-77614600D02*
X201295000Y-76200000D01*
X199880400Y-88152500D02*
X199880400Y-77614600D01*
X197862900Y-90170000D02*
X199880400Y-88152500D01*
X197150700Y-90170000D02*
X197862900Y-90170000D01*
X196215800Y-91104900D02*
X197150700Y-90170000D01*
X196215800Y-91791900D02*
X196215800Y-91104900D01*
X187900800Y-100106900D02*
X196215800Y-91791900D01*
X187796300Y-100106900D02*
X187900800Y-100106900D01*
X186035000Y-101868200D02*
X187796300Y-100106900D01*
X186035000Y-107335000D02*
X186035000Y-101868200D01*
X183515000Y-109855000D02*
X186035000Y-107335000D01*
X187285000Y-108625000D02*
X187285000Y-102235000D01*
X188515000Y-109855000D02*
X187285000Y-108625000D01*
X198120000Y-108665000D02*
X198120000Y-102235000D01*
X199310000Y-109855000D02*
X198120000Y-108665000D01*
X225385000Y-91325100D02*
X225385000Y-99695000D01*
X221559600Y-87499700D02*
X225385000Y-91325100D01*
X221559600Y-86475200D02*
X221559600Y-87499700D01*
X220634100Y-85549700D02*
X221559600Y-86475200D01*
X215885000Y-85549700D02*
X220634100Y-85549700D01*
X215885000Y-86575000D02*
X215885000Y-85549700D01*
X219885000Y-95075000D02*
X215265000Y-99695000D01*
X219885000Y-86575000D02*
X219885000Y-95075000D01*
X97905100Y-72712800D02*
X97477200Y-72712800D01*
X103026800Y-77834500D02*
X97905100Y-72712800D01*
X103026800Y-78054200D02*
X103026800Y-77834500D01*
X103702900Y-67467400D02*
X103702900Y-78762100D01*
X101502900Y-65267400D02*
X103702900Y-67467400D01*
X108585000Y-83134200D02*
X108585000Y-81945300D01*
X104796100Y-62088000D02*
X105792000Y-61092100D01*
X104796100Y-78820300D02*
X104796100Y-62088000D01*
X107921100Y-81945300D02*
X104796100Y-78820300D01*
X108585000Y-81945300D02*
X107921100Y-81945300D01*
X220344600Y-70655700D02*
X222885000Y-68115300D01*
X220344600Y-77470000D02*
X220344600Y-70655700D01*
X222885000Y-66040000D02*
X222885000Y-68115300D01*
X77490000Y-86935300D02*
X74744300Y-84189600D01*
X77490000Y-94408300D02*
X77490000Y-86935300D01*
X86586700Y-103505000D02*
X77490000Y-94408300D01*
X87630000Y-103505000D02*
X86586700Y-103505000D01*
X88900000Y-104775000D02*
X87630000Y-103505000D01*
X85718300Y-97505000D02*
X84200000Y-97505000D01*
X90006500Y-101793200D02*
X85718300Y-97505000D01*
X90006500Y-105274000D02*
X90006500Y-101793200D01*
X85775500Y-109505000D02*
X90006500Y-105274000D01*
X84200000Y-109505000D02*
X85775500Y-109505000D01*
X175895000Y-83185000D02*
X175895000Y-85725000D01*
X175895000Y-85725000D02*
X175895000Y-90170000D01*
X188130000Y-87485400D02*
X177165000Y-98450400D01*
X190331200Y-87485400D02*
X188130000Y-87485400D01*
X191032200Y-86784400D02*
X190331200Y-87485400D01*
X191032200Y-79907200D02*
X191032200Y-86784400D01*
X189865000Y-78740000D02*
X191032200Y-79907200D01*
X130810000Y-105953700D02*
X130810000Y-109855000D01*
X124419400Y-99563100D02*
X130810000Y-105953700D01*
X123825000Y-99563100D02*
X124419400Y-99563100D01*
X123825000Y-98374200D02*
X123825000Y-99563100D01*
X166181700Y-107126700D02*
X168910000Y-109855000D01*
X135117500Y-107126700D02*
X166181700Y-107126700D01*
X125013900Y-97023100D02*
X135117500Y-107126700D01*
X123825000Y-97023100D02*
X125013900Y-97023100D01*
X123825000Y-95834200D02*
X123825000Y-97023100D01*
X147320000Y-90805000D02*
X146194700Y-90805000D01*
X108585000Y-60274200D02*
X108585000Y-61463100D01*
X107841900Y-61463100D02*
X108585000Y-61463100D01*
X105256500Y-64048500D02*
X107841900Y-61463100D01*
X105256500Y-76676300D02*
X105256500Y-64048500D01*
X107876700Y-79296500D02*
X105256500Y-76676300D01*
X109282900Y-79296500D02*
X107876700Y-79296500D01*
X110466000Y-80479600D02*
X109282900Y-79296500D01*
X110466000Y-81900900D02*
X110466000Y-80479600D01*
X123070600Y-94505500D02*
X110466000Y-81900900D01*
X142494200Y-94505500D02*
X123070600Y-94505500D01*
X146194700Y-90805000D02*
X142494200Y-94505500D01*
X147320000Y-88265000D02*
X146194700Y-88265000D01*
X108585000Y-62814200D02*
X107134700Y-62814200D01*
X105718200Y-64230700D02*
X107134700Y-62814200D01*
X105718200Y-74734600D02*
X105718200Y-64230700D01*
X107848800Y-76865200D02*
X105718200Y-74734600D01*
X109401300Y-76865200D02*
X107848800Y-76865200D01*
X116347500Y-83811400D02*
X109401300Y-76865200D01*
X116347500Y-85235900D02*
X116347500Y-83811400D01*
X123135800Y-92024200D02*
X116347500Y-85235900D01*
X126037600Y-92024200D02*
X123135800Y-92024200D01*
X126910200Y-92896800D02*
X126037600Y-92024200D01*
X141562900Y-92896800D02*
X126910200Y-92896800D01*
X146194700Y-88265000D02*
X141562900Y-92896800D01*
X147320000Y-85725000D02*
X146194700Y-85725000D01*
X108585000Y-65354200D02*
X108585000Y-66543100D01*
X107990600Y-66543100D02*
X108585000Y-66543100D01*
X106659900Y-67873800D02*
X107990600Y-66543100D01*
X106659900Y-73053800D02*
X106659900Y-67873800D01*
X107850300Y-74244200D02*
X106659900Y-73053800D01*
X109309400Y-74244200D02*
X107850300Y-74244200D01*
X110463800Y-75398600D02*
X109309400Y-74244200D01*
X110463800Y-76818700D02*
X110463800Y-75398600D01*
X123129300Y-89484200D02*
X110463800Y-76818700D01*
X126631300Y-89484200D02*
X123129300Y-89484200D01*
X129587600Y-92440500D02*
X126631300Y-89484200D01*
X139479200Y-92440500D02*
X129587600Y-92440500D01*
X146194700Y-85725000D02*
X139479200Y-92440500D01*
X147320000Y-83185000D02*
X146194700Y-83185000D01*
X108585000Y-67894200D02*
X108585000Y-69083100D01*
X137436000Y-91943700D02*
X146194700Y-83185000D01*
X131410400Y-91943700D02*
X137436000Y-91943700D01*
X126410900Y-86944200D02*
X131410400Y-91943700D01*
X123104300Y-86944200D02*
X126410900Y-86944200D01*
X121071300Y-84911200D02*
X123104300Y-86944200D01*
X121071300Y-83459600D02*
X121071300Y-84911200D01*
X109315900Y-71704200D02*
X121071300Y-83459600D01*
X107895500Y-71704200D02*
X109315900Y-71704200D01*
X107121900Y-70930600D02*
X107895500Y-71704200D01*
X107121900Y-69951800D02*
X107121900Y-70930600D01*
X107990600Y-69083100D02*
X107121900Y-69951800D01*
X108585000Y-69083100D02*
X107990600Y-69083100D01*
X114201500Y-70434200D02*
X108585000Y-70434200D01*
X123018600Y-61617100D02*
X114201500Y-70434200D01*
X124671700Y-61617100D02*
X123018600Y-61617100D01*
X125765900Y-62711300D02*
X124671700Y-61617100D01*
X125765900Y-63242000D02*
X125765900Y-62711300D01*
X131738900Y-69215000D02*
X125765900Y-63242000D01*
X133422100Y-69215000D02*
X131738900Y-69215000D01*
X144852100Y-80645000D02*
X133422100Y-69215000D01*
X147320000Y-80645000D02*
X144852100Y-80645000D01*
X144635300Y-79375000D02*
X133205300Y-67945000D01*
X147652300Y-79375000D02*
X144635300Y-79375000D01*
X151909700Y-83632400D02*
X147652300Y-79375000D01*
X151909700Y-83753400D02*
X151909700Y-83632400D01*
X152756000Y-84599700D02*
X151909700Y-83753400D01*
X153035000Y-84599700D02*
X152756000Y-84599700D01*
X153035000Y-85725000D02*
X153035000Y-84599700D01*
X132530100Y-67945000D02*
X133205300Y-67945000D01*
X132530100Y-67945000D02*
X132080000Y-67945000D01*
X132080000Y-67945000D02*
X132080000Y-66819700D01*
X108585000Y-75514200D02*
X107134700Y-75514200D01*
X131798600Y-66819700D02*
X132080000Y-66819700D01*
X128648700Y-63669800D02*
X131798600Y-66819700D01*
X128648700Y-63100800D02*
X128648700Y-63669800D01*
X124618600Y-59070700D02*
X128648700Y-63100800D01*
X123050900Y-59070700D02*
X124618600Y-59070700D01*
X118037400Y-64084200D02*
X123050900Y-59070700D01*
X107861500Y-64084200D02*
X118037400Y-64084200D01*
X106203300Y-65742400D02*
X107861500Y-64084200D01*
X106203300Y-74582800D02*
X106203300Y-65742400D01*
X107134700Y-75514200D02*
X106203300Y-74582800D01*
X108585000Y-88214200D02*
X108585000Y-87025300D01*
X107990600Y-87025300D02*
X108585000Y-87025300D01*
X104345800Y-83380500D02*
X107990600Y-87025300D01*
X104345800Y-61636900D02*
X104345800Y-83380500D01*
X107059500Y-58923200D02*
X104345800Y-61636900D01*
X132407500Y-86995000D02*
X131091700Y-86995000D01*
X133205400Y-86197100D02*
X132407500Y-86995000D01*
X133205400Y-72454400D02*
X133205400Y-86197100D01*
X132361300Y-71610300D02*
X133205400Y-72454400D01*
X132080000Y-71610300D02*
X132361300Y-71610300D01*
X132080000Y-70485000D02*
X132080000Y-71610300D01*
X129509700Y-73025000D02*
X129509800Y-73025000D01*
X129509700Y-79395000D02*
X129509700Y-73025000D01*
X124419400Y-84485300D02*
X129509700Y-79395000D01*
X123825000Y-84485300D02*
X124419400Y-84485300D01*
X123825000Y-85674200D02*
X123825000Y-84485300D01*
X123825000Y-72974200D02*
X123825000Y-74163100D01*
X121696600Y-75697100D02*
X121696600Y-84636100D01*
X123230600Y-74163100D02*
X121696600Y-75697100D01*
X123825000Y-74163100D02*
X123230600Y-74163100D01*
X143718100Y-81915000D02*
X133426200Y-71623100D01*
X147708800Y-81915000D02*
X143718100Y-81915000D01*
X148475400Y-82681600D02*
X147708800Y-81915000D01*
X148475400Y-91256600D02*
X148475400Y-82681600D01*
X141752000Y-97980000D02*
X148475400Y-91256600D01*
X135985000Y-97980000D02*
X141752000Y-97980000D01*
X122364500Y-66433700D02*
X123825000Y-67894200D01*
X122364500Y-64855200D02*
X122364500Y-66433700D01*
X123080400Y-64139300D02*
X122364500Y-64855200D01*
X124597600Y-64139300D02*
X123080400Y-64139300D01*
X130954700Y-70496400D02*
X124597600Y-64139300D01*
X130954700Y-83725500D02*
X130954700Y-70496400D01*
X131828900Y-84599700D02*
X130954700Y-83725500D01*
X132080000Y-84599700D02*
X131828900Y-84599700D01*
X132080000Y-85725000D02*
X132080000Y-84599700D01*
X132080000Y-90805000D02*
X132080000Y-89679700D01*
X123825000Y-65354200D02*
X123825000Y-66543100D01*
X131798600Y-89679700D02*
X132080000Y-89679700D01*
X130466400Y-88347500D02*
X131798600Y-89679700D01*
X130466400Y-72590100D02*
X130466400Y-88347500D01*
X124419400Y-66543100D02*
X130466400Y-72590100D01*
X123825000Y-66543100D02*
X124419400Y-66543100D01*
X147601400Y-74150300D02*
X147320000Y-74150300D01*
X148445300Y-74994200D02*
X147601400Y-74150300D01*
X148445300Y-77751400D02*
X148445300Y-74994200D01*
X152753600Y-82059700D02*
X148445300Y-77751400D01*
X153035000Y-82059700D02*
X152753600Y-82059700D01*
X153035000Y-83185000D02*
X153035000Y-82059700D01*
X147320000Y-73025000D02*
X147320000Y-74150300D01*
X147517000Y-71610300D02*
X147320000Y-71610300D01*
X148445300Y-72538600D02*
X147517000Y-71610300D01*
X148445300Y-72671400D02*
X148445300Y-72538600D01*
X152753600Y-76979700D02*
X148445300Y-72671400D01*
X153035000Y-76979700D02*
X152753600Y-76979700D01*
X153035000Y-78105000D02*
X153035000Y-76979700D01*
X147320000Y-70485000D02*
X147320000Y-71610300D01*
X147601400Y-66530300D02*
X147320000Y-66530300D01*
X148445300Y-67374200D02*
X147601400Y-66530300D01*
X148445300Y-68435300D02*
X148445300Y-67374200D01*
X153035000Y-73025000D02*
X148445300Y-68435300D01*
X147320000Y-65405000D02*
X147320000Y-66530300D01*
X161780300Y-77823700D02*
X161780300Y-78105000D01*
X167993700Y-71610300D02*
X161780300Y-77823700D01*
X173644400Y-71610300D02*
X167993700Y-71610300D01*
X174769700Y-70485000D02*
X173644400Y-71610300D01*
X175895000Y-70485000D02*
X174769700Y-70485000D01*
X160655000Y-78105000D02*
X161780300Y-78105000D01*
D33*
G36*
X141491861Y-51697255D02*
X142320000Y-52525395D01*
X143148139Y-51697255D01*
X143091736Y-51510000D01*
X146485918Y-51510000D01*
X146104176Y-51891077D01*
X145885250Y-52418309D01*
X145884752Y-52989187D01*
X145907049Y-53043149D01*
X144444498Y-54505700D01*
X135234300Y-54505700D01*
X134943461Y-54563552D01*
X134696899Y-54728299D01*
X132418454Y-57006744D01*
X132366691Y-56985250D01*
X131795813Y-56984752D01*
X131268200Y-57202757D01*
X130864176Y-57606077D01*
X130645250Y-58133309D01*
X130644752Y-58704187D01*
X130667049Y-58758149D01*
X129340950Y-60084248D01*
X125178201Y-55921499D01*
X124931639Y-55756752D01*
X124640800Y-55698900D01*
X107404100Y-55698900D01*
X107113261Y-55756752D01*
X106866699Y-55921499D01*
X93523199Y-69264999D01*
X93358452Y-69511561D01*
X93300600Y-69802400D01*
X93300600Y-108372900D01*
X93358452Y-108663739D01*
X93523199Y-108910301D01*
X94045399Y-109432501D01*
X94291960Y-109597248D01*
X94582800Y-109655100D01*
X98749900Y-109655100D01*
X99040739Y-109597248D01*
X99287301Y-109432501D01*
X99356546Y-109363256D01*
X99408309Y-109384750D01*
X99979187Y-109385248D01*
X100506800Y-109167243D01*
X100716663Y-108957745D01*
X101366861Y-108957745D01*
X101440995Y-109203864D01*
X101978223Y-109396965D01*
X102548454Y-109369778D01*
X102949005Y-109203864D01*
X103023139Y-108957745D01*
X102195000Y-108129605D01*
X101366861Y-108957745D01*
X100716663Y-108957745D01*
X100910824Y-108763923D01*
X100938423Y-108697456D01*
X100941136Y-108704005D01*
X101187255Y-108778139D01*
X102015395Y-107950000D01*
X102374605Y-107950000D01*
X103202745Y-108778139D01*
X103448864Y-108704005D01*
X103641965Y-108166777D01*
X103614778Y-107596546D01*
X103448864Y-107195995D01*
X103202745Y-107121861D01*
X102374605Y-107950000D01*
X102015395Y-107950000D01*
X101187255Y-107121861D01*
X100941136Y-107195995D01*
X100938804Y-107202483D01*
X100912243Y-107138200D01*
X100716640Y-106942255D01*
X101366861Y-106942255D01*
X102195000Y-107770395D01*
X103023139Y-106942255D01*
X102949005Y-106696136D01*
X102411777Y-106503035D01*
X101841546Y-106530222D01*
X101440995Y-106696136D01*
X101366861Y-106942255D01*
X100716640Y-106942255D01*
X100508923Y-106734176D01*
X99981691Y-106515250D01*
X99410813Y-106514752D01*
X98883200Y-106732757D01*
X98479176Y-107136077D01*
X98260250Y-107663309D01*
X98259838Y-108135100D01*
X97767440Y-108135100D01*
X97767440Y-107350000D01*
X97723162Y-107114683D01*
X97637673Y-106981829D01*
X98266276Y-106353226D01*
X106868642Y-106353226D01*
X106890473Y-106450357D01*
X107174127Y-106964068D01*
X107632778Y-107330125D01*
X108196600Y-107492800D01*
X108458000Y-107492800D01*
X108458000Y-106121200D01*
X108712000Y-106121200D01*
X108712000Y-107492800D01*
X108973400Y-107492800D01*
X109537222Y-107330125D01*
X109995873Y-106964068D01*
X110279527Y-106450357D01*
X110301358Y-106353226D01*
X110180217Y-106121200D01*
X108712000Y-106121200D01*
X108458000Y-106121200D01*
X106989783Y-106121200D01*
X106868642Y-106353226D01*
X98266276Y-106353226D01*
X99452601Y-105166901D01*
X99617348Y-104920340D01*
X99675200Y-104629500D01*
X99675200Y-103813226D01*
X106868642Y-103813226D01*
X106890473Y-103910357D01*
X107174127Y-104424068D01*
X107550177Y-104724200D01*
X107174127Y-105024332D01*
X106890473Y-105538043D01*
X106868642Y-105635174D01*
X106989783Y-105867200D01*
X108458000Y-105867200D01*
X108458000Y-103581200D01*
X108712000Y-103581200D01*
X108712000Y-105867200D01*
X110180217Y-105867200D01*
X110301358Y-105635174D01*
X110279527Y-105538043D01*
X109995873Y-105024332D01*
X109619823Y-104724200D01*
X109995873Y-104424068D01*
X110279527Y-103910357D01*
X110301358Y-103813226D01*
X110180217Y-103581200D01*
X108712000Y-103581200D01*
X108458000Y-103581200D01*
X106989783Y-103581200D01*
X106868642Y-103813226D01*
X99675200Y-103813226D01*
X99675200Y-75557702D01*
X102091869Y-77974371D01*
X102091638Y-78239367D01*
X102233683Y-78583143D01*
X102496473Y-78846392D01*
X102773606Y-78961468D01*
X102909783Y-79291043D01*
X103172573Y-79554292D01*
X103516101Y-79696938D01*
X103585800Y-79696999D01*
X103585800Y-83380500D01*
X103643652Y-83671339D01*
X103808399Y-83917901D01*
X107155581Y-87265083D01*
X106904594Y-87640711D01*
X106790520Y-88214200D01*
X106904594Y-88787689D01*
X107229450Y-89273870D01*
X107544231Y-89484200D01*
X107229450Y-89694530D01*
X106904594Y-90180711D01*
X106790520Y-90754200D01*
X106904594Y-91327689D01*
X107229450Y-91813870D01*
X107544231Y-92024200D01*
X107229450Y-92234530D01*
X106904594Y-92720711D01*
X106790520Y-93294200D01*
X106904594Y-93867689D01*
X107229450Y-94353870D01*
X107544231Y-94564200D01*
X107229450Y-94774530D01*
X106904594Y-95260711D01*
X106790520Y-95834200D01*
X106904594Y-96407689D01*
X107229450Y-96893870D01*
X107544231Y-97104200D01*
X107229450Y-97314530D01*
X106904594Y-97800711D01*
X106790520Y-98374200D01*
X106904594Y-98947689D01*
X107229450Y-99433870D01*
X107544231Y-99644200D01*
X107229450Y-99854530D01*
X106904594Y-100340711D01*
X106790520Y-100914200D01*
X106904594Y-101487689D01*
X107229450Y-101973870D01*
X107547468Y-102186363D01*
X107174127Y-102484332D01*
X106890473Y-102998043D01*
X106868642Y-103095174D01*
X106989783Y-103327200D01*
X108458000Y-103327200D01*
X108458000Y-103307200D01*
X108712000Y-103307200D01*
X108712000Y-103327200D01*
X110180217Y-103327200D01*
X110301358Y-103095174D01*
X110279527Y-102998043D01*
X109995873Y-102484332D01*
X109622532Y-102186363D01*
X109940550Y-101973870D01*
X110265406Y-101487689D01*
X110379480Y-100914200D01*
X110265406Y-100340711D01*
X109940550Y-99854530D01*
X109625769Y-99644200D01*
X109940550Y-99433870D01*
X110265406Y-98947689D01*
X110379480Y-98374200D01*
X110265406Y-97800711D01*
X109940550Y-97314530D01*
X109625769Y-97104200D01*
X109940550Y-96893870D01*
X110265406Y-96407689D01*
X110379480Y-95834200D01*
X110265406Y-95260711D01*
X109940550Y-94774530D01*
X109625769Y-94564200D01*
X109940550Y-94353870D01*
X110265406Y-93867689D01*
X110379480Y-93294200D01*
X110265406Y-92720711D01*
X109940550Y-92234530D01*
X109625769Y-92024200D01*
X109940550Y-91813870D01*
X110265406Y-91327689D01*
X110379480Y-90754200D01*
X110265406Y-90180711D01*
X109940550Y-89694530D01*
X109625769Y-89484200D01*
X109940550Y-89273870D01*
X110265406Y-88787689D01*
X110379480Y-88214200D01*
X110265406Y-87640711D01*
X109940550Y-87154530D01*
X109625769Y-86944200D01*
X109940550Y-86733870D01*
X110265406Y-86247689D01*
X110379480Y-85674200D01*
X110265406Y-85100711D01*
X109940550Y-84614530D01*
X109625769Y-84404200D01*
X109940550Y-84193870D01*
X110265406Y-83707689D01*
X110379480Y-83134200D01*
X110318641Y-82828343D01*
X122387490Y-94897192D01*
X122144594Y-95260711D01*
X122030520Y-95834200D01*
X122144594Y-96407689D01*
X122469450Y-96893870D01*
X122784231Y-97104200D01*
X122469450Y-97314530D01*
X122144594Y-97800711D01*
X122030520Y-98374200D01*
X122144594Y-98947689D01*
X122469450Y-99433870D01*
X122784231Y-99644200D01*
X122469450Y-99854530D01*
X122144594Y-100340711D01*
X122030520Y-100914200D01*
X122144594Y-101487689D01*
X122469450Y-101973870D01*
X122784231Y-102184200D01*
X122469450Y-102394530D01*
X122144594Y-102880711D01*
X122030520Y-103454200D01*
X122144594Y-104027689D01*
X122469450Y-104513870D01*
X122784231Y-104724200D01*
X122469450Y-104934530D01*
X122144594Y-105420711D01*
X122030520Y-105994200D01*
X122144594Y-106567689D01*
X122469450Y-107053870D01*
X122955631Y-107378726D01*
X123529120Y-107492800D01*
X124120880Y-107492800D01*
X124694369Y-107378726D01*
X125180550Y-107053870D01*
X125505406Y-106567689D01*
X125619480Y-105994200D01*
X125505406Y-105420711D01*
X125180550Y-104934530D01*
X124865769Y-104724200D01*
X125180550Y-104513870D01*
X125505406Y-104027689D01*
X125619480Y-103454200D01*
X125505406Y-102880711D01*
X125180550Y-102394530D01*
X124865769Y-102184200D01*
X125180550Y-101973870D01*
X125410790Y-101629292D01*
X130050000Y-106268502D01*
X130050000Y-108562253D01*
X129969914Y-108595344D01*
X129551812Y-109012717D01*
X129325258Y-109558319D01*
X129324743Y-110149089D01*
X129550344Y-110695086D01*
X129967717Y-111113188D01*
X130513319Y-111339742D01*
X131104089Y-111340257D01*
X131650086Y-111114656D01*
X132068188Y-110697283D01*
X132294742Y-110151681D01*
X132294744Y-110149089D01*
X135824743Y-110149089D01*
X136050344Y-110695086D01*
X136467717Y-111113188D01*
X137013319Y-111339742D01*
X137604089Y-111340257D01*
X138150086Y-111114656D01*
X138568188Y-110697283D01*
X138794742Y-110151681D01*
X138794744Y-110149089D01*
X138849743Y-110149089D01*
X139075344Y-110695086D01*
X139492717Y-111113188D01*
X140038319Y-111339742D01*
X140629089Y-111340257D01*
X141175086Y-111114656D01*
X141593188Y-110697283D01*
X141819742Y-110151681D01*
X141819744Y-110149089D01*
X145349743Y-110149089D01*
X145575344Y-110695086D01*
X145992717Y-111113188D01*
X146538319Y-111339742D01*
X147129089Y-111340257D01*
X147675086Y-111114656D01*
X148093188Y-110697283D01*
X148319742Y-110151681D01*
X148319744Y-110149089D01*
X148374743Y-110149089D01*
X148600344Y-110695086D01*
X149017717Y-111113188D01*
X149563319Y-111339742D01*
X150154089Y-111340257D01*
X150700086Y-111114656D01*
X151118188Y-110697283D01*
X151344742Y-110151681D01*
X151344744Y-110149089D01*
X154874743Y-110149089D01*
X155100344Y-110695086D01*
X155517717Y-111113188D01*
X156063319Y-111339742D01*
X156654089Y-111340257D01*
X157200086Y-111114656D01*
X157618188Y-110697283D01*
X157844742Y-110151681D01*
X157844744Y-110149089D01*
X157899743Y-110149089D01*
X158125344Y-110695086D01*
X158542717Y-111113188D01*
X159088319Y-111339742D01*
X159679089Y-111340257D01*
X160225086Y-111114656D01*
X160643188Y-110697283D01*
X160869742Y-110151681D01*
X160870257Y-109560911D01*
X160644656Y-109014914D01*
X160227283Y-108596812D01*
X159681681Y-108370258D01*
X159090911Y-108369743D01*
X158544914Y-108595344D01*
X158126812Y-109012717D01*
X157900258Y-109558319D01*
X157899743Y-110149089D01*
X157844744Y-110149089D01*
X157845257Y-109560911D01*
X157619656Y-109014914D01*
X157202283Y-108596812D01*
X156656681Y-108370258D01*
X156065911Y-108369743D01*
X155519914Y-108595344D01*
X155101812Y-109012717D01*
X154875258Y-109558319D01*
X154874743Y-110149089D01*
X151344744Y-110149089D01*
X151345257Y-109560911D01*
X151119656Y-109014914D01*
X150702283Y-108596812D01*
X150156681Y-108370258D01*
X149565911Y-108369743D01*
X149019914Y-108595344D01*
X148601812Y-109012717D01*
X148375258Y-109558319D01*
X148374743Y-110149089D01*
X148319744Y-110149089D01*
X148320257Y-109560911D01*
X148094656Y-109014914D01*
X147677283Y-108596812D01*
X147131681Y-108370258D01*
X146540911Y-108369743D01*
X145994914Y-108595344D01*
X145576812Y-109012717D01*
X145350258Y-109558319D01*
X145349743Y-110149089D01*
X141819744Y-110149089D01*
X141820257Y-109560911D01*
X141594656Y-109014914D01*
X141177283Y-108596812D01*
X140631681Y-108370258D01*
X140040911Y-108369743D01*
X139494914Y-108595344D01*
X139076812Y-109012717D01*
X138850258Y-109558319D01*
X138849743Y-110149089D01*
X138794744Y-110149089D01*
X138795257Y-109560911D01*
X138569656Y-109014914D01*
X138152283Y-108596812D01*
X137606681Y-108370258D01*
X137015911Y-108369743D01*
X136469914Y-108595344D01*
X136051812Y-109012717D01*
X135825258Y-109558319D01*
X135824743Y-110149089D01*
X132294744Y-110149089D01*
X132295257Y-109560911D01*
X132069656Y-109014914D01*
X131652283Y-108596812D01*
X131570000Y-108562645D01*
X131570000Y-105953700D01*
X131512148Y-105662861D01*
X131512148Y-105662860D01*
X131347401Y-105416299D01*
X125254419Y-99323317D01*
X125505406Y-98947689D01*
X125564849Y-98648851D01*
X134580099Y-107664101D01*
X134826661Y-107828848D01*
X135117500Y-107886700D01*
X165866898Y-107886700D01*
X166470302Y-108490104D01*
X166181681Y-108370258D01*
X165590911Y-108369743D01*
X165044914Y-108595344D01*
X164626812Y-109012717D01*
X164400258Y-109558319D01*
X164399743Y-110149089D01*
X164625344Y-110695086D01*
X165042717Y-111113188D01*
X165588319Y-111339742D01*
X166179089Y-111340257D01*
X166725086Y-111114656D01*
X167143188Y-110697283D01*
X167369742Y-110151681D01*
X167370257Y-109560911D01*
X167249955Y-109269757D01*
X167458489Y-109478291D01*
X167425258Y-109558319D01*
X167424743Y-110149089D01*
X167650344Y-110695086D01*
X168067717Y-111113188D01*
X168613319Y-111339742D01*
X169204089Y-111340257D01*
X169750086Y-111114656D01*
X170168188Y-110697283D01*
X170394742Y-110151681D01*
X170394744Y-110149089D01*
X173924743Y-110149089D01*
X174150344Y-110695086D01*
X174567717Y-111113188D01*
X175113319Y-111339742D01*
X175704089Y-111340257D01*
X176250086Y-111114656D01*
X176668188Y-110697283D01*
X176894742Y-110151681D01*
X176895257Y-109560911D01*
X176669656Y-109014914D01*
X176252283Y-108596812D01*
X175706681Y-108370258D01*
X175115911Y-108369743D01*
X174569914Y-108595344D01*
X174151812Y-109012717D01*
X173925258Y-109558319D01*
X173924743Y-110149089D01*
X170394744Y-110149089D01*
X170395257Y-109560911D01*
X170169656Y-109014914D01*
X169752283Y-108596812D01*
X169206681Y-108370258D01*
X168615911Y-108369743D01*
X168533568Y-108403766D01*
X166719101Y-106589299D01*
X166472539Y-106424552D01*
X166181700Y-106366700D01*
X137083430Y-106366700D01*
X137207397Y-106331143D01*
X137394144Y-105807698D01*
X137366362Y-105252632D01*
X137207397Y-104868857D01*
X136965213Y-104799392D01*
X136164605Y-105600000D01*
X136178748Y-105614143D01*
X135999143Y-105793748D01*
X135985000Y-105779605D01*
X135970858Y-105793748D01*
X135791253Y-105614143D01*
X135805395Y-105600000D01*
X135004787Y-104799392D01*
X134762603Y-104868857D01*
X134575856Y-105392302D01*
X134582071Y-105516469D01*
X125551301Y-96485699D01*
X125483536Y-96440420D01*
X125505406Y-96407689D01*
X125619480Y-95834200D01*
X125506359Y-95265500D01*
X142494200Y-95265500D01*
X142785039Y-95207648D01*
X143031601Y-95042901D01*
X146268223Y-91806279D01*
X146277189Y-91819698D01*
X146613071Y-92044127D01*
X141437198Y-97220000D01*
X137182531Y-97220000D01*
X137170010Y-97189697D01*
X136777370Y-96796371D01*
X136264100Y-96583243D01*
X135708339Y-96582758D01*
X135194697Y-96794990D01*
X134801371Y-97187630D01*
X134588243Y-97700900D01*
X134587758Y-98256661D01*
X134799990Y-98770303D01*
X135192630Y-99163629D01*
X135400512Y-99249949D01*
X135194697Y-99334990D01*
X134801371Y-99727630D01*
X134588243Y-100240900D01*
X134587758Y-100796661D01*
X134799990Y-101310303D01*
X135192630Y-101703629D01*
X135400512Y-101789949D01*
X135194697Y-101874990D01*
X134801371Y-102267630D01*
X134588243Y-102780900D01*
X134587758Y-103336661D01*
X134799990Y-103850303D01*
X135192630Y-104243629D01*
X135384727Y-104323395D01*
X135253857Y-104377603D01*
X135184392Y-104619787D01*
X135985000Y-105420395D01*
X136785608Y-104619787D01*
X136716143Y-104377603D01*
X136575682Y-104327491D01*
X136775303Y-104245010D01*
X137168629Y-103852370D01*
X137381757Y-103339100D01*
X137382242Y-102783339D01*
X137326907Y-102649417D01*
X176345989Y-102649417D01*
X176418575Y-102894232D01*
X176951235Y-103085226D01*
X177516438Y-103057841D01*
X177911425Y-102894232D01*
X177984011Y-102649417D01*
X177165000Y-101830405D01*
X176345989Y-102649417D01*
X137326907Y-102649417D01*
X137170010Y-102269697D01*
X136777370Y-101876371D01*
X136569488Y-101790051D01*
X136775303Y-101705010D01*
X137043746Y-101437035D01*
X175730574Y-101437035D01*
X175757959Y-102002238D01*
X175921568Y-102397225D01*
X176166383Y-102469811D01*
X176985395Y-101650800D01*
X177344605Y-101650800D01*
X178163617Y-102469811D01*
X178408432Y-102397225D01*
X178544329Y-102018223D01*
X183338035Y-102018223D01*
X183365222Y-102588454D01*
X183531136Y-102989005D01*
X183777255Y-103063139D01*
X184605395Y-102235000D01*
X183777255Y-101406861D01*
X183531136Y-101480995D01*
X183338035Y-102018223D01*
X178544329Y-102018223D01*
X178599426Y-101864565D01*
X178572041Y-101299362D01*
X178408432Y-100904375D01*
X178163617Y-100831789D01*
X177344605Y-101650800D01*
X176985395Y-101650800D01*
X176166383Y-100831789D01*
X175921568Y-100904375D01*
X175730574Y-101437035D01*
X137043746Y-101437035D01*
X137168629Y-101312370D01*
X137381757Y-100799100D01*
X137381885Y-100652183D01*
X176345989Y-100652183D01*
X177165000Y-101471195D01*
X177984011Y-100652183D01*
X177911425Y-100407368D01*
X177378765Y-100216374D01*
X176813562Y-100243759D01*
X176418575Y-100407368D01*
X176345989Y-100652183D01*
X137381885Y-100652183D01*
X137382242Y-100243339D01*
X137170010Y-99729697D01*
X136777370Y-99336371D01*
X136569488Y-99250051D01*
X136775303Y-99165010D01*
X137168629Y-98772370D01*
X137182070Y-98740000D01*
X141752000Y-98740000D01*
X141791760Y-98732091D01*
X175742354Y-98732091D01*
X175958445Y-99255072D01*
X176358223Y-99655549D01*
X176880826Y-99872552D01*
X177446691Y-99873046D01*
X177969672Y-99656955D01*
X178370149Y-99257177D01*
X178587152Y-98734574D01*
X178587646Y-98168709D01*
X178568304Y-98121898D01*
X181609166Y-95081036D01*
X182037193Y-95081036D01*
X182067518Y-95571413D01*
X182196836Y-95883617D01*
X182422265Y-95933130D01*
X183105395Y-95250000D01*
X182422265Y-94566870D01*
X182196836Y-94616383D01*
X182037193Y-95081036D01*
X181609166Y-95081036D01*
X187441163Y-89249039D01*
X188473096Y-89249039D01*
X188633959Y-89637423D01*
X189009866Y-90052389D01*
X189258367Y-90170000D01*
X189009866Y-90287611D01*
X188633959Y-90702577D01*
X188473096Y-91090961D01*
X188595085Y-91313000D01*
X189738000Y-91313000D01*
X189738000Y-89027000D01*
X189992000Y-89027000D01*
X189992000Y-91313000D01*
X191134915Y-91313000D01*
X191256904Y-91090961D01*
X191096041Y-90702577D01*
X190720134Y-90287611D01*
X190471633Y-90170000D01*
X190720134Y-90052389D01*
X191096041Y-89637423D01*
X191256904Y-89249039D01*
X191134915Y-89027000D01*
X189992000Y-89027000D01*
X189738000Y-89027000D01*
X188595085Y-89027000D01*
X188473096Y-89249039D01*
X187441163Y-89249039D01*
X188444802Y-88245400D01*
X188599655Y-88245400D01*
X188473096Y-88550961D01*
X188595085Y-88773000D01*
X189738000Y-88773000D01*
X189738000Y-88753000D01*
X189992000Y-88753000D01*
X189992000Y-88773000D01*
X191134915Y-88773000D01*
X191256904Y-88550961D01*
X191096041Y-88162577D01*
X190921501Y-87969901D01*
X191569601Y-87321801D01*
X191734348Y-87075239D01*
X191792200Y-86784400D01*
X191792200Y-79907200D01*
X191734348Y-79616361D01*
X191569601Y-79369799D01*
X191263688Y-79063886D01*
X191328113Y-78740000D01*
X191218880Y-78190849D01*
X190907811Y-77725302D01*
X190525725Y-77470000D01*
X190907811Y-77214698D01*
X190916777Y-77201279D01*
X195532899Y-81817401D01*
X195779461Y-81982148D01*
X196070300Y-82040000D01*
X196272005Y-82040000D01*
X196442189Y-82294698D01*
X196725000Y-82483667D01*
X196725000Y-82616333D01*
X196442189Y-82805302D01*
X196131120Y-83270849D01*
X196021887Y-83820000D01*
X196131120Y-84369151D01*
X196360963Y-84713135D01*
X195822299Y-85251799D01*
X195657552Y-85498361D01*
X195599700Y-85789200D01*
X195599700Y-88866598D01*
X191145408Y-93320890D01*
X190907811Y-92965302D01*
X190503297Y-92695014D01*
X190720134Y-92592389D01*
X191096041Y-92177423D01*
X191256904Y-91789039D01*
X191134915Y-91567000D01*
X189992000Y-91567000D01*
X189992000Y-91587000D01*
X189738000Y-91587000D01*
X189738000Y-91567000D01*
X188595085Y-91567000D01*
X188473096Y-91789039D01*
X188633959Y-92177423D01*
X189009866Y-92592389D01*
X189226703Y-92695014D01*
X188822189Y-92965302D01*
X188652005Y-93220000D01*
X186980300Y-93220000D01*
X186689460Y-93277852D01*
X186442899Y-93442599D01*
X185752759Y-94132739D01*
X185636890Y-94053569D01*
X185385000Y-94002560D01*
X184185000Y-94002560D01*
X183949683Y-94046838D01*
X183822364Y-94128766D01*
X183453964Y-94002193D01*
X182963587Y-94032518D01*
X182651383Y-94161836D01*
X182601870Y-94387265D01*
X183285000Y-95070395D01*
X183299143Y-95056253D01*
X183478748Y-95235858D01*
X183464605Y-95250000D01*
X183478748Y-95264143D01*
X183299143Y-95443748D01*
X183285000Y-95429605D01*
X182601870Y-96112735D01*
X182651383Y-96338164D01*
X183116036Y-96497807D01*
X183606413Y-96467482D01*
X183828990Y-96375289D01*
X183933110Y-96446431D01*
X184185000Y-96497440D01*
X185385000Y-96497440D01*
X185620317Y-96453162D01*
X185836441Y-96314090D01*
X185981431Y-96101890D01*
X186013416Y-95943945D01*
X186247701Y-95787401D01*
X187295102Y-94740000D01*
X188652005Y-94740000D01*
X188822189Y-94994698D01*
X189142053Y-95208424D01*
X189122978Y-95304321D01*
X188822189Y-95505302D01*
X188511120Y-95970849D01*
X188401887Y-96520000D01*
X188511120Y-97069151D01*
X188822189Y-97534698D01*
X189167482Y-97765416D01*
X187533779Y-99399119D01*
X187505460Y-99404752D01*
X187258899Y-99569499D01*
X185610362Y-101218036D01*
X185539005Y-100981136D01*
X185001777Y-100788035D01*
X184431546Y-100815222D01*
X184030995Y-100981136D01*
X183956861Y-101227255D01*
X184785000Y-102055395D01*
X184799142Y-102041252D01*
X184978748Y-102220858D01*
X184964605Y-102235000D01*
X184978748Y-102249143D01*
X184799142Y-102428748D01*
X184785000Y-102414605D01*
X183956861Y-103242745D01*
X184030995Y-103488864D01*
X184568223Y-103681965D01*
X185138454Y-103654778D01*
X185275000Y-103598219D01*
X185275000Y-107020198D01*
X184236000Y-108059198D01*
X183901584Y-107920337D01*
X183131793Y-107919665D01*
X182420342Y-108213630D01*
X181875543Y-108757479D01*
X181580337Y-109468416D01*
X181579665Y-110238207D01*
X181873630Y-110949658D01*
X182417479Y-111494457D01*
X183128416Y-111789663D01*
X183898207Y-111790335D01*
X184609658Y-111496370D01*
X185154457Y-110952521D01*
X185449663Y-110241584D01*
X185450335Y-109471793D01*
X185310774Y-109134028D01*
X186525000Y-107919802D01*
X186525000Y-108625000D01*
X186582852Y-108915839D01*
X186722810Y-109125302D01*
X186580337Y-109468416D01*
X186579665Y-110238207D01*
X186873630Y-110949658D01*
X187417479Y-111494457D01*
X188128416Y-111789663D01*
X188898207Y-111790335D01*
X189609658Y-111496370D01*
X190154457Y-110952521D01*
X190449663Y-110241584D01*
X190450335Y-109471793D01*
X190156370Y-108760342D01*
X189612521Y-108215543D01*
X188901584Y-107920337D01*
X188131793Y-107919665D01*
X188045000Y-107955527D01*
X188045000Y-103473646D01*
X188096800Y-103452243D01*
X188500824Y-103048923D01*
X188719750Y-102521691D01*
X188720248Y-101950813D01*
X188502243Y-101423200D01*
X188098923Y-101019176D01*
X187999931Y-100978071D01*
X188163321Y-100814681D01*
X188191639Y-100809048D01*
X188438201Y-100644301D01*
X196553457Y-92529045D01*
X196824275Y-92710000D01*
X196442189Y-92965302D01*
X196131120Y-93430849D01*
X196021887Y-93980000D01*
X196131120Y-94529151D01*
X196361003Y-94873195D01*
X193772599Y-97461599D01*
X193607852Y-97708161D01*
X193550000Y-97999000D01*
X193550000Y-108075352D01*
X193215342Y-108213630D01*
X192670543Y-108757479D01*
X192375337Y-109468416D01*
X192374665Y-110238207D01*
X192668630Y-110949658D01*
X193212479Y-111494457D01*
X193923416Y-111789663D01*
X194693207Y-111790335D01*
X195404658Y-111496370D01*
X195949457Y-110952521D01*
X196244663Y-110241584D01*
X196245335Y-109471793D01*
X195951370Y-108760342D01*
X195407521Y-108215543D01*
X195070000Y-108075392D01*
X195070000Y-103562191D01*
X195403223Y-103681965D01*
X195973454Y-103654778D01*
X196374005Y-103488864D01*
X196448139Y-103242745D01*
X195620000Y-102414605D01*
X195605858Y-102428748D01*
X195426253Y-102249143D01*
X195440395Y-102235000D01*
X195799605Y-102235000D01*
X196627745Y-103063139D01*
X196873864Y-102989005D01*
X196876196Y-102982517D01*
X196902757Y-103046800D01*
X197306077Y-103450824D01*
X197360000Y-103473215D01*
X197360000Y-108665000D01*
X197417852Y-108955839D01*
X197522897Y-109113051D01*
X197375337Y-109468416D01*
X197374665Y-110238207D01*
X197668630Y-110949658D01*
X198212479Y-111494457D01*
X198923416Y-111789663D01*
X199693207Y-111790335D01*
X200404658Y-111496370D01*
X200949457Y-110952521D01*
X201244663Y-110241584D01*
X201245335Y-109471793D01*
X200951370Y-108760342D01*
X200407521Y-108215543D01*
X199696584Y-107920337D01*
X198926793Y-107919665D01*
X198880000Y-107938999D01*
X198880000Y-103473646D01*
X198931800Y-103452243D01*
X199335824Y-103048923D01*
X199554750Y-102521691D01*
X199555248Y-101950813D01*
X199337243Y-101423200D01*
X198933923Y-101019176D01*
X198406691Y-100800250D01*
X197835813Y-100799752D01*
X197308200Y-101017757D01*
X196904176Y-101421077D01*
X196876577Y-101487544D01*
X196873864Y-101480995D01*
X196627745Y-101406861D01*
X195799605Y-102235000D01*
X195440395Y-102235000D01*
X195426253Y-102220858D01*
X195605858Y-102041252D01*
X195620000Y-102055395D01*
X196448139Y-101227255D01*
X196374005Y-100981136D01*
X195836777Y-100788035D01*
X195266546Y-100815222D01*
X195070000Y-100896634D01*
X195070000Y-98895000D01*
X211317560Y-98895000D01*
X211317560Y-100495000D01*
X211361838Y-100730317D01*
X211500910Y-100946441D01*
X211713110Y-101091431D01*
X211965000Y-101142440D01*
X213565000Y-101142440D01*
X213800317Y-101098162D01*
X214016441Y-100959090D01*
X214161431Y-100746890D01*
X214182680Y-100641959D01*
X214451077Y-100910824D01*
X214978309Y-101129750D01*
X215549187Y-101130248D01*
X216076800Y-100912243D01*
X216480824Y-100508923D01*
X216699750Y-99981691D01*
X216700248Y-99410813D01*
X216677951Y-99356851D01*
X220422401Y-95612401D01*
X220587148Y-95365839D01*
X220645000Y-95075000D01*
X220645000Y-89681437D01*
X220884515Y-89921371D01*
X221338266Y-90109785D01*
X221829579Y-90110214D01*
X222283657Y-89922592D01*
X222595946Y-89610848D01*
X224025677Y-91040579D01*
X223727914Y-90841621D01*
X223217032Y-90740000D01*
X222552968Y-90740000D01*
X222042086Y-90841621D01*
X221608980Y-91131012D01*
X221319589Y-91564118D01*
X221217968Y-92075000D01*
X221319589Y-92585882D01*
X221608980Y-93018988D01*
X222042086Y-93308379D01*
X222552968Y-93410000D01*
X223217032Y-93410000D01*
X223727914Y-93308379D01*
X224161020Y-93018988D01*
X224450411Y-92585882D01*
X224552032Y-92075000D01*
X224450411Y-91564118D01*
X224251453Y-91266355D01*
X224625000Y-91639902D01*
X224625000Y-98456354D01*
X224573200Y-98477757D01*
X224304417Y-98746072D01*
X224288162Y-98659683D01*
X224149090Y-98443559D01*
X223936890Y-98298569D01*
X223685000Y-98247560D01*
X222085000Y-98247560D01*
X221849683Y-98291838D01*
X221633559Y-98430910D01*
X221488569Y-98643110D01*
X221437560Y-98895000D01*
X221437560Y-100495000D01*
X221481838Y-100730317D01*
X221620910Y-100946441D01*
X221833110Y-101091431D01*
X222085000Y-101142440D01*
X223685000Y-101142440D01*
X223920317Y-101098162D01*
X224136441Y-100959090D01*
X224281431Y-100746890D01*
X224302680Y-100641959D01*
X224571077Y-100910824D01*
X225098309Y-101129750D01*
X225669187Y-101130248D01*
X226196800Y-100912243D01*
X226600824Y-100508923D01*
X226819750Y-99981691D01*
X226820248Y-99410813D01*
X226602243Y-98883200D01*
X226198923Y-98479176D01*
X226145000Y-98456785D01*
X226145000Y-91325100D01*
X226087148Y-91034261D01*
X225922401Y-90787699D01*
X223044702Y-87910000D01*
X223312000Y-87910000D01*
X223813215Y-87759778D01*
X224218790Y-87429185D01*
X224466980Y-86968550D01*
X224477716Y-86908329D01*
X224354374Y-86702000D01*
X223012000Y-86702000D01*
X223012000Y-86722000D01*
X222758000Y-86722000D01*
X222758000Y-86702000D01*
X222738000Y-86702000D01*
X222738000Y-86448000D01*
X222758000Y-86448000D01*
X222758000Y-85240000D01*
X223012000Y-85240000D01*
X223012000Y-86448000D01*
X224354374Y-86448000D01*
X224477716Y-86241671D01*
X224466980Y-86181450D01*
X224218790Y-85720815D01*
X223813215Y-85390222D01*
X223312000Y-85240000D01*
X223012000Y-85240000D01*
X222758000Y-85240000D01*
X222458000Y-85240000D01*
X221956785Y-85390222D01*
X221732359Y-85573157D01*
X221171501Y-85012299D01*
X220924939Y-84847552D01*
X220634100Y-84789700D01*
X215885000Y-84789700D01*
X215594161Y-84847552D01*
X215347599Y-85012299D01*
X215203767Y-85227560D01*
X214885000Y-85227560D01*
X214649683Y-85271838D01*
X214433559Y-85410910D01*
X214288569Y-85623110D01*
X214237560Y-85875000D01*
X214237560Y-87275000D01*
X214281838Y-87510317D01*
X214365163Y-87639808D01*
X214340421Y-87639786D01*
X213886343Y-87827408D01*
X213538629Y-88174515D01*
X213350215Y-88628266D01*
X213349786Y-89119579D01*
X213537408Y-89573657D01*
X213761363Y-89798004D01*
X213542086Y-89841621D01*
X213108980Y-90131012D01*
X212819589Y-90564118D01*
X212717968Y-91075000D01*
X212819589Y-91585882D01*
X213108980Y-92018988D01*
X213542086Y-92308379D01*
X214052968Y-92410000D01*
X214717032Y-92410000D01*
X215227914Y-92308379D01*
X215661020Y-92018988D01*
X215950411Y-91585882D01*
X216052032Y-91075000D01*
X215950411Y-90564118D01*
X215661020Y-90131012D01*
X215309896Y-89896399D01*
X215631371Y-89575485D01*
X215819785Y-89121734D01*
X215820214Y-88630421D01*
X215632592Y-88176343D01*
X215379132Y-87922440D01*
X216885000Y-87922440D01*
X217120317Y-87878162D01*
X217336441Y-87739090D01*
X217481431Y-87526890D01*
X217532440Y-87275000D01*
X217532440Y-86309700D01*
X218270740Y-86309700D01*
X218217968Y-86575000D01*
X218319589Y-87085882D01*
X218608980Y-87518988D01*
X219042086Y-87808379D01*
X219125000Y-87824872D01*
X219125000Y-94760198D01*
X215603454Y-98281744D01*
X215551691Y-98260250D01*
X214980813Y-98259752D01*
X214453200Y-98477757D01*
X214184417Y-98746072D01*
X214168162Y-98659683D01*
X214029090Y-98443559D01*
X213816890Y-98298569D01*
X213565000Y-98247560D01*
X211965000Y-98247560D01*
X211729683Y-98291838D01*
X211513559Y-98430910D01*
X211368569Y-98643110D01*
X211317560Y-98895000D01*
X195070000Y-98895000D01*
X195070000Y-98313802D01*
X196216593Y-97167209D01*
X196253959Y-97257423D01*
X196629866Y-97672389D01*
X197135959Y-97911914D01*
X197358000Y-97790629D01*
X197358000Y-96647000D01*
X197612000Y-96647000D01*
X197612000Y-97790629D01*
X197834041Y-97911914D01*
X198340134Y-97672389D01*
X198716041Y-97257423D01*
X198876904Y-96869039D01*
X198754915Y-96647000D01*
X197612000Y-96647000D01*
X197358000Y-96647000D01*
X197338000Y-96647000D01*
X197338000Y-96393000D01*
X197358000Y-96393000D01*
X197358000Y-96373000D01*
X197612000Y-96373000D01*
X197612000Y-96393000D01*
X198754915Y-96393000D01*
X198876904Y-96170961D01*
X198716041Y-95782577D01*
X198340134Y-95367611D01*
X198205498Y-95303890D01*
X198227022Y-95195679D01*
X198527811Y-94994698D01*
X198838880Y-94529151D01*
X198948113Y-93980000D01*
X198838880Y-93430849D01*
X198527811Y-92965302D01*
X198145725Y-92710000D01*
X198527811Y-92454698D01*
X198838880Y-91989151D01*
X198883628Y-91764187D01*
X199859752Y-91764187D01*
X200077757Y-92291800D01*
X200481077Y-92695824D01*
X200562931Y-92729813D01*
X200483200Y-92762757D01*
X200079176Y-93166077D01*
X199860250Y-93693309D01*
X199859752Y-94264187D01*
X200077757Y-94791800D01*
X200481077Y-95195824D01*
X201008309Y-95414750D01*
X201579187Y-95415248D01*
X202106800Y-95197243D01*
X202510824Y-94793923D01*
X202729750Y-94266691D01*
X202730248Y-93695813D01*
X202512243Y-93168200D01*
X202108923Y-92764176D01*
X202027069Y-92730187D01*
X202106800Y-92697243D01*
X202510824Y-92293923D01*
X202729750Y-91766691D01*
X202730248Y-91195813D01*
X202512243Y-90668200D01*
X202108923Y-90264176D01*
X201581691Y-90045250D01*
X201010813Y-90044752D01*
X200483200Y-90262757D01*
X200079176Y-90666077D01*
X199860250Y-91193309D01*
X199859752Y-91764187D01*
X198883628Y-91764187D01*
X198948113Y-91440000D01*
X198838880Y-90890849D01*
X198589731Y-90517971D01*
X200417801Y-88689901D01*
X200582548Y-88443339D01*
X200640400Y-88152500D01*
X200640400Y-79981981D01*
X201008309Y-80134750D01*
X201579187Y-80135248D01*
X202106800Y-79917243D01*
X202510824Y-79513923D01*
X202729750Y-78986691D01*
X202730248Y-78415813D01*
X202512243Y-77888200D01*
X202108923Y-77484176D01*
X202027069Y-77450187D01*
X202106800Y-77417243D01*
X202510824Y-77013923D01*
X202729750Y-76486691D01*
X202730248Y-75915813D01*
X202512243Y-75388200D01*
X202108923Y-74984176D01*
X201581691Y-74765250D01*
X201010813Y-74764752D01*
X200483200Y-74982757D01*
X200079176Y-75386077D01*
X199860250Y-75913309D01*
X199859752Y-76484187D01*
X199882049Y-76538149D01*
X199342999Y-77077199D01*
X199178252Y-77323761D01*
X199120400Y-77614600D01*
X199120400Y-87837698D01*
X198739319Y-88218779D01*
X198716041Y-88162577D01*
X198340134Y-87747611D01*
X198091633Y-87630000D01*
X198340134Y-87512389D01*
X198716041Y-87097423D01*
X198876904Y-86709039D01*
X198754915Y-86487000D01*
X197612000Y-86487000D01*
X197612000Y-88773000D01*
X197632000Y-88773000D01*
X197632000Y-89027000D01*
X197612000Y-89027000D01*
X197612000Y-89047000D01*
X197358000Y-89047000D01*
X197358000Y-89027000D01*
X197338000Y-89027000D01*
X197338000Y-88773000D01*
X197358000Y-88773000D01*
X197358000Y-86487000D01*
X197338000Y-86487000D01*
X197338000Y-86233000D01*
X197358000Y-86233000D01*
X197358000Y-86213000D01*
X197612000Y-86213000D01*
X197612000Y-86233000D01*
X198754915Y-86233000D01*
X198876904Y-86010961D01*
X198716041Y-85622577D01*
X198340134Y-85207611D01*
X198205498Y-85143890D01*
X198227022Y-85035679D01*
X198527811Y-84834698D01*
X198838880Y-84369151D01*
X198948113Y-83820000D01*
X198838880Y-83270849D01*
X198527811Y-82805302D01*
X198245000Y-82616333D01*
X198245000Y-82483667D01*
X198527811Y-82294698D01*
X198838880Y-81829151D01*
X198948113Y-81280000D01*
X198838880Y-80730849D01*
X198527811Y-80265302D01*
X198145725Y-80010000D01*
X198527811Y-79754698D01*
X198838880Y-79289151D01*
X198948113Y-78740000D01*
X198838880Y-78190849D01*
X198527811Y-77725302D01*
X198145725Y-77470000D01*
X198527811Y-77214698D01*
X198838880Y-76749151D01*
X198948113Y-76200000D01*
X198838880Y-75650849D01*
X198527811Y-75185302D01*
X198123297Y-74915014D01*
X198340134Y-74812389D01*
X198716041Y-74397423D01*
X198876904Y-74009039D01*
X198754915Y-73787000D01*
X197612000Y-73787000D01*
X197612000Y-73807000D01*
X197358000Y-73807000D01*
X197358000Y-73787000D01*
X196215085Y-73787000D01*
X196093096Y-74009039D01*
X196253959Y-74397423D01*
X196629866Y-74812389D01*
X196846703Y-74915014D01*
X196442189Y-75185302D01*
X196131120Y-75650849D01*
X196021887Y-76200000D01*
X196131120Y-76749151D01*
X196442189Y-77214698D01*
X196824275Y-77470000D01*
X196442189Y-77725302D01*
X196131120Y-78190849D01*
X196021887Y-78740000D01*
X196131120Y-79289151D01*
X196442189Y-79754698D01*
X196824275Y-80010000D01*
X196442189Y-80265302D01*
X196317305Y-80452203D01*
X191527701Y-75662599D01*
X191281139Y-75497852D01*
X191091437Y-75460118D01*
X190907811Y-75185302D01*
X190763535Y-75088899D01*
X190900317Y-75063162D01*
X191116441Y-74924090D01*
X191261431Y-74711890D01*
X191312440Y-74460000D01*
X191312440Y-73310961D01*
X196093096Y-73310961D01*
X196215085Y-73533000D01*
X197358000Y-73533000D01*
X197358000Y-72389371D01*
X197612000Y-72389371D01*
X197612000Y-73533000D01*
X198754915Y-73533000D01*
X198876904Y-73310961D01*
X198716041Y-72922577D01*
X198340134Y-72507611D01*
X197834041Y-72268086D01*
X197612000Y-72389371D01*
X197358000Y-72389371D01*
X197135959Y-72268086D01*
X196629866Y-72507611D01*
X196253959Y-72922577D01*
X196093096Y-73310961D01*
X191312440Y-73310961D01*
X191312440Y-72860000D01*
X191268162Y-72624683D01*
X191129090Y-72408559D01*
X190916890Y-72263569D01*
X190665000Y-72212560D01*
X189065000Y-72212560D01*
X188829683Y-72256838D01*
X188613559Y-72395910D01*
X188468569Y-72608110D01*
X188417560Y-72860000D01*
X188417560Y-74460000D01*
X188461838Y-74695317D01*
X188600910Y-74911441D01*
X188813110Y-75056431D01*
X188968089Y-75087815D01*
X188822189Y-75185302D01*
X188511120Y-75650849D01*
X188401887Y-76200000D01*
X188511120Y-76749151D01*
X188822189Y-77214698D01*
X189204275Y-77470000D01*
X188822189Y-77725302D01*
X188584633Y-78080830D01*
X185780084Y-75276281D01*
X186061371Y-74995485D01*
X186249785Y-74541734D01*
X186250214Y-74050421D01*
X186062592Y-73596343D01*
X185715485Y-73248629D01*
X185261734Y-73060215D01*
X184770421Y-73059786D01*
X184483586Y-73178304D01*
X184366890Y-73098569D01*
X184115000Y-73047560D01*
X182915000Y-73047560D01*
X182679683Y-73091838D01*
X182463559Y-73230910D01*
X182318569Y-73443110D01*
X182267560Y-73695000D01*
X182267560Y-74895000D01*
X182311838Y-75130317D01*
X182450910Y-75346441D01*
X182663110Y-75491431D01*
X182915000Y-75542440D01*
X184115000Y-75542440D01*
X184255000Y-75516097D01*
X184255000Y-75586000D01*
X184312852Y-75876839D01*
X184477599Y-76123401D01*
X188741003Y-80386806D01*
X188511120Y-80730849D01*
X188401887Y-81280000D01*
X188511120Y-81829151D01*
X188822189Y-82294698D01*
X189204275Y-82550000D01*
X188822189Y-82805302D01*
X188652005Y-83060000D01*
X187869802Y-83060000D01*
X186249861Y-81440059D01*
X186250214Y-81035421D01*
X186062592Y-80581343D01*
X185715485Y-80233629D01*
X185261734Y-80045215D01*
X184770421Y-80044786D01*
X184483586Y-80163304D01*
X184366890Y-80083569D01*
X184115000Y-80032560D01*
X182915000Y-80032560D01*
X182679683Y-80076838D01*
X182463559Y-80215910D01*
X182318569Y-80428110D01*
X182267560Y-80680000D01*
X182267560Y-81880000D01*
X182311838Y-82115317D01*
X182450910Y-82331441D01*
X182663110Y-82476431D01*
X182915000Y-82527440D01*
X184115000Y-82527440D01*
X184350317Y-82483162D01*
X184484370Y-82396901D01*
X184768266Y-82514785D01*
X185175338Y-82515140D01*
X187017599Y-84357401D01*
X187264160Y-84522148D01*
X187312414Y-84531746D01*
X187555000Y-84580000D01*
X188652005Y-84580000D01*
X188822189Y-84834698D01*
X189204275Y-85090000D01*
X188822189Y-85345302D01*
X188652005Y-85600000D01*
X187615300Y-85600000D01*
X187324461Y-85657852D01*
X187077899Y-85822599D01*
X185752759Y-87147739D01*
X185636890Y-87068569D01*
X185385000Y-87017560D01*
X184185000Y-87017560D01*
X183949683Y-87061838D01*
X183822364Y-87143766D01*
X183453964Y-87017193D01*
X182963587Y-87047518D01*
X182651383Y-87176836D01*
X182601870Y-87402265D01*
X183285000Y-88085395D01*
X183299143Y-88071253D01*
X183478748Y-88250858D01*
X183464605Y-88265000D01*
X183478748Y-88279143D01*
X183299143Y-88458748D01*
X183285000Y-88444605D01*
X182601870Y-89127735D01*
X182651383Y-89353164D01*
X183116036Y-89512807D01*
X183606413Y-89482482D01*
X183828990Y-89390289D01*
X183933110Y-89461431D01*
X184185000Y-89512440D01*
X185028158Y-89512440D01*
X177493814Y-97046784D01*
X177449174Y-97028248D01*
X176883309Y-97027754D01*
X176360328Y-97243845D01*
X175959851Y-97643623D01*
X175742848Y-98166226D01*
X175742354Y-98732091D01*
X141791760Y-98732091D01*
X142042839Y-98682148D01*
X142289401Y-98517401D01*
X145275111Y-95531691D01*
X175742354Y-95531691D01*
X175958445Y-96054672D01*
X176358223Y-96455149D01*
X176880826Y-96672152D01*
X177446691Y-96672646D01*
X177969672Y-96456555D01*
X178370149Y-96056777D01*
X178587152Y-95534174D01*
X178587646Y-94968309D01*
X178371555Y-94445328D01*
X177971777Y-94044851D01*
X177449174Y-93827848D01*
X176883309Y-93827354D01*
X176360328Y-94043445D01*
X175959851Y-94443223D01*
X175742848Y-94965826D01*
X175742354Y-95531691D01*
X145275111Y-95531691D01*
X146454057Y-94352745D01*
X157326861Y-94352745D01*
X157400995Y-94598864D01*
X157938223Y-94791965D01*
X158508454Y-94764778D01*
X158909005Y-94598864D01*
X158983139Y-94352745D01*
X158155000Y-93524605D01*
X157326861Y-94352745D01*
X146454057Y-94352745D01*
X147678579Y-93128223D01*
X156708035Y-93128223D01*
X156735222Y-93698454D01*
X156901136Y-94099005D01*
X157147255Y-94173139D01*
X157975395Y-93345000D01*
X157147255Y-92516861D01*
X156901136Y-92590995D01*
X156708035Y-93128223D01*
X147678579Y-93128223D01*
X148469547Y-92337255D01*
X157326861Y-92337255D01*
X158155000Y-93165395D01*
X158983139Y-92337255D01*
X158909005Y-92091136D01*
X158371777Y-91898035D01*
X157801546Y-91925222D01*
X157400995Y-92091136D01*
X157326861Y-92337255D01*
X148469547Y-92337255D01*
X149012801Y-91794001D01*
X149177548Y-91547440D01*
X149198919Y-91440000D01*
X149235400Y-91256600D01*
X149235400Y-88614039D01*
X151643096Y-88614039D01*
X151803959Y-89002423D01*
X152179866Y-89417389D01*
X152685959Y-89656914D01*
X152908000Y-89535629D01*
X152908000Y-88392000D01*
X153162000Y-88392000D01*
X153162000Y-89535629D01*
X153384041Y-89656914D01*
X153890134Y-89417389D01*
X154266041Y-89002423D01*
X154426904Y-88614039D01*
X154304915Y-88392000D01*
X153162000Y-88392000D01*
X152908000Y-88392000D01*
X151765085Y-88392000D01*
X151643096Y-88614039D01*
X149235400Y-88614039D01*
X149235400Y-82681600D01*
X149177548Y-82390761D01*
X149012801Y-82144199D01*
X148429097Y-81560495D01*
X148562837Y-81360339D01*
X151197822Y-83995324D01*
X151207552Y-84044239D01*
X151372299Y-84290801D01*
X151911924Y-84830426D01*
X151681120Y-85175849D01*
X151571887Y-85725000D01*
X151681120Y-86274151D01*
X151992189Y-86739698D01*
X152396703Y-87009986D01*
X152179866Y-87112611D01*
X151803959Y-87527577D01*
X151643096Y-87915961D01*
X151765085Y-88138000D01*
X152908000Y-88138000D01*
X152908000Y-88118000D01*
X153162000Y-88118000D01*
X153162000Y-88138000D01*
X154304915Y-88138000D01*
X154426904Y-87915961D01*
X154266041Y-87527577D01*
X153890134Y-87112611D01*
X153673297Y-87009986D01*
X154077811Y-86739698D01*
X154388880Y-86274151D01*
X154498113Y-85725000D01*
X154388880Y-85175849D01*
X154077811Y-84710302D01*
X153777022Y-84509321D01*
X153757947Y-84413424D01*
X154077811Y-84199698D01*
X154388880Y-83734151D01*
X154498113Y-83185000D01*
X154388880Y-82635849D01*
X154077811Y-82170302D01*
X153777022Y-81969321D01*
X153757947Y-81873424D01*
X154077811Y-81659698D01*
X154388880Y-81194151D01*
X154498113Y-80645000D01*
X154388880Y-80095849D01*
X154077811Y-79630302D01*
X153695725Y-79375000D01*
X154077811Y-79119698D01*
X154388880Y-78654151D01*
X154498113Y-78105000D01*
X154388880Y-77555849D01*
X154077811Y-77090302D01*
X153777022Y-76889321D01*
X153755498Y-76781110D01*
X153890134Y-76717389D01*
X154266041Y-76302423D01*
X154426904Y-75914039D01*
X154304915Y-75692000D01*
X153162000Y-75692000D01*
X153162000Y-75712000D01*
X152908000Y-75712000D01*
X152908000Y-75692000D01*
X152888000Y-75692000D01*
X152888000Y-75438000D01*
X152908000Y-75438000D01*
X152908000Y-75418000D01*
X153162000Y-75418000D01*
X153162000Y-75438000D01*
X154304915Y-75438000D01*
X154426904Y-75215961D01*
X154266041Y-74827577D01*
X153890134Y-74412611D01*
X153673297Y-74309986D01*
X153937050Y-74133752D01*
X159540656Y-79737358D01*
X159301120Y-80095849D01*
X159191887Y-80645000D01*
X159301120Y-81194151D01*
X159612189Y-81659698D01*
X159994275Y-81915000D01*
X159612189Y-82170302D01*
X159301120Y-82635849D01*
X159191887Y-83185000D01*
X159301120Y-83734151D01*
X159612189Y-84199698D01*
X159994275Y-84455000D01*
X159612189Y-84710302D01*
X159301120Y-85175849D01*
X159191887Y-85725000D01*
X159301120Y-86274151D01*
X159531003Y-86618195D01*
X158988299Y-87160899D01*
X158823552Y-87407461D01*
X158765700Y-87698300D01*
X158765700Y-88775600D01*
X158823552Y-89066439D01*
X158988299Y-89313001D01*
X163029991Y-93354693D01*
X163029752Y-93629187D01*
X163079134Y-93748700D01*
X162133502Y-93748700D01*
X162068256Y-93683454D01*
X162089750Y-93631691D01*
X162090248Y-93060813D01*
X161872243Y-92533200D01*
X161468923Y-92129176D01*
X160941691Y-91910250D01*
X160370813Y-91909752D01*
X159843200Y-92127757D01*
X159439176Y-92531077D01*
X159411577Y-92597544D01*
X159408864Y-92590995D01*
X159162745Y-92516861D01*
X158334605Y-93345000D01*
X159162745Y-94173139D01*
X159408864Y-94099005D01*
X159411196Y-94092517D01*
X159437757Y-94156800D01*
X159841077Y-94560824D01*
X160368309Y-94779750D01*
X160939187Y-94780248D01*
X160993149Y-94757951D01*
X161281299Y-95046101D01*
X161527860Y-95210848D01*
X161818700Y-95268700D01*
X164953900Y-95268700D01*
X165244739Y-95210848D01*
X165491301Y-95046101D01*
X166147925Y-94389477D01*
X166210995Y-94598864D01*
X166748223Y-94791965D01*
X167318454Y-94764778D01*
X167719005Y-94598864D01*
X167793139Y-94352745D01*
X166965000Y-93524605D01*
X166950858Y-93538748D01*
X166771253Y-93359143D01*
X166785395Y-93345000D01*
X167144605Y-93345000D01*
X167972745Y-94173139D01*
X168218864Y-94099005D01*
X168411965Y-93561777D01*
X168384778Y-92991546D01*
X168218864Y-92590995D01*
X167972745Y-92516861D01*
X167144605Y-93345000D01*
X166785395Y-93345000D01*
X166771253Y-93330858D01*
X166950858Y-93151252D01*
X166965000Y-93165395D01*
X167793139Y-92337255D01*
X167719005Y-92091136D01*
X167181777Y-91898035D01*
X166611546Y-91925222D01*
X166369231Y-92025592D01*
X166328348Y-91820061D01*
X166163601Y-91573499D01*
X164760102Y-90170000D01*
X166811887Y-90170000D01*
X166921120Y-90719151D01*
X167232189Y-91184698D01*
X167697736Y-91495767D01*
X168246887Y-91605000D01*
X168303113Y-91605000D01*
X168852264Y-91495767D01*
X169317811Y-91184698D01*
X169628880Y-90719151D01*
X169738113Y-90170000D01*
X169628880Y-89620849D01*
X169317811Y-89155302D01*
X168852264Y-88844233D01*
X168303113Y-88735000D01*
X168246887Y-88735000D01*
X167697736Y-88844233D01*
X167232189Y-89155302D01*
X166921120Y-89620849D01*
X166811887Y-90170000D01*
X164760102Y-90170000D01*
X162714452Y-88124350D01*
X166994632Y-83844170D01*
X167232189Y-84199698D01*
X167515000Y-84388667D01*
X167515000Y-84521333D01*
X167232189Y-84710302D01*
X166921120Y-85175849D01*
X166811887Y-85725000D01*
X166921120Y-86274151D01*
X167232189Y-86739698D01*
X167697736Y-87050767D01*
X168246887Y-87160000D01*
X168303113Y-87160000D01*
X168852264Y-87050767D01*
X169317811Y-86739698D01*
X169628880Y-86274151D01*
X169738113Y-85725000D01*
X169628880Y-85175849D01*
X169317811Y-84710302D01*
X169035000Y-84521333D01*
X169035000Y-84388667D01*
X169317811Y-84199698D01*
X169628880Y-83734151D01*
X169738113Y-83185000D01*
X169628880Y-82635849D01*
X169379691Y-82262911D01*
X169978501Y-81664101D01*
X170143248Y-81417539D01*
X170201100Y-81126700D01*
X170201100Y-80645000D01*
X174431887Y-80645000D01*
X174541120Y-81194151D01*
X174852189Y-81659698D01*
X175234275Y-81915000D01*
X174852189Y-82170302D01*
X174541120Y-82635849D01*
X174431887Y-83185000D01*
X174541120Y-83734151D01*
X174852189Y-84199698D01*
X175135000Y-84388667D01*
X175135000Y-84521333D01*
X174852189Y-84710302D01*
X174541120Y-85175849D01*
X174431887Y-85725000D01*
X174541120Y-86274151D01*
X174852189Y-86739698D01*
X175135000Y-86928667D01*
X175135000Y-88931354D01*
X175083200Y-88952757D01*
X174679176Y-89356077D01*
X174460250Y-89883309D01*
X174459752Y-90454187D01*
X174677757Y-90981800D01*
X175081077Y-91385824D01*
X175608309Y-91604750D01*
X176179187Y-91605248D01*
X176706800Y-91387243D01*
X177110824Y-90983923D01*
X177329750Y-90456691D01*
X177330248Y-89885813D01*
X177112243Y-89358200D01*
X176708923Y-88954176D01*
X176655000Y-88931785D01*
X176655000Y-88096036D01*
X182037193Y-88096036D01*
X182067518Y-88586413D01*
X182196836Y-88898617D01*
X182422265Y-88948130D01*
X183105395Y-88265000D01*
X182422265Y-87581870D01*
X182196836Y-87631383D01*
X182037193Y-88096036D01*
X176655000Y-88096036D01*
X176655000Y-86928667D01*
X176937811Y-86739698D01*
X177248880Y-86274151D01*
X177358113Y-85725000D01*
X177248880Y-85175849D01*
X176937811Y-84710302D01*
X176655000Y-84521333D01*
X176655000Y-84388667D01*
X176937811Y-84199698D01*
X177248880Y-83734151D01*
X177358113Y-83185000D01*
X177248880Y-82635849D01*
X176937811Y-82170302D01*
X176555725Y-81915000D01*
X176937811Y-81659698D01*
X177248880Y-81194151D01*
X177358113Y-80645000D01*
X177248880Y-80095849D01*
X176937811Y-79630302D01*
X176533297Y-79360014D01*
X176750134Y-79257389D01*
X177126041Y-78842423D01*
X177286904Y-78454039D01*
X177164915Y-78232000D01*
X176022000Y-78232000D01*
X176022000Y-78252000D01*
X175768000Y-78252000D01*
X175768000Y-78232000D01*
X174625085Y-78232000D01*
X174503096Y-78454039D01*
X174663959Y-78842423D01*
X175039866Y-79257389D01*
X175256703Y-79360014D01*
X174852189Y-79630302D01*
X174541120Y-80095849D01*
X174431887Y-80645000D01*
X170201100Y-80645000D01*
X170201100Y-77575100D01*
X170143248Y-77284261D01*
X169978501Y-77037699D01*
X169398997Y-76458195D01*
X169628880Y-76114151D01*
X169738113Y-75565000D01*
X169628880Y-75015849D01*
X169317811Y-74550302D01*
X168935725Y-74295000D01*
X169317811Y-74039698D01*
X169628880Y-73574151D01*
X169738113Y-73025000D01*
X169628880Y-72475849D01*
X169558354Y-72370300D01*
X173644400Y-72370300D01*
X173935239Y-72312448D01*
X174181801Y-72147701D01*
X174843223Y-71486279D01*
X174852189Y-71499698D01*
X175234275Y-71755000D01*
X174852189Y-72010302D01*
X174541120Y-72475849D01*
X174431887Y-73025000D01*
X174541120Y-73574151D01*
X174852189Y-74039698D01*
X175172053Y-74253424D01*
X175152978Y-74349321D01*
X174852189Y-74550302D01*
X174541120Y-75015849D01*
X174431887Y-75565000D01*
X174541120Y-76114151D01*
X174852189Y-76579698D01*
X175256703Y-76849986D01*
X175039866Y-76952611D01*
X174663959Y-77367577D01*
X174503096Y-77755961D01*
X174625085Y-77978000D01*
X175768000Y-77978000D01*
X175768000Y-77958000D01*
X176022000Y-77958000D01*
X176022000Y-77978000D01*
X177164915Y-77978000D01*
X177286904Y-77755961D01*
X177126041Y-77367577D01*
X176750134Y-76952611D01*
X176533297Y-76849986D01*
X176937811Y-76579698D01*
X177248880Y-76114151D01*
X177358113Y-75565000D01*
X177248880Y-75015849D01*
X177018997Y-74671805D01*
X183417401Y-68273401D01*
X183582148Y-68026840D01*
X183607693Y-67898413D01*
X183715317Y-67878162D01*
X183931441Y-67739090D01*
X184076431Y-67526890D01*
X184127440Y-67275000D01*
X184127440Y-66075000D01*
X184083162Y-65839683D01*
X184001234Y-65712364D01*
X184127807Y-65343964D01*
X184097482Y-64853587D01*
X183968164Y-64541383D01*
X183742735Y-64491870D01*
X183059605Y-65175000D01*
X183073748Y-65189143D01*
X182894143Y-65368748D01*
X182880000Y-65354605D01*
X182865858Y-65368748D01*
X182686253Y-65189143D01*
X182700395Y-65175000D01*
X182017265Y-64491870D01*
X181791836Y-64541383D01*
X181632193Y-65006036D01*
X181662518Y-65496413D01*
X181754711Y-65718990D01*
X181683569Y-65823110D01*
X181632560Y-66075000D01*
X181632560Y-67275000D01*
X181676838Y-67510317D01*
X181815459Y-67725739D01*
X177175368Y-72365830D01*
X176937811Y-72010302D01*
X176555725Y-71755000D01*
X176937811Y-71499698D01*
X177248880Y-71034151D01*
X177358113Y-70485000D01*
X177248880Y-69935849D01*
X176937811Y-69470302D01*
X176472264Y-69159233D01*
X175923113Y-69050000D01*
X175866887Y-69050000D01*
X175317736Y-69159233D01*
X174852189Y-69470302D01*
X174668563Y-69745118D01*
X174478861Y-69782852D01*
X174232299Y-69947599D01*
X173329598Y-70850300D01*
X169722440Y-70850300D01*
X169722440Y-69685000D01*
X169678162Y-69449683D01*
X169539090Y-69233559D01*
X169326890Y-69088569D01*
X169075000Y-69037560D01*
X167475000Y-69037560D01*
X167239683Y-69081838D01*
X167023559Y-69220910D01*
X166878569Y-69433110D01*
X166827560Y-69685000D01*
X166827560Y-71285000D01*
X166871838Y-71520317D01*
X166925495Y-71603703D01*
X161542603Y-76986595D01*
X161315725Y-76835000D01*
X161697811Y-76579698D01*
X162008880Y-76114151D01*
X162118113Y-75565000D01*
X162008880Y-75015849D01*
X161697811Y-74550302D01*
X161315725Y-74295000D01*
X161697811Y-74039698D01*
X162008880Y-73574151D01*
X162118113Y-73025000D01*
X162008880Y-72475849D01*
X161697811Y-72010302D01*
X161293297Y-71740014D01*
X161510134Y-71637389D01*
X161886041Y-71222423D01*
X162046904Y-70834039D01*
X161924915Y-70612000D01*
X160782000Y-70612000D01*
X160782000Y-70632000D01*
X160528000Y-70632000D01*
X160528000Y-70612000D01*
X159385085Y-70612000D01*
X159263096Y-70834039D01*
X159423959Y-71222423D01*
X159799866Y-71637389D01*
X160016703Y-71740014D01*
X159612189Y-72010302D01*
X159301120Y-72475849D01*
X159191887Y-73025000D01*
X159301120Y-73574151D01*
X159612189Y-74039698D01*
X159994275Y-74295000D01*
X159612189Y-74550302D01*
X159301120Y-75015849D01*
X159191887Y-75565000D01*
X159301120Y-76114151D01*
X159612189Y-76579698D01*
X159994275Y-76835000D01*
X159612189Y-77090302D01*
X159384285Y-77431383D01*
X154920300Y-72967398D01*
X154920300Y-72454200D01*
X154862448Y-72163361D01*
X154697701Y-71916799D01*
X154385303Y-71604401D01*
X154431431Y-71536890D01*
X154482440Y-71285000D01*
X154482440Y-70674962D01*
X155021441Y-70135961D01*
X159263096Y-70135961D01*
X159385085Y-70358000D01*
X160528000Y-70358000D01*
X160528000Y-69214371D01*
X160782000Y-69214371D01*
X160782000Y-70358000D01*
X161924915Y-70358000D01*
X162046904Y-70135961D01*
X161886041Y-69747577D01*
X161510134Y-69332611D01*
X161004041Y-69093086D01*
X160782000Y-69214371D01*
X160528000Y-69214371D01*
X160305959Y-69093086D01*
X159799866Y-69332611D01*
X159423959Y-69747577D01*
X159263096Y-70135961D01*
X155021441Y-70135961D01*
X156747401Y-68410001D01*
X156912148Y-68163439D01*
X156970000Y-67872600D01*
X156970000Y-65987334D01*
X157045317Y-65973162D01*
X157172636Y-65891234D01*
X157541036Y-66017807D01*
X158031413Y-65987482D01*
X158343617Y-65858164D01*
X158393130Y-65632735D01*
X157710000Y-64949605D01*
X157695858Y-64963748D01*
X157516253Y-64784143D01*
X157530395Y-64770000D01*
X157889605Y-64770000D01*
X158572735Y-65453130D01*
X158798164Y-65403617D01*
X158957807Y-64938964D01*
X158927482Y-64448587D01*
X158798164Y-64136383D01*
X158572735Y-64086870D01*
X157889605Y-64770000D01*
X157530395Y-64770000D01*
X157516253Y-64755858D01*
X157695858Y-64576253D01*
X157710000Y-64590395D01*
X158393130Y-63907265D01*
X158343617Y-63681836D01*
X157878964Y-63522193D01*
X157388587Y-63552518D01*
X157166010Y-63644711D01*
X157061890Y-63573569D01*
X156903945Y-63541584D01*
X156747401Y-63307299D01*
X155505102Y-62065000D01*
X169367560Y-62065000D01*
X169367560Y-63665000D01*
X169411838Y-63900317D01*
X169550910Y-64116441D01*
X169763110Y-64261431D01*
X170015000Y-64312440D01*
X171615000Y-64312440D01*
X171615930Y-64312265D01*
X182196870Y-64312265D01*
X182880000Y-64995395D01*
X183563130Y-64312265D01*
X183513617Y-64086836D01*
X183048964Y-63927193D01*
X182558587Y-63957518D01*
X182246383Y-64086836D01*
X182196870Y-64312265D01*
X171615930Y-64312265D01*
X171850317Y-64268162D01*
X172066441Y-64129090D01*
X172211431Y-63916890D01*
X172220370Y-63872745D01*
X172486861Y-63872745D01*
X172560995Y-64118864D01*
X173098223Y-64311965D01*
X173668454Y-64284778D01*
X174069005Y-64118864D01*
X174143139Y-63872745D01*
X173315000Y-63044605D01*
X172486861Y-63872745D01*
X172220370Y-63872745D01*
X172259646Y-63678799D01*
X172307255Y-63693139D01*
X173135395Y-62865000D01*
X173494605Y-62865000D01*
X174322745Y-63693139D01*
X174568864Y-63619005D01*
X174761965Y-63081777D01*
X174734778Y-62511546D01*
X174568864Y-62110995D01*
X174322745Y-62036861D01*
X173494605Y-62865000D01*
X173135395Y-62865000D01*
X172307255Y-62036861D01*
X172259833Y-62051145D01*
X172223351Y-61857255D01*
X172486861Y-61857255D01*
X173315000Y-62685395D01*
X174143139Y-61857255D01*
X174069005Y-61611136D01*
X173531777Y-61418035D01*
X172961546Y-61445222D01*
X172560995Y-61611136D01*
X172486861Y-61857255D01*
X172223351Y-61857255D01*
X172218162Y-61829683D01*
X172079090Y-61613559D01*
X171866890Y-61468569D01*
X171615000Y-61417560D01*
X170015000Y-61417560D01*
X169779683Y-61461838D01*
X169563559Y-61600910D01*
X169418569Y-61813110D01*
X169367560Y-62065000D01*
X155505102Y-62065000D01*
X152243309Y-58803207D01*
X184754665Y-58803207D01*
X185048630Y-59514658D01*
X185592479Y-60059457D01*
X186303416Y-60354663D01*
X187073207Y-60355335D01*
X187410972Y-60215774D01*
X200122599Y-72927401D01*
X200369160Y-73092148D01*
X200401441Y-73098569D01*
X200660000Y-73150000D01*
X204292560Y-73150000D01*
X204292560Y-73190000D01*
X204336838Y-73425317D01*
X204475910Y-73641441D01*
X204688110Y-73786431D01*
X204940000Y-73837440D01*
X206540000Y-73837440D01*
X206775317Y-73793162D01*
X206991441Y-73654090D01*
X207136431Y-73441890D01*
X207145370Y-73397745D01*
X207411861Y-73397745D01*
X207485995Y-73643864D01*
X208023223Y-73836965D01*
X208593454Y-73809778D01*
X208994005Y-73643864D01*
X209068139Y-73397745D01*
X208240000Y-72569605D01*
X207411861Y-73397745D01*
X207145370Y-73397745D01*
X207184646Y-73203799D01*
X207232255Y-73218139D01*
X208060395Y-72390000D01*
X208419605Y-72390000D01*
X209247745Y-73218139D01*
X209493864Y-73144005D01*
X209686965Y-72606777D01*
X209659778Y-72036546D01*
X209493864Y-71635995D01*
X209247745Y-71561861D01*
X208419605Y-72390000D01*
X208060395Y-72390000D01*
X207232255Y-71561861D01*
X207184833Y-71576145D01*
X207148351Y-71382255D01*
X207411861Y-71382255D01*
X208240000Y-72210395D01*
X209068139Y-71382255D01*
X208994005Y-71136136D01*
X208456777Y-70943035D01*
X207886546Y-70970222D01*
X207485995Y-71136136D01*
X207411861Y-71382255D01*
X207148351Y-71382255D01*
X207143162Y-71354683D01*
X207004090Y-71138559D01*
X206791890Y-70993569D01*
X206540000Y-70942560D01*
X204940000Y-70942560D01*
X204704683Y-70986838D01*
X204488559Y-71125910D01*
X204343569Y-71338110D01*
X204292560Y-71590000D01*
X204292560Y-71630000D01*
X200974802Y-71630000D01*
X189699811Y-60355009D01*
X190073207Y-60355335D01*
X190784658Y-60061370D01*
X191329457Y-59517521D01*
X191624663Y-58806584D01*
X191625335Y-58036793D01*
X191370482Y-57420000D01*
X205997560Y-57420000D01*
X205997560Y-59420000D01*
X206041838Y-59655317D01*
X206180910Y-59871441D01*
X206393110Y-60016431D01*
X206645000Y-60067440D01*
X206885000Y-60067440D01*
X206885000Y-67970800D01*
X206942852Y-68261639D01*
X207107599Y-68508201D01*
X215740584Y-77141186D01*
X215722048Y-77185826D01*
X215721554Y-77751691D01*
X215937645Y-78274672D01*
X216337423Y-78675149D01*
X216860026Y-78892152D01*
X217425891Y-78892646D01*
X217948872Y-78676555D01*
X218349349Y-78276777D01*
X218566352Y-77754174D01*
X218566846Y-77188309D01*
X218350755Y-76665328D01*
X217950977Y-76264851D01*
X217428374Y-76047848D01*
X216862509Y-76047354D01*
X216815698Y-76066696D01*
X208405000Y-67655998D01*
X208405000Y-63325750D01*
X215800000Y-63325750D01*
X215800000Y-64916309D01*
X215896673Y-65149698D01*
X216075301Y-65328327D01*
X216308690Y-65425000D01*
X217899250Y-65425000D01*
X218058000Y-65266250D01*
X218058000Y-63167000D01*
X218312000Y-63167000D01*
X218312000Y-65266250D01*
X218470750Y-65425000D01*
X220061310Y-65425000D01*
X220294699Y-65328327D01*
X220473327Y-65149698D01*
X220487560Y-65115337D01*
X220487560Y-67790000D01*
X220531838Y-68025317D01*
X220670910Y-68241441D01*
X220883110Y-68386431D01*
X221135000Y-68437440D01*
X221488058Y-68437440D01*
X219807199Y-70118299D01*
X219642452Y-70364861D01*
X219584600Y-70655700D01*
X219584600Y-76244987D01*
X219539928Y-76263445D01*
X219139451Y-76663223D01*
X218922448Y-77185826D01*
X218921954Y-77751691D01*
X219138045Y-78274672D01*
X219537823Y-78675149D01*
X220060426Y-78892152D01*
X220626291Y-78892646D01*
X221149272Y-78676555D01*
X221549749Y-78276777D01*
X221766752Y-77754174D01*
X221766754Y-77751691D01*
X222122354Y-77751691D01*
X222338445Y-78274672D01*
X222738223Y-78675149D01*
X223260826Y-78892152D01*
X223826691Y-78892646D01*
X224349672Y-78676555D01*
X224750149Y-78276777D01*
X224967152Y-77754174D01*
X224967646Y-77188309D01*
X224751555Y-76665328D01*
X224351777Y-76264851D01*
X223829174Y-76047848D01*
X223263309Y-76047354D01*
X222740328Y-76263445D01*
X222339851Y-76663223D01*
X222122848Y-77185826D01*
X222122354Y-77751691D01*
X221766754Y-77751691D01*
X221767246Y-77188309D01*
X221551155Y-76665328D01*
X221151377Y-76264851D01*
X221104600Y-76245428D01*
X221104600Y-70970502D01*
X223422401Y-68652701D01*
X223566233Y-68437440D01*
X224635000Y-68437440D01*
X224870317Y-68393162D01*
X225086441Y-68254090D01*
X225231431Y-68041890D01*
X225282440Y-67790000D01*
X225282440Y-64290000D01*
X225238162Y-64054683D01*
X225099090Y-63838559D01*
X224886890Y-63693569D01*
X224635000Y-63642560D01*
X221135000Y-63642560D01*
X220899683Y-63686838D01*
X220683559Y-63825910D01*
X220570000Y-63992109D01*
X220570000Y-63325750D01*
X220411250Y-63167000D01*
X218312000Y-63167000D01*
X218058000Y-63167000D01*
X215958750Y-63167000D01*
X215800000Y-63325750D01*
X208405000Y-63325750D01*
X208405000Y-61163691D01*
X215800000Y-61163691D01*
X215800000Y-62754250D01*
X215958750Y-62913000D01*
X218058000Y-62913000D01*
X218058000Y-60813750D01*
X218312000Y-60813750D01*
X218312000Y-62913000D01*
X220411250Y-62913000D01*
X220570000Y-62754250D01*
X220570000Y-62085304D01*
X220596673Y-62149698D01*
X220775301Y-62328327D01*
X221008690Y-62425000D01*
X222599250Y-62425000D01*
X222758000Y-62266250D01*
X222758000Y-60167000D01*
X223012000Y-60167000D01*
X223012000Y-62266250D01*
X223170750Y-62425000D01*
X224761310Y-62425000D01*
X224994699Y-62328327D01*
X225173327Y-62149698D01*
X225270000Y-61916309D01*
X225270000Y-60325750D01*
X225111250Y-60167000D01*
X223012000Y-60167000D01*
X222758000Y-60167000D01*
X220658750Y-60167000D01*
X220500000Y-60325750D01*
X220500000Y-60994696D01*
X220473327Y-60930302D01*
X220294699Y-60751673D01*
X220061310Y-60655000D01*
X218470750Y-60655000D01*
X218312000Y-60813750D01*
X218058000Y-60813750D01*
X217899250Y-60655000D01*
X216308690Y-60655000D01*
X216075301Y-60751673D01*
X215896673Y-60930302D01*
X215800000Y-61163691D01*
X208405000Y-61163691D01*
X208405000Y-60067440D01*
X208645000Y-60067440D01*
X208880317Y-60023162D01*
X209096441Y-59884090D01*
X209241431Y-59671890D01*
X209261551Y-59572532D01*
X211672073Y-59572532D01*
X211770736Y-59839387D01*
X212380461Y-60065908D01*
X213030460Y-60041856D01*
X213519264Y-59839387D01*
X213617927Y-59572532D01*
X212645000Y-58599605D01*
X211672073Y-59572532D01*
X209261551Y-59572532D01*
X209292440Y-59420000D01*
X209292440Y-58155461D01*
X210999092Y-58155461D01*
X211023144Y-58805460D01*
X211225613Y-59294264D01*
X211492468Y-59392927D01*
X212465395Y-58420000D01*
X212824605Y-58420000D01*
X213797532Y-59392927D01*
X214064387Y-59294264D01*
X214290908Y-58684539D01*
X214271635Y-58163691D01*
X220500000Y-58163691D01*
X220500000Y-59754250D01*
X220658750Y-59913000D01*
X222758000Y-59913000D01*
X222758000Y-57813750D01*
X223012000Y-57813750D01*
X223012000Y-59913000D01*
X225111250Y-59913000D01*
X225270000Y-59754250D01*
X225270000Y-58163691D01*
X225173327Y-57930302D01*
X224994699Y-57751673D01*
X224761310Y-57655000D01*
X223170750Y-57655000D01*
X223012000Y-57813750D01*
X222758000Y-57813750D01*
X222599250Y-57655000D01*
X221008690Y-57655000D01*
X220775301Y-57751673D01*
X220596673Y-57930302D01*
X220500000Y-58163691D01*
X214271635Y-58163691D01*
X214266856Y-58034540D01*
X214064387Y-57545736D01*
X213797532Y-57447073D01*
X212824605Y-58420000D01*
X212465395Y-58420000D01*
X211492468Y-57447073D01*
X211225613Y-57545736D01*
X210999092Y-58155461D01*
X209292440Y-58155461D01*
X209292440Y-57420000D01*
X209263740Y-57267468D01*
X211672073Y-57267468D01*
X212645000Y-58240395D01*
X213617927Y-57267468D01*
X213519264Y-57000613D01*
X212909539Y-56774092D01*
X212259540Y-56798144D01*
X211770736Y-57000613D01*
X211672073Y-57267468D01*
X209263740Y-57267468D01*
X209248162Y-57184683D01*
X209109090Y-56968559D01*
X208896890Y-56823569D01*
X208645000Y-56772560D01*
X206645000Y-56772560D01*
X206409683Y-56816838D01*
X206193559Y-56955910D01*
X206048569Y-57168110D01*
X205997560Y-57420000D01*
X191370482Y-57420000D01*
X191331370Y-57325342D01*
X190787521Y-56780543D01*
X190076584Y-56485337D01*
X189306793Y-56484665D01*
X188595342Y-56778630D01*
X188189770Y-57183495D01*
X187787521Y-56780543D01*
X187076584Y-56485337D01*
X186306793Y-56484665D01*
X185595342Y-56778630D01*
X185050543Y-57322479D01*
X184755337Y-58033416D01*
X184754665Y-58803207D01*
X152243309Y-58803207D01*
X151977499Y-58537397D01*
X152143223Y-58596965D01*
X152713454Y-58569778D01*
X153114005Y-58403864D01*
X153188139Y-58157745D01*
X152360000Y-57329605D01*
X152345858Y-57343748D01*
X152166252Y-57164142D01*
X152180395Y-57150000D01*
X152539605Y-57150000D01*
X153367745Y-57978139D01*
X153613864Y-57904005D01*
X153806965Y-57366777D01*
X153779778Y-56796546D01*
X153613864Y-56395995D01*
X153367745Y-56321861D01*
X152539605Y-57150000D01*
X152180395Y-57150000D01*
X151352255Y-56321861D01*
X151106136Y-56395995D01*
X151103804Y-56402483D01*
X151077243Y-56338200D01*
X150881640Y-56142255D01*
X151531861Y-56142255D01*
X152360000Y-56970395D01*
X153188139Y-56142255D01*
X153114005Y-55896136D01*
X152576777Y-55703035D01*
X152006546Y-55730222D01*
X151605995Y-55896136D01*
X151531861Y-56142255D01*
X150881640Y-56142255D01*
X150673923Y-55934176D01*
X150620000Y-55911785D01*
X150620000Y-55245000D01*
X150562148Y-54954161D01*
X150562148Y-54954160D01*
X150397401Y-54707599D01*
X148733256Y-53043454D01*
X148754750Y-52991691D01*
X148755248Y-52420813D01*
X148537243Y-51893200D01*
X148154711Y-51510000D01*
X227260069Y-51510000D01*
X227781984Y-51613815D01*
X228165157Y-51869844D01*
X228421185Y-52253015D01*
X228525000Y-52774931D01*
X228525000Y-116135069D01*
X228421185Y-116656985D01*
X228165157Y-117040156D01*
X227781984Y-117296185D01*
X227260069Y-117400000D01*
X74364931Y-117400000D01*
X73843015Y-117296185D01*
X73459844Y-117040157D01*
X73203815Y-116656984D01*
X73100000Y-116135069D01*
X73100000Y-114649089D01*
X129324743Y-114649089D01*
X129550344Y-115195086D01*
X129967717Y-115613188D01*
X130513319Y-115839742D01*
X131104089Y-115840257D01*
X131650086Y-115614656D01*
X132068188Y-115197283D01*
X132294742Y-114651681D01*
X132294744Y-114649089D01*
X135824743Y-114649089D01*
X136050344Y-115195086D01*
X136467717Y-115613188D01*
X137013319Y-115839742D01*
X137604089Y-115840257D01*
X138150086Y-115614656D01*
X138366160Y-115398958D01*
X139470647Y-115398958D01*
X139550920Y-115650259D01*
X140106279Y-115851718D01*
X140696458Y-115825315D01*
X141119080Y-115650259D01*
X141199353Y-115398958D01*
X140335000Y-114534605D01*
X139470647Y-115398958D01*
X138366160Y-115398958D01*
X138568188Y-115197283D01*
X138794742Y-114651681D01*
X138795200Y-114126279D01*
X138838282Y-114126279D01*
X138864685Y-114716458D01*
X139039741Y-115139080D01*
X139291042Y-115219353D01*
X140155395Y-114355000D01*
X140514605Y-114355000D01*
X141378958Y-115219353D01*
X141630259Y-115139080D01*
X141808005Y-114649089D01*
X145349743Y-114649089D01*
X145575344Y-115195086D01*
X145992717Y-115613188D01*
X146538319Y-115839742D01*
X147129089Y-115840257D01*
X147675086Y-115614656D01*
X148093188Y-115197283D01*
X148319742Y-114651681D01*
X148319744Y-114649089D01*
X148374743Y-114649089D01*
X148600344Y-115195086D01*
X149017717Y-115613188D01*
X149563319Y-115839742D01*
X150154089Y-115840257D01*
X150700086Y-115614656D01*
X151118188Y-115197283D01*
X151344742Y-114651681D01*
X151344744Y-114649089D01*
X154874743Y-114649089D01*
X155100344Y-115195086D01*
X155517717Y-115613188D01*
X156063319Y-115839742D01*
X156654089Y-115840257D01*
X157200086Y-115614656D01*
X157618188Y-115197283D01*
X157844742Y-114651681D01*
X157844744Y-114649089D01*
X157899743Y-114649089D01*
X158125344Y-115195086D01*
X158542717Y-115613188D01*
X159088319Y-115839742D01*
X159679089Y-115840257D01*
X160225086Y-115614656D01*
X160643188Y-115197283D01*
X160869742Y-114651681D01*
X160869744Y-114649089D01*
X164399743Y-114649089D01*
X164625344Y-115195086D01*
X165042717Y-115613188D01*
X165588319Y-115839742D01*
X166179089Y-115840257D01*
X166725086Y-115614656D01*
X167143188Y-115197283D01*
X167369742Y-114651681D01*
X167369744Y-114649089D01*
X167424743Y-114649089D01*
X167650344Y-115195086D01*
X168067717Y-115613188D01*
X168613319Y-115839742D01*
X169204089Y-115840257D01*
X169750086Y-115614656D01*
X169966160Y-115398958D01*
X174545647Y-115398958D01*
X174625920Y-115650259D01*
X175181279Y-115851718D01*
X175771458Y-115825315D01*
X176194080Y-115650259D01*
X176274353Y-115398958D01*
X175410000Y-114534605D01*
X174545647Y-115398958D01*
X169966160Y-115398958D01*
X170168188Y-115197283D01*
X170394742Y-114651681D01*
X170395200Y-114126279D01*
X173913282Y-114126279D01*
X173939685Y-114716458D01*
X174114741Y-115139080D01*
X174366042Y-115219353D01*
X175230395Y-114355000D01*
X175589605Y-114355000D01*
X176453958Y-115219353D01*
X176705259Y-115139080D01*
X176906718Y-114583721D01*
X176880315Y-113993542D01*
X176705259Y-113570920D01*
X176453958Y-113490647D01*
X175589605Y-114355000D01*
X175230395Y-114355000D01*
X174366042Y-113490647D01*
X174114741Y-113570920D01*
X173913282Y-114126279D01*
X170395200Y-114126279D01*
X170395257Y-114060911D01*
X170169656Y-113514914D01*
X169966140Y-113311042D01*
X174545647Y-113311042D01*
X175410000Y-114175395D01*
X176274353Y-113311042D01*
X176194080Y-113059741D01*
X175638721Y-112858282D01*
X175048542Y-112884685D01*
X174625920Y-113059741D01*
X174545647Y-113311042D01*
X169966140Y-113311042D01*
X169752283Y-113096812D01*
X169206681Y-112870258D01*
X168615911Y-112869743D01*
X168069914Y-113095344D01*
X167651812Y-113512717D01*
X167425258Y-114058319D01*
X167424743Y-114649089D01*
X167369744Y-114649089D01*
X167370257Y-114060911D01*
X167144656Y-113514914D01*
X166727283Y-113096812D01*
X166181681Y-112870258D01*
X165590911Y-112869743D01*
X165044914Y-113095344D01*
X164626812Y-113512717D01*
X164400258Y-114058319D01*
X164399743Y-114649089D01*
X160869744Y-114649089D01*
X160870257Y-114060911D01*
X160644656Y-113514914D01*
X160227283Y-113096812D01*
X159681681Y-112870258D01*
X159090911Y-112869743D01*
X158544914Y-113095344D01*
X158126812Y-113512717D01*
X157900258Y-114058319D01*
X157899743Y-114649089D01*
X157844744Y-114649089D01*
X157845257Y-114060911D01*
X157619656Y-113514914D01*
X157202283Y-113096812D01*
X156656681Y-112870258D01*
X156065911Y-112869743D01*
X155519914Y-113095344D01*
X155101812Y-113512717D01*
X154875258Y-114058319D01*
X154874743Y-114649089D01*
X151344744Y-114649089D01*
X151345257Y-114060911D01*
X151119656Y-113514914D01*
X150702283Y-113096812D01*
X150156681Y-112870258D01*
X149565911Y-112869743D01*
X149019914Y-113095344D01*
X148601812Y-113512717D01*
X148375258Y-114058319D01*
X148374743Y-114649089D01*
X148319744Y-114649089D01*
X148320257Y-114060911D01*
X148094656Y-113514914D01*
X147677283Y-113096812D01*
X147131681Y-112870258D01*
X146540911Y-112869743D01*
X145994914Y-113095344D01*
X145576812Y-113512717D01*
X145350258Y-114058319D01*
X145349743Y-114649089D01*
X141808005Y-114649089D01*
X141831718Y-114583721D01*
X141805315Y-113993542D01*
X141630259Y-113570920D01*
X141378958Y-113490647D01*
X140514605Y-114355000D01*
X140155395Y-114355000D01*
X139291042Y-113490647D01*
X139039741Y-113570920D01*
X138838282Y-114126279D01*
X138795200Y-114126279D01*
X138795257Y-114060911D01*
X138569656Y-113514914D01*
X138366140Y-113311042D01*
X139470647Y-113311042D01*
X140335000Y-114175395D01*
X141199353Y-113311042D01*
X141119080Y-113059741D01*
X140563721Y-112858282D01*
X139973542Y-112884685D01*
X139550920Y-113059741D01*
X139470647Y-113311042D01*
X138366140Y-113311042D01*
X138152283Y-113096812D01*
X137606681Y-112870258D01*
X137015911Y-112869743D01*
X136469914Y-113095344D01*
X136051812Y-113512717D01*
X135825258Y-114058319D01*
X135824743Y-114649089D01*
X132294744Y-114649089D01*
X132295257Y-114060911D01*
X132069656Y-113514914D01*
X131652283Y-113096812D01*
X131106681Y-112870258D01*
X130515911Y-112869743D01*
X129969914Y-113095344D01*
X129551812Y-113512717D01*
X129325258Y-114058319D01*
X129324743Y-114649089D01*
X73100000Y-114649089D01*
X73100000Y-105753764D01*
X86100841Y-105753764D01*
X86170059Y-105995742D01*
X86692780Y-106182155D01*
X87247049Y-106154341D01*
X87629941Y-105995742D01*
X87699159Y-105753764D01*
X86900000Y-104954605D01*
X86100841Y-105753764D01*
X73100000Y-105753764D01*
X73100000Y-93763223D01*
X74793035Y-93763223D01*
X74820222Y-94333454D01*
X74986136Y-94734005D01*
X75232255Y-94808139D01*
X76060395Y-93980000D01*
X75232255Y-93151861D01*
X74986136Y-93225995D01*
X74793035Y-93763223D01*
X73100000Y-93763223D01*
X73100000Y-84374767D01*
X73809138Y-84374767D01*
X73951183Y-84718543D01*
X74213973Y-84981792D01*
X74557501Y-85124438D01*
X74604377Y-85124479D01*
X76730000Y-87250102D01*
X76730000Y-92631242D01*
X76456777Y-92533035D01*
X75886546Y-92560222D01*
X75485995Y-92726136D01*
X75411861Y-92972255D01*
X76240000Y-93800395D01*
X76254142Y-93786252D01*
X76433748Y-93965858D01*
X76419605Y-93980000D01*
X76433748Y-93994143D01*
X76254142Y-94173748D01*
X76240000Y-94159605D01*
X75411861Y-94987745D01*
X75485995Y-95233864D01*
X76023223Y-95426965D01*
X76593454Y-95399778D01*
X76994005Y-95233864D01*
X77051126Y-95044228D01*
X85836969Y-103830071D01*
X85806216Y-103860824D01*
X85921234Y-103975842D01*
X85679258Y-104045059D01*
X85492845Y-104567780D01*
X85520659Y-105122049D01*
X85679258Y-105504941D01*
X85921236Y-105574159D01*
X86720395Y-104775000D01*
X86706253Y-104760858D01*
X86885858Y-104581253D01*
X86900000Y-104595395D01*
X86914143Y-104581253D01*
X87093748Y-104760858D01*
X87079605Y-104775000D01*
X87609595Y-105304990D01*
X87716687Y-105564172D01*
X88108764Y-105956934D01*
X88207687Y-105998011D01*
X85853738Y-108351960D01*
X85325880Y-107823181D01*
X84596573Y-107520346D01*
X83806891Y-107519657D01*
X83077057Y-107821218D01*
X82518181Y-108379120D01*
X82215346Y-109108427D01*
X82214657Y-109898109D01*
X82516218Y-110627943D01*
X83074120Y-111186819D01*
X83803427Y-111489654D01*
X84593109Y-111490343D01*
X85322943Y-111188782D01*
X85881819Y-110630880D01*
X86056996Y-110209006D01*
X86066339Y-110207148D01*
X86312901Y-110042401D01*
X90543901Y-105811401D01*
X90708648Y-105564839D01*
X90766500Y-105274000D01*
X90766500Y-101793200D01*
X90708648Y-101502361D01*
X90543901Y-101255799D01*
X86255701Y-96967599D01*
X86076152Y-96847629D01*
X85883782Y-96382057D01*
X85325880Y-95823181D01*
X84596573Y-95520346D01*
X83806891Y-95519657D01*
X83077057Y-95821218D01*
X82518181Y-96379120D01*
X82215346Y-97108427D01*
X82214657Y-97898109D01*
X82327351Y-98170849D01*
X79411653Y-95255151D01*
X79551800Y-95197243D01*
X79955824Y-94793923D01*
X80174750Y-94266691D01*
X80175248Y-93695813D01*
X79957243Y-93168200D01*
X79553923Y-92764176D01*
X79026691Y-92545250D01*
X78455813Y-92544752D01*
X78250000Y-92629792D01*
X78250000Y-92349285D01*
X88149760Y-92349285D01*
X88360169Y-92858515D01*
X88749436Y-93248461D01*
X89258298Y-93459759D01*
X89809285Y-93460240D01*
X90318515Y-93249831D01*
X90708461Y-92860564D01*
X90919759Y-92351702D01*
X90920240Y-91800715D01*
X90709831Y-91291485D01*
X90320564Y-90901539D01*
X89811702Y-90690241D01*
X89260715Y-90689760D01*
X88751485Y-90900169D01*
X88361539Y-91289436D01*
X88150241Y-91798298D01*
X88149760Y-92349285D01*
X78250000Y-92349285D01*
X78250000Y-87469285D01*
X88149760Y-87469285D01*
X88360169Y-87978515D01*
X88749436Y-88368461D01*
X89258298Y-88579759D01*
X89809285Y-88580240D01*
X90318515Y-88369831D01*
X90708461Y-87980564D01*
X90919759Y-87471702D01*
X90920240Y-86920715D01*
X90709831Y-86411485D01*
X90320564Y-86021539D01*
X89811702Y-85810241D01*
X89260715Y-85809760D01*
X88751485Y-86020169D01*
X88361539Y-86409436D01*
X88150241Y-86918298D01*
X88149760Y-87469285D01*
X78250000Y-87469285D01*
X78250000Y-86935300D01*
X78229054Y-86830000D01*
X78192148Y-86644460D01*
X78027401Y-86397899D01*
X75679422Y-84049920D01*
X75679462Y-84004433D01*
X75537417Y-83660657D01*
X75274627Y-83397408D01*
X74931099Y-83254762D01*
X74559133Y-83254438D01*
X74215357Y-83396483D01*
X73952108Y-83659273D01*
X73809462Y-84002801D01*
X73809138Y-84374767D01*
X73100000Y-84374767D01*
X73100000Y-57314677D01*
X96254794Y-57314677D01*
X96434820Y-57750372D01*
X96767875Y-58084009D01*
X97203255Y-58264794D01*
X97674677Y-58265206D01*
X98110372Y-58085180D01*
X98444009Y-57752125D01*
X98624794Y-57316745D01*
X98625206Y-56845323D01*
X98445180Y-56409628D01*
X98112125Y-56075991D01*
X97676745Y-55895206D01*
X97205323Y-55894794D01*
X96769628Y-56074820D01*
X96435991Y-56407875D01*
X96255206Y-56843255D01*
X96254794Y-57314677D01*
X73100000Y-57314677D01*
X73100000Y-53712745D01*
X141491861Y-53712745D01*
X141565995Y-53958864D01*
X142103223Y-54151965D01*
X142673454Y-54124778D01*
X143074005Y-53958864D01*
X143148139Y-53712745D01*
X142320000Y-52884605D01*
X141491861Y-53712745D01*
X73100000Y-53712745D01*
X73100000Y-52774931D01*
X73157029Y-52488223D01*
X140873035Y-52488223D01*
X140900222Y-53058454D01*
X141066136Y-53459005D01*
X141312255Y-53533139D01*
X142140395Y-52705000D01*
X142499605Y-52705000D01*
X143327745Y-53533139D01*
X143573864Y-53459005D01*
X143766965Y-52921777D01*
X143739778Y-52351546D01*
X143573864Y-51950995D01*
X143327745Y-51876861D01*
X142499605Y-52705000D01*
X142140395Y-52705000D01*
X141312255Y-51876861D01*
X141066136Y-51950995D01*
X140873035Y-52488223D01*
X73157029Y-52488223D01*
X73203815Y-52253016D01*
X73459844Y-51869843D01*
X73843015Y-51613815D01*
X74364931Y-51510000D01*
X141548264Y-51510000D01*
X141491861Y-51697255D01*
X141491861Y-51697255D01*
G37*
X141491861Y-51697255D02*
X142320000Y-52525395D01*
X143148139Y-51697255D01*
X143091736Y-51510000D01*
X146485918Y-51510000D01*
X146104176Y-51891077D01*
X145885250Y-52418309D01*
X145884752Y-52989187D01*
X145907049Y-53043149D01*
X144444498Y-54505700D01*
X135234300Y-54505700D01*
X134943461Y-54563552D01*
X134696899Y-54728299D01*
X132418454Y-57006744D01*
X132366691Y-56985250D01*
X131795813Y-56984752D01*
X131268200Y-57202757D01*
X130864176Y-57606077D01*
X130645250Y-58133309D01*
X130644752Y-58704187D01*
X130667049Y-58758149D01*
X129340950Y-60084248D01*
X125178201Y-55921499D01*
X124931639Y-55756752D01*
X124640800Y-55698900D01*
X107404100Y-55698900D01*
X107113261Y-55756752D01*
X106866699Y-55921499D01*
X93523199Y-69264999D01*
X93358452Y-69511561D01*
X93300600Y-69802400D01*
X93300600Y-108372900D01*
X93358452Y-108663739D01*
X93523199Y-108910301D01*
X94045399Y-109432501D01*
X94291960Y-109597248D01*
X94582800Y-109655100D01*
X98749900Y-109655100D01*
X99040739Y-109597248D01*
X99287301Y-109432501D01*
X99356546Y-109363256D01*
X99408309Y-109384750D01*
X99979187Y-109385248D01*
X100506800Y-109167243D01*
X100716663Y-108957745D01*
X101366861Y-108957745D01*
X101440995Y-109203864D01*
X101978223Y-109396965D01*
X102548454Y-109369778D01*
X102949005Y-109203864D01*
X103023139Y-108957745D01*
X102195000Y-108129605D01*
X101366861Y-108957745D01*
X100716663Y-108957745D01*
X100910824Y-108763923D01*
X100938423Y-108697456D01*
X100941136Y-108704005D01*
X101187255Y-108778139D01*
X102015395Y-107950000D01*
X102374605Y-107950000D01*
X103202745Y-108778139D01*
X103448864Y-108704005D01*
X103641965Y-108166777D01*
X103614778Y-107596546D01*
X103448864Y-107195995D01*
X103202745Y-107121861D01*
X102374605Y-107950000D01*
X102015395Y-107950000D01*
X101187255Y-107121861D01*
X100941136Y-107195995D01*
X100938804Y-107202483D01*
X100912243Y-107138200D01*
X100716640Y-106942255D01*
X101366861Y-106942255D01*
X102195000Y-107770395D01*
X103023139Y-106942255D01*
X102949005Y-106696136D01*
X102411777Y-106503035D01*
X101841546Y-106530222D01*
X101440995Y-106696136D01*
X101366861Y-106942255D01*
X100716640Y-106942255D01*
X100508923Y-106734176D01*
X99981691Y-106515250D01*
X99410813Y-106514752D01*
X98883200Y-106732757D01*
X98479176Y-107136077D01*
X98260250Y-107663309D01*
X98259838Y-108135100D01*
X97767440Y-108135100D01*
X97767440Y-107350000D01*
X97723162Y-107114683D01*
X97637673Y-106981829D01*
X98266276Y-106353226D01*
X106868642Y-106353226D01*
X106890473Y-106450357D01*
X107174127Y-106964068D01*
X107632778Y-107330125D01*
X108196600Y-107492800D01*
X108458000Y-107492800D01*
X108458000Y-106121200D01*
X108712000Y-106121200D01*
X108712000Y-107492800D01*
X108973400Y-107492800D01*
X109537222Y-107330125D01*
X109995873Y-106964068D01*
X110279527Y-106450357D01*
X110301358Y-106353226D01*
X110180217Y-106121200D01*
X108712000Y-106121200D01*
X108458000Y-106121200D01*
X106989783Y-106121200D01*
X106868642Y-106353226D01*
X98266276Y-106353226D01*
X99452601Y-105166901D01*
X99617348Y-104920340D01*
X99675200Y-104629500D01*
X99675200Y-103813226D01*
X106868642Y-103813226D01*
X106890473Y-103910357D01*
X107174127Y-104424068D01*
X107550177Y-104724200D01*
X107174127Y-105024332D01*
X106890473Y-105538043D01*
X106868642Y-105635174D01*
X106989783Y-105867200D01*
X108458000Y-105867200D01*
X108458000Y-103581200D01*
X108712000Y-103581200D01*
X108712000Y-105867200D01*
X110180217Y-105867200D01*
X110301358Y-105635174D01*
X110279527Y-105538043D01*
X109995873Y-105024332D01*
X109619823Y-104724200D01*
X109995873Y-104424068D01*
X110279527Y-103910357D01*
X110301358Y-103813226D01*
X110180217Y-103581200D01*
X108712000Y-103581200D01*
X108458000Y-103581200D01*
X106989783Y-103581200D01*
X106868642Y-103813226D01*
X99675200Y-103813226D01*
X99675200Y-75557702D01*
X102091869Y-77974371D01*
X102091638Y-78239367D01*
X102233683Y-78583143D01*
X102496473Y-78846392D01*
X102773606Y-78961468D01*
X102909783Y-79291043D01*
X103172573Y-79554292D01*
X103516101Y-79696938D01*
X103585800Y-79696999D01*
X103585800Y-83380500D01*
X103643652Y-83671339D01*
X103808399Y-83917901D01*
X107155581Y-87265083D01*
X106904594Y-87640711D01*
X106790520Y-88214200D01*
X106904594Y-88787689D01*
X107229450Y-89273870D01*
X107544231Y-89484200D01*
X107229450Y-89694530D01*
X106904594Y-90180711D01*
X106790520Y-90754200D01*
X106904594Y-91327689D01*
X107229450Y-91813870D01*
X107544231Y-92024200D01*
X107229450Y-92234530D01*
X106904594Y-92720711D01*
X106790520Y-93294200D01*
X106904594Y-93867689D01*
X107229450Y-94353870D01*
X107544231Y-94564200D01*
X107229450Y-94774530D01*
X106904594Y-95260711D01*
X106790520Y-95834200D01*
X106904594Y-96407689D01*
X107229450Y-96893870D01*
X107544231Y-97104200D01*
X107229450Y-97314530D01*
X106904594Y-97800711D01*
X106790520Y-98374200D01*
X106904594Y-98947689D01*
X107229450Y-99433870D01*
X107544231Y-99644200D01*
X107229450Y-99854530D01*
X106904594Y-100340711D01*
X106790520Y-100914200D01*
X106904594Y-101487689D01*
X107229450Y-101973870D01*
X107547468Y-102186363D01*
X107174127Y-102484332D01*
X106890473Y-102998043D01*
X106868642Y-103095174D01*
X106989783Y-103327200D01*
X108458000Y-103327200D01*
X108458000Y-103307200D01*
X108712000Y-103307200D01*
X108712000Y-103327200D01*
X110180217Y-103327200D01*
X110301358Y-103095174D01*
X110279527Y-102998043D01*
X109995873Y-102484332D01*
X109622532Y-102186363D01*
X109940550Y-101973870D01*
X110265406Y-101487689D01*
X110379480Y-100914200D01*
X110265406Y-100340711D01*
X109940550Y-99854530D01*
X109625769Y-99644200D01*
X109940550Y-99433870D01*
X110265406Y-98947689D01*
X110379480Y-98374200D01*
X110265406Y-97800711D01*
X109940550Y-97314530D01*
X109625769Y-97104200D01*
X109940550Y-96893870D01*
X110265406Y-96407689D01*
X110379480Y-95834200D01*
X110265406Y-95260711D01*
X109940550Y-94774530D01*
X109625769Y-94564200D01*
X109940550Y-94353870D01*
X110265406Y-93867689D01*
X110379480Y-93294200D01*
X110265406Y-92720711D01*
X109940550Y-92234530D01*
X109625769Y-92024200D01*
X109940550Y-91813870D01*
X110265406Y-91327689D01*
X110379480Y-90754200D01*
X110265406Y-90180711D01*
X109940550Y-89694530D01*
X109625769Y-89484200D01*
X109940550Y-89273870D01*
X110265406Y-88787689D01*
X110379480Y-88214200D01*
X110265406Y-87640711D01*
X109940550Y-87154530D01*
X109625769Y-86944200D01*
X109940550Y-86733870D01*
X110265406Y-86247689D01*
X110379480Y-85674200D01*
X110265406Y-85100711D01*
X109940550Y-84614530D01*
X109625769Y-84404200D01*
X109940550Y-84193870D01*
X110265406Y-83707689D01*
X110379480Y-83134200D01*
X110318641Y-82828343D01*
X122387490Y-94897192D01*
X122144594Y-95260711D01*
X122030520Y-95834200D01*
X122144594Y-96407689D01*
X122469450Y-96893870D01*
X122784231Y-97104200D01*
X122469450Y-97314530D01*
X122144594Y-97800711D01*
X122030520Y-98374200D01*
X122144594Y-98947689D01*
X122469450Y-99433870D01*
X122784231Y-99644200D01*
X122469450Y-99854530D01*
X122144594Y-100340711D01*
X122030520Y-100914200D01*
X122144594Y-101487689D01*
X122469450Y-101973870D01*
X122784231Y-102184200D01*
X122469450Y-102394530D01*
X122144594Y-102880711D01*
X122030520Y-103454200D01*
X122144594Y-104027689D01*
X122469450Y-104513870D01*
X122784231Y-104724200D01*
X122469450Y-104934530D01*
X122144594Y-105420711D01*
X122030520Y-105994200D01*
X122144594Y-106567689D01*
X122469450Y-107053870D01*
X122955631Y-107378726D01*
X123529120Y-107492800D01*
X124120880Y-107492800D01*
X124694369Y-107378726D01*
X125180550Y-107053870D01*
X125505406Y-106567689D01*
X125619480Y-105994200D01*
X125505406Y-105420711D01*
X125180550Y-104934530D01*
X124865769Y-104724200D01*
X125180550Y-104513870D01*
X125505406Y-104027689D01*
X125619480Y-103454200D01*
X125505406Y-102880711D01*
X125180550Y-102394530D01*
X124865769Y-102184200D01*
X125180550Y-101973870D01*
X125410790Y-101629292D01*
X130050000Y-106268502D01*
X130050000Y-108562253D01*
X129969914Y-108595344D01*
X129551812Y-109012717D01*
X129325258Y-109558319D01*
X129324743Y-110149089D01*
X129550344Y-110695086D01*
X129967717Y-111113188D01*
X130513319Y-111339742D01*
X131104089Y-111340257D01*
X131650086Y-111114656D01*
X132068188Y-110697283D01*
X132294742Y-110151681D01*
X132294744Y-110149089D01*
X135824743Y-110149089D01*
X136050344Y-110695086D01*
X136467717Y-111113188D01*
X137013319Y-111339742D01*
X137604089Y-111340257D01*
X138150086Y-111114656D01*
X138568188Y-110697283D01*
X138794742Y-110151681D01*
X138794744Y-110149089D01*
X138849743Y-110149089D01*
X139075344Y-110695086D01*
X139492717Y-111113188D01*
X140038319Y-111339742D01*
X140629089Y-111340257D01*
X141175086Y-111114656D01*
X141593188Y-110697283D01*
X141819742Y-110151681D01*
X141819744Y-110149089D01*
X145349743Y-110149089D01*
X145575344Y-110695086D01*
X145992717Y-111113188D01*
X146538319Y-111339742D01*
X147129089Y-111340257D01*
X147675086Y-111114656D01*
X148093188Y-110697283D01*
X148319742Y-110151681D01*
X148319744Y-110149089D01*
X148374743Y-110149089D01*
X148600344Y-110695086D01*
X149017717Y-111113188D01*
X149563319Y-111339742D01*
X150154089Y-111340257D01*
X150700086Y-111114656D01*
X151118188Y-110697283D01*
X151344742Y-110151681D01*
X151344744Y-110149089D01*
X154874743Y-110149089D01*
X155100344Y-110695086D01*
X155517717Y-111113188D01*
X156063319Y-111339742D01*
X156654089Y-111340257D01*
X157200086Y-111114656D01*
X157618188Y-110697283D01*
X157844742Y-110151681D01*
X157844744Y-110149089D01*
X157899743Y-110149089D01*
X158125344Y-110695086D01*
X158542717Y-111113188D01*
X159088319Y-111339742D01*
X159679089Y-111340257D01*
X160225086Y-111114656D01*
X160643188Y-110697283D01*
X160869742Y-110151681D01*
X160870257Y-109560911D01*
X160644656Y-109014914D01*
X160227283Y-108596812D01*
X159681681Y-108370258D01*
X159090911Y-108369743D01*
X158544914Y-108595344D01*
X158126812Y-109012717D01*
X157900258Y-109558319D01*
X157899743Y-110149089D01*
X157844744Y-110149089D01*
X157845257Y-109560911D01*
X157619656Y-109014914D01*
X157202283Y-108596812D01*
X156656681Y-108370258D01*
X156065911Y-108369743D01*
X155519914Y-108595344D01*
X155101812Y-109012717D01*
X154875258Y-109558319D01*
X154874743Y-110149089D01*
X151344744Y-110149089D01*
X151345257Y-109560911D01*
X151119656Y-109014914D01*
X150702283Y-108596812D01*
X150156681Y-108370258D01*
X149565911Y-108369743D01*
X149019914Y-108595344D01*
X148601812Y-109012717D01*
X148375258Y-109558319D01*
X148374743Y-110149089D01*
X148319744Y-110149089D01*
X148320257Y-109560911D01*
X148094656Y-109014914D01*
X147677283Y-108596812D01*
X147131681Y-108370258D01*
X146540911Y-108369743D01*
X145994914Y-108595344D01*
X145576812Y-109012717D01*
X145350258Y-109558319D01*
X145349743Y-110149089D01*
X141819744Y-110149089D01*
X141820257Y-109560911D01*
X141594656Y-109014914D01*
X141177283Y-108596812D01*
X140631681Y-108370258D01*
X140040911Y-108369743D01*
X139494914Y-108595344D01*
X139076812Y-109012717D01*
X138850258Y-109558319D01*
X138849743Y-110149089D01*
X138794744Y-110149089D01*
X138795257Y-109560911D01*
X138569656Y-109014914D01*
X138152283Y-108596812D01*
X137606681Y-108370258D01*
X137015911Y-108369743D01*
X136469914Y-108595344D01*
X136051812Y-109012717D01*
X135825258Y-109558319D01*
X135824743Y-110149089D01*
X132294744Y-110149089D01*
X132295257Y-109560911D01*
X132069656Y-109014914D01*
X131652283Y-108596812D01*
X131570000Y-108562645D01*
X131570000Y-105953700D01*
X131512148Y-105662861D01*
X131512148Y-105662860D01*
X131347401Y-105416299D01*
X125254419Y-99323317D01*
X125505406Y-98947689D01*
X125564849Y-98648851D01*
X134580099Y-107664101D01*
X134826661Y-107828848D01*
X135117500Y-107886700D01*
X165866898Y-107886700D01*
X166470302Y-108490104D01*
X166181681Y-108370258D01*
X165590911Y-108369743D01*
X165044914Y-108595344D01*
X164626812Y-109012717D01*
X164400258Y-109558319D01*
X164399743Y-110149089D01*
X164625344Y-110695086D01*
X165042717Y-111113188D01*
X165588319Y-111339742D01*
X166179089Y-111340257D01*
X166725086Y-111114656D01*
X167143188Y-110697283D01*
X167369742Y-110151681D01*
X167370257Y-109560911D01*
X167249955Y-109269757D01*
X167458489Y-109478291D01*
X167425258Y-109558319D01*
X167424743Y-110149089D01*
X167650344Y-110695086D01*
X168067717Y-111113188D01*
X168613319Y-111339742D01*
X169204089Y-111340257D01*
X169750086Y-111114656D01*
X170168188Y-110697283D01*
X170394742Y-110151681D01*
X170394744Y-110149089D01*
X173924743Y-110149089D01*
X174150344Y-110695086D01*
X174567717Y-111113188D01*
X175113319Y-111339742D01*
X175704089Y-111340257D01*
X176250086Y-111114656D01*
X176668188Y-110697283D01*
X176894742Y-110151681D01*
X176895257Y-109560911D01*
X176669656Y-109014914D01*
X176252283Y-108596812D01*
X175706681Y-108370258D01*
X175115911Y-108369743D01*
X174569914Y-108595344D01*
X174151812Y-109012717D01*
X173925258Y-109558319D01*
X173924743Y-110149089D01*
X170394744Y-110149089D01*
X170395257Y-109560911D01*
X170169656Y-109014914D01*
X169752283Y-108596812D01*
X169206681Y-108370258D01*
X168615911Y-108369743D01*
X168533568Y-108403766D01*
X166719101Y-106589299D01*
X166472539Y-106424552D01*
X166181700Y-106366700D01*
X137083430Y-106366700D01*
X137207397Y-106331143D01*
X137394144Y-105807698D01*
X137366362Y-105252632D01*
X137207397Y-104868857D01*
X136965213Y-104799392D01*
X136164605Y-105600000D01*
X136178748Y-105614143D01*
X135999143Y-105793748D01*
X135985000Y-105779605D01*
X135970858Y-105793748D01*
X135791253Y-105614143D01*
X135805395Y-105600000D01*
X135004787Y-104799392D01*
X134762603Y-104868857D01*
X134575856Y-105392302D01*
X134582071Y-105516469D01*
X125551301Y-96485699D01*
X125483536Y-96440420D01*
X125505406Y-96407689D01*
X125619480Y-95834200D01*
X125506359Y-95265500D01*
X142494200Y-95265500D01*
X142785039Y-95207648D01*
X143031601Y-95042901D01*
X146268223Y-91806279D01*
X146277189Y-91819698D01*
X146613071Y-92044127D01*
X141437198Y-97220000D01*
X137182531Y-97220000D01*
X137170010Y-97189697D01*
X136777370Y-96796371D01*
X136264100Y-96583243D01*
X135708339Y-96582758D01*
X135194697Y-96794990D01*
X134801371Y-97187630D01*
X134588243Y-97700900D01*
X134587758Y-98256661D01*
X134799990Y-98770303D01*
X135192630Y-99163629D01*
X135400512Y-99249949D01*
X135194697Y-99334990D01*
X134801371Y-99727630D01*
X134588243Y-100240900D01*
X134587758Y-100796661D01*
X134799990Y-101310303D01*
X135192630Y-101703629D01*
X135400512Y-101789949D01*
X135194697Y-101874990D01*
X134801371Y-102267630D01*
X134588243Y-102780900D01*
X134587758Y-103336661D01*
X134799990Y-103850303D01*
X135192630Y-104243629D01*
X135384727Y-104323395D01*
X135253857Y-104377603D01*
X135184392Y-104619787D01*
X135985000Y-105420395D01*
X136785608Y-104619787D01*
X136716143Y-104377603D01*
X136575682Y-104327491D01*
X136775303Y-104245010D01*
X137168629Y-103852370D01*
X137381757Y-103339100D01*
X137382242Y-102783339D01*
X137326907Y-102649417D01*
X176345989Y-102649417D01*
X176418575Y-102894232D01*
X176951235Y-103085226D01*
X177516438Y-103057841D01*
X177911425Y-102894232D01*
X177984011Y-102649417D01*
X177165000Y-101830405D01*
X176345989Y-102649417D01*
X137326907Y-102649417D01*
X137170010Y-102269697D01*
X136777370Y-101876371D01*
X136569488Y-101790051D01*
X136775303Y-101705010D01*
X137043746Y-101437035D01*
X175730574Y-101437035D01*
X175757959Y-102002238D01*
X175921568Y-102397225D01*
X176166383Y-102469811D01*
X176985395Y-101650800D01*
X177344605Y-101650800D01*
X178163617Y-102469811D01*
X178408432Y-102397225D01*
X178544329Y-102018223D01*
X183338035Y-102018223D01*
X183365222Y-102588454D01*
X183531136Y-102989005D01*
X183777255Y-103063139D01*
X184605395Y-102235000D01*
X183777255Y-101406861D01*
X183531136Y-101480995D01*
X183338035Y-102018223D01*
X178544329Y-102018223D01*
X178599426Y-101864565D01*
X178572041Y-101299362D01*
X178408432Y-100904375D01*
X178163617Y-100831789D01*
X177344605Y-101650800D01*
X176985395Y-101650800D01*
X176166383Y-100831789D01*
X175921568Y-100904375D01*
X175730574Y-101437035D01*
X137043746Y-101437035D01*
X137168629Y-101312370D01*
X137381757Y-100799100D01*
X137381885Y-100652183D01*
X176345989Y-100652183D01*
X177165000Y-101471195D01*
X177984011Y-100652183D01*
X177911425Y-100407368D01*
X177378765Y-100216374D01*
X176813562Y-100243759D01*
X176418575Y-100407368D01*
X176345989Y-100652183D01*
X137381885Y-100652183D01*
X137382242Y-100243339D01*
X137170010Y-99729697D01*
X136777370Y-99336371D01*
X136569488Y-99250051D01*
X136775303Y-99165010D01*
X137168629Y-98772370D01*
X137182070Y-98740000D01*
X141752000Y-98740000D01*
X141791760Y-98732091D01*
X175742354Y-98732091D01*
X175958445Y-99255072D01*
X176358223Y-99655549D01*
X176880826Y-99872552D01*
X177446691Y-99873046D01*
X177969672Y-99656955D01*
X178370149Y-99257177D01*
X178587152Y-98734574D01*
X178587646Y-98168709D01*
X178568304Y-98121898D01*
X181609166Y-95081036D01*
X182037193Y-95081036D01*
X182067518Y-95571413D01*
X182196836Y-95883617D01*
X182422265Y-95933130D01*
X183105395Y-95250000D01*
X182422265Y-94566870D01*
X182196836Y-94616383D01*
X182037193Y-95081036D01*
X181609166Y-95081036D01*
X187441163Y-89249039D01*
X188473096Y-89249039D01*
X188633959Y-89637423D01*
X189009866Y-90052389D01*
X189258367Y-90170000D01*
X189009866Y-90287611D01*
X188633959Y-90702577D01*
X188473096Y-91090961D01*
X188595085Y-91313000D01*
X189738000Y-91313000D01*
X189738000Y-89027000D01*
X189992000Y-89027000D01*
X189992000Y-91313000D01*
X191134915Y-91313000D01*
X191256904Y-91090961D01*
X191096041Y-90702577D01*
X190720134Y-90287611D01*
X190471633Y-90170000D01*
X190720134Y-90052389D01*
X191096041Y-89637423D01*
X191256904Y-89249039D01*
X191134915Y-89027000D01*
X189992000Y-89027000D01*
X189738000Y-89027000D01*
X188595085Y-89027000D01*
X188473096Y-89249039D01*
X187441163Y-89249039D01*
X188444802Y-88245400D01*
X188599655Y-88245400D01*
X188473096Y-88550961D01*
X188595085Y-88773000D01*
X189738000Y-88773000D01*
X189738000Y-88753000D01*
X189992000Y-88753000D01*
X189992000Y-88773000D01*
X191134915Y-88773000D01*
X191256904Y-88550961D01*
X191096041Y-88162577D01*
X190921501Y-87969901D01*
X191569601Y-87321801D01*
X191734348Y-87075239D01*
X191792200Y-86784400D01*
X191792200Y-79907200D01*
X191734348Y-79616361D01*
X191569601Y-79369799D01*
X191263688Y-79063886D01*
X191328113Y-78740000D01*
X191218880Y-78190849D01*
X190907811Y-77725302D01*
X190525725Y-77470000D01*
X190907811Y-77214698D01*
X190916777Y-77201279D01*
X195532899Y-81817401D01*
X195779461Y-81982148D01*
X196070300Y-82040000D01*
X196272005Y-82040000D01*
X196442189Y-82294698D01*
X196725000Y-82483667D01*
X196725000Y-82616333D01*
X196442189Y-82805302D01*
X196131120Y-83270849D01*
X196021887Y-83820000D01*
X196131120Y-84369151D01*
X196360963Y-84713135D01*
X195822299Y-85251799D01*
X195657552Y-85498361D01*
X195599700Y-85789200D01*
X195599700Y-88866598D01*
X191145408Y-93320890D01*
X190907811Y-92965302D01*
X190503297Y-92695014D01*
X190720134Y-92592389D01*
X191096041Y-92177423D01*
X191256904Y-91789039D01*
X191134915Y-91567000D01*
X189992000Y-91567000D01*
X189992000Y-91587000D01*
X189738000Y-91587000D01*
X189738000Y-91567000D01*
X188595085Y-91567000D01*
X188473096Y-91789039D01*
X188633959Y-92177423D01*
X189009866Y-92592389D01*
X189226703Y-92695014D01*
X188822189Y-92965302D01*
X188652005Y-93220000D01*
X186980300Y-93220000D01*
X186689460Y-93277852D01*
X186442899Y-93442599D01*
X185752759Y-94132739D01*
X185636890Y-94053569D01*
X185385000Y-94002560D01*
X184185000Y-94002560D01*
X183949683Y-94046838D01*
X183822364Y-94128766D01*
X183453964Y-94002193D01*
X182963587Y-94032518D01*
X182651383Y-94161836D01*
X182601870Y-94387265D01*
X183285000Y-95070395D01*
X183299143Y-95056253D01*
X183478748Y-95235858D01*
X183464605Y-95250000D01*
X183478748Y-95264143D01*
X183299143Y-95443748D01*
X183285000Y-95429605D01*
X182601870Y-96112735D01*
X182651383Y-96338164D01*
X183116036Y-96497807D01*
X183606413Y-96467482D01*
X183828990Y-96375289D01*
X183933110Y-96446431D01*
X184185000Y-96497440D01*
X185385000Y-96497440D01*
X185620317Y-96453162D01*
X185836441Y-96314090D01*
X185981431Y-96101890D01*
X186013416Y-95943945D01*
X186247701Y-95787401D01*
X187295102Y-94740000D01*
X188652005Y-94740000D01*
X188822189Y-94994698D01*
X189142053Y-95208424D01*
X189122978Y-95304321D01*
X188822189Y-95505302D01*
X188511120Y-95970849D01*
X188401887Y-96520000D01*
X188511120Y-97069151D01*
X188822189Y-97534698D01*
X189167482Y-97765416D01*
X187533779Y-99399119D01*
X187505460Y-99404752D01*
X187258899Y-99569499D01*
X185610362Y-101218036D01*
X185539005Y-100981136D01*
X185001777Y-100788035D01*
X184431546Y-100815222D01*
X184030995Y-100981136D01*
X183956861Y-101227255D01*
X184785000Y-102055395D01*
X184799142Y-102041252D01*
X184978748Y-102220858D01*
X184964605Y-102235000D01*
X184978748Y-102249143D01*
X184799142Y-102428748D01*
X184785000Y-102414605D01*
X183956861Y-103242745D01*
X184030995Y-103488864D01*
X184568223Y-103681965D01*
X185138454Y-103654778D01*
X185275000Y-103598219D01*
X185275000Y-107020198D01*
X184236000Y-108059198D01*
X183901584Y-107920337D01*
X183131793Y-107919665D01*
X182420342Y-108213630D01*
X181875543Y-108757479D01*
X181580337Y-109468416D01*
X181579665Y-110238207D01*
X181873630Y-110949658D01*
X182417479Y-111494457D01*
X183128416Y-111789663D01*
X183898207Y-111790335D01*
X184609658Y-111496370D01*
X185154457Y-110952521D01*
X185449663Y-110241584D01*
X185450335Y-109471793D01*
X185310774Y-109134028D01*
X186525000Y-107919802D01*
X186525000Y-108625000D01*
X186582852Y-108915839D01*
X186722810Y-109125302D01*
X186580337Y-109468416D01*
X186579665Y-110238207D01*
X186873630Y-110949658D01*
X187417479Y-111494457D01*
X188128416Y-111789663D01*
X188898207Y-111790335D01*
X189609658Y-111496370D01*
X190154457Y-110952521D01*
X190449663Y-110241584D01*
X190450335Y-109471793D01*
X190156370Y-108760342D01*
X189612521Y-108215543D01*
X188901584Y-107920337D01*
X188131793Y-107919665D01*
X188045000Y-107955527D01*
X188045000Y-103473646D01*
X188096800Y-103452243D01*
X188500824Y-103048923D01*
X188719750Y-102521691D01*
X188720248Y-101950813D01*
X188502243Y-101423200D01*
X188098923Y-101019176D01*
X187999931Y-100978071D01*
X188163321Y-100814681D01*
X188191639Y-100809048D01*
X188438201Y-100644301D01*
X196553457Y-92529045D01*
X196824275Y-92710000D01*
X196442189Y-92965302D01*
X196131120Y-93430849D01*
X196021887Y-93980000D01*
X196131120Y-94529151D01*
X196361003Y-94873195D01*
X193772599Y-97461599D01*
X193607852Y-97708161D01*
X193550000Y-97999000D01*
X193550000Y-108075352D01*
X193215342Y-108213630D01*
X192670543Y-108757479D01*
X192375337Y-109468416D01*
X192374665Y-110238207D01*
X192668630Y-110949658D01*
X193212479Y-111494457D01*
X193923416Y-111789663D01*
X194693207Y-111790335D01*
X195404658Y-111496370D01*
X195949457Y-110952521D01*
X196244663Y-110241584D01*
X196245335Y-109471793D01*
X195951370Y-108760342D01*
X195407521Y-108215543D01*
X195070000Y-108075392D01*
X195070000Y-103562191D01*
X195403223Y-103681965D01*
X195973454Y-103654778D01*
X196374005Y-103488864D01*
X196448139Y-103242745D01*
X195620000Y-102414605D01*
X195605858Y-102428748D01*
X195426253Y-102249143D01*
X195440395Y-102235000D01*
X195799605Y-102235000D01*
X196627745Y-103063139D01*
X196873864Y-102989005D01*
X196876196Y-102982517D01*
X196902757Y-103046800D01*
X197306077Y-103450824D01*
X197360000Y-103473215D01*
X197360000Y-108665000D01*
X197417852Y-108955839D01*
X197522897Y-109113051D01*
X197375337Y-109468416D01*
X197374665Y-110238207D01*
X197668630Y-110949658D01*
X198212479Y-111494457D01*
X198923416Y-111789663D01*
X199693207Y-111790335D01*
X200404658Y-111496370D01*
X200949457Y-110952521D01*
X201244663Y-110241584D01*
X201245335Y-109471793D01*
X200951370Y-108760342D01*
X200407521Y-108215543D01*
X199696584Y-107920337D01*
X198926793Y-107919665D01*
X198880000Y-107938999D01*
X198880000Y-103473646D01*
X198931800Y-103452243D01*
X199335824Y-103048923D01*
X199554750Y-102521691D01*
X199555248Y-101950813D01*
X199337243Y-101423200D01*
X198933923Y-101019176D01*
X198406691Y-100800250D01*
X197835813Y-100799752D01*
X197308200Y-101017757D01*
X196904176Y-101421077D01*
X196876577Y-101487544D01*
X196873864Y-101480995D01*
X196627745Y-101406861D01*
X195799605Y-102235000D01*
X195440395Y-102235000D01*
X195426253Y-102220858D01*
X195605858Y-102041252D01*
X195620000Y-102055395D01*
X196448139Y-101227255D01*
X196374005Y-100981136D01*
X195836777Y-100788035D01*
X195266546Y-100815222D01*
X195070000Y-100896634D01*
X195070000Y-98895000D01*
X211317560Y-98895000D01*
X211317560Y-100495000D01*
X211361838Y-100730317D01*
X211500910Y-100946441D01*
X211713110Y-101091431D01*
X211965000Y-101142440D01*
X213565000Y-101142440D01*
X213800317Y-101098162D01*
X214016441Y-100959090D01*
X214161431Y-100746890D01*
X214182680Y-100641959D01*
X214451077Y-100910824D01*
X214978309Y-101129750D01*
X215549187Y-101130248D01*
X216076800Y-100912243D01*
X216480824Y-100508923D01*
X216699750Y-99981691D01*
X216700248Y-99410813D01*
X216677951Y-99356851D01*
X220422401Y-95612401D01*
X220587148Y-95365839D01*
X220645000Y-95075000D01*
X220645000Y-89681437D01*
X220884515Y-89921371D01*
X221338266Y-90109785D01*
X221829579Y-90110214D01*
X222283657Y-89922592D01*
X222595946Y-89610848D01*
X224025677Y-91040579D01*
X223727914Y-90841621D01*
X223217032Y-90740000D01*
X222552968Y-90740000D01*
X222042086Y-90841621D01*
X221608980Y-91131012D01*
X221319589Y-91564118D01*
X221217968Y-92075000D01*
X221319589Y-92585882D01*
X221608980Y-93018988D01*
X222042086Y-93308379D01*
X222552968Y-93410000D01*
X223217032Y-93410000D01*
X223727914Y-93308379D01*
X224161020Y-93018988D01*
X224450411Y-92585882D01*
X224552032Y-92075000D01*
X224450411Y-91564118D01*
X224251453Y-91266355D01*
X224625000Y-91639902D01*
X224625000Y-98456354D01*
X224573200Y-98477757D01*
X224304417Y-98746072D01*
X224288162Y-98659683D01*
X224149090Y-98443559D01*
X223936890Y-98298569D01*
X223685000Y-98247560D01*
X222085000Y-98247560D01*
X221849683Y-98291838D01*
X221633559Y-98430910D01*
X221488569Y-98643110D01*
X221437560Y-98895000D01*
X221437560Y-100495000D01*
X221481838Y-100730317D01*
X221620910Y-100946441D01*
X221833110Y-101091431D01*
X222085000Y-101142440D01*
X223685000Y-101142440D01*
X223920317Y-101098162D01*
X224136441Y-100959090D01*
X224281431Y-100746890D01*
X224302680Y-100641959D01*
X224571077Y-100910824D01*
X225098309Y-101129750D01*
X225669187Y-101130248D01*
X226196800Y-100912243D01*
X226600824Y-100508923D01*
X226819750Y-99981691D01*
X226820248Y-99410813D01*
X226602243Y-98883200D01*
X226198923Y-98479176D01*
X226145000Y-98456785D01*
X226145000Y-91325100D01*
X226087148Y-91034261D01*
X225922401Y-90787699D01*
X223044702Y-87910000D01*
X223312000Y-87910000D01*
X223813215Y-87759778D01*
X224218790Y-87429185D01*
X224466980Y-86968550D01*
X224477716Y-86908329D01*
X224354374Y-86702000D01*
X223012000Y-86702000D01*
X223012000Y-86722000D01*
X222758000Y-86722000D01*
X222758000Y-86702000D01*
X222738000Y-86702000D01*
X222738000Y-86448000D01*
X222758000Y-86448000D01*
X222758000Y-85240000D01*
X223012000Y-85240000D01*
X223012000Y-86448000D01*
X224354374Y-86448000D01*
X224477716Y-86241671D01*
X224466980Y-86181450D01*
X224218790Y-85720815D01*
X223813215Y-85390222D01*
X223312000Y-85240000D01*
X223012000Y-85240000D01*
X222758000Y-85240000D01*
X222458000Y-85240000D01*
X221956785Y-85390222D01*
X221732359Y-85573157D01*
X221171501Y-85012299D01*
X220924939Y-84847552D01*
X220634100Y-84789700D01*
X215885000Y-84789700D01*
X215594161Y-84847552D01*
X215347599Y-85012299D01*
X215203767Y-85227560D01*
X214885000Y-85227560D01*
X214649683Y-85271838D01*
X214433559Y-85410910D01*
X214288569Y-85623110D01*
X214237560Y-85875000D01*
X214237560Y-87275000D01*
X214281838Y-87510317D01*
X214365163Y-87639808D01*
X214340421Y-87639786D01*
X213886343Y-87827408D01*
X213538629Y-88174515D01*
X213350215Y-88628266D01*
X213349786Y-89119579D01*
X213537408Y-89573657D01*
X213761363Y-89798004D01*
X213542086Y-89841621D01*
X213108980Y-90131012D01*
X212819589Y-90564118D01*
X212717968Y-91075000D01*
X212819589Y-91585882D01*
X213108980Y-92018988D01*
X213542086Y-92308379D01*
X214052968Y-92410000D01*
X214717032Y-92410000D01*
X215227914Y-92308379D01*
X215661020Y-92018988D01*
X215950411Y-91585882D01*
X216052032Y-91075000D01*
X215950411Y-90564118D01*
X215661020Y-90131012D01*
X215309896Y-89896399D01*
X215631371Y-89575485D01*
X215819785Y-89121734D01*
X215820214Y-88630421D01*
X215632592Y-88176343D01*
X215379132Y-87922440D01*
X216885000Y-87922440D01*
X217120317Y-87878162D01*
X217336441Y-87739090D01*
X217481431Y-87526890D01*
X217532440Y-87275000D01*
X217532440Y-86309700D01*
X218270740Y-86309700D01*
X218217968Y-86575000D01*
X218319589Y-87085882D01*
X218608980Y-87518988D01*
X219042086Y-87808379D01*
X219125000Y-87824872D01*
X219125000Y-94760198D01*
X215603454Y-98281744D01*
X215551691Y-98260250D01*
X214980813Y-98259752D01*
X214453200Y-98477757D01*
X214184417Y-98746072D01*
X214168162Y-98659683D01*
X214029090Y-98443559D01*
X213816890Y-98298569D01*
X213565000Y-98247560D01*
X211965000Y-98247560D01*
X211729683Y-98291838D01*
X211513559Y-98430910D01*
X211368569Y-98643110D01*
X211317560Y-98895000D01*
X195070000Y-98895000D01*
X195070000Y-98313802D01*
X196216593Y-97167209D01*
X196253959Y-97257423D01*
X196629866Y-97672389D01*
X197135959Y-97911914D01*
X197358000Y-97790629D01*
X197358000Y-96647000D01*
X197612000Y-96647000D01*
X197612000Y-97790629D01*
X197834041Y-97911914D01*
X198340134Y-97672389D01*
X198716041Y-97257423D01*
X198876904Y-96869039D01*
X198754915Y-96647000D01*
X197612000Y-96647000D01*
X197358000Y-96647000D01*
X197338000Y-96647000D01*
X197338000Y-96393000D01*
X197358000Y-96393000D01*
X197358000Y-96373000D01*
X197612000Y-96373000D01*
X197612000Y-96393000D01*
X198754915Y-96393000D01*
X198876904Y-96170961D01*
X198716041Y-95782577D01*
X198340134Y-95367611D01*
X198205498Y-95303890D01*
X198227022Y-95195679D01*
X198527811Y-94994698D01*
X198838880Y-94529151D01*
X198948113Y-93980000D01*
X198838880Y-93430849D01*
X198527811Y-92965302D01*
X198145725Y-92710000D01*
X198527811Y-92454698D01*
X198838880Y-91989151D01*
X198883628Y-91764187D01*
X199859752Y-91764187D01*
X200077757Y-92291800D01*
X200481077Y-92695824D01*
X200562931Y-92729813D01*
X200483200Y-92762757D01*
X200079176Y-93166077D01*
X199860250Y-93693309D01*
X199859752Y-94264187D01*
X200077757Y-94791800D01*
X200481077Y-95195824D01*
X201008309Y-95414750D01*
X201579187Y-95415248D01*
X202106800Y-95197243D01*
X202510824Y-94793923D01*
X202729750Y-94266691D01*
X202730248Y-93695813D01*
X202512243Y-93168200D01*
X202108923Y-92764176D01*
X202027069Y-92730187D01*
X202106800Y-92697243D01*
X202510824Y-92293923D01*
X202729750Y-91766691D01*
X202730248Y-91195813D01*
X202512243Y-90668200D01*
X202108923Y-90264176D01*
X201581691Y-90045250D01*
X201010813Y-90044752D01*
X200483200Y-90262757D01*
X200079176Y-90666077D01*
X199860250Y-91193309D01*
X199859752Y-91764187D01*
X198883628Y-91764187D01*
X198948113Y-91440000D01*
X198838880Y-90890849D01*
X198589731Y-90517971D01*
X200417801Y-88689901D01*
X200582548Y-88443339D01*
X200640400Y-88152500D01*
X200640400Y-79981981D01*
X201008309Y-80134750D01*
X201579187Y-80135248D01*
X202106800Y-79917243D01*
X202510824Y-79513923D01*
X202729750Y-78986691D01*
X202730248Y-78415813D01*
X202512243Y-77888200D01*
X202108923Y-77484176D01*
X202027069Y-77450187D01*
X202106800Y-77417243D01*
X202510824Y-77013923D01*
X202729750Y-76486691D01*
X202730248Y-75915813D01*
X202512243Y-75388200D01*
X202108923Y-74984176D01*
X201581691Y-74765250D01*
X201010813Y-74764752D01*
X200483200Y-74982757D01*
X200079176Y-75386077D01*
X199860250Y-75913309D01*
X199859752Y-76484187D01*
X199882049Y-76538149D01*
X199342999Y-77077199D01*
X199178252Y-77323761D01*
X199120400Y-77614600D01*
X199120400Y-87837698D01*
X198739319Y-88218779D01*
X198716041Y-88162577D01*
X198340134Y-87747611D01*
X198091633Y-87630000D01*
X198340134Y-87512389D01*
X198716041Y-87097423D01*
X198876904Y-86709039D01*
X198754915Y-86487000D01*
X197612000Y-86487000D01*
X197612000Y-88773000D01*
X197632000Y-88773000D01*
X197632000Y-89027000D01*
X197612000Y-89027000D01*
X197612000Y-89047000D01*
X197358000Y-89047000D01*
X197358000Y-89027000D01*
X197338000Y-89027000D01*
X197338000Y-88773000D01*
X197358000Y-88773000D01*
X197358000Y-86487000D01*
X197338000Y-86487000D01*
X197338000Y-86233000D01*
X197358000Y-86233000D01*
X197358000Y-86213000D01*
X197612000Y-86213000D01*
X197612000Y-86233000D01*
X198754915Y-86233000D01*
X198876904Y-86010961D01*
X198716041Y-85622577D01*
X198340134Y-85207611D01*
X198205498Y-85143890D01*
X198227022Y-85035679D01*
X198527811Y-84834698D01*
X198838880Y-84369151D01*
X198948113Y-83820000D01*
X198838880Y-83270849D01*
X198527811Y-82805302D01*
X198245000Y-82616333D01*
X198245000Y-82483667D01*
X198527811Y-82294698D01*
X198838880Y-81829151D01*
X198948113Y-81280000D01*
X198838880Y-80730849D01*
X198527811Y-80265302D01*
X198145725Y-80010000D01*
X198527811Y-79754698D01*
X198838880Y-79289151D01*
X198948113Y-78740000D01*
X198838880Y-78190849D01*
X198527811Y-77725302D01*
X198145725Y-77470000D01*
X198527811Y-77214698D01*
X198838880Y-76749151D01*
X198948113Y-76200000D01*
X198838880Y-75650849D01*
X198527811Y-75185302D01*
X198123297Y-74915014D01*
X198340134Y-74812389D01*
X198716041Y-74397423D01*
X198876904Y-74009039D01*
X198754915Y-73787000D01*
X197612000Y-73787000D01*
X197612000Y-73807000D01*
X197358000Y-73807000D01*
X197358000Y-73787000D01*
X196215085Y-73787000D01*
X196093096Y-74009039D01*
X196253959Y-74397423D01*
X196629866Y-74812389D01*
X196846703Y-74915014D01*
X196442189Y-75185302D01*
X196131120Y-75650849D01*
X196021887Y-76200000D01*
X196131120Y-76749151D01*
X196442189Y-77214698D01*
X196824275Y-77470000D01*
X196442189Y-77725302D01*
X196131120Y-78190849D01*
X196021887Y-78740000D01*
X196131120Y-79289151D01*
X196442189Y-79754698D01*
X196824275Y-80010000D01*
X196442189Y-80265302D01*
X196317305Y-80452203D01*
X191527701Y-75662599D01*
X191281139Y-75497852D01*
X191091437Y-75460118D01*
X190907811Y-75185302D01*
X190763535Y-75088899D01*
X190900317Y-75063162D01*
X191116441Y-74924090D01*
X191261431Y-74711890D01*
X191312440Y-74460000D01*
X191312440Y-73310961D01*
X196093096Y-73310961D01*
X196215085Y-73533000D01*
X197358000Y-73533000D01*
X197358000Y-72389371D01*
X197612000Y-72389371D01*
X197612000Y-73533000D01*
X198754915Y-73533000D01*
X198876904Y-73310961D01*
X198716041Y-72922577D01*
X198340134Y-72507611D01*
X197834041Y-72268086D01*
X197612000Y-72389371D01*
X197358000Y-72389371D01*
X197135959Y-72268086D01*
X196629866Y-72507611D01*
X196253959Y-72922577D01*
X196093096Y-73310961D01*
X191312440Y-73310961D01*
X191312440Y-72860000D01*
X191268162Y-72624683D01*
X191129090Y-72408559D01*
X190916890Y-72263569D01*
X190665000Y-72212560D01*
X189065000Y-72212560D01*
X188829683Y-72256838D01*
X188613559Y-72395910D01*
X188468569Y-72608110D01*
X188417560Y-72860000D01*
X188417560Y-74460000D01*
X188461838Y-74695317D01*
X188600910Y-74911441D01*
X188813110Y-75056431D01*
X188968089Y-75087815D01*
X188822189Y-75185302D01*
X188511120Y-75650849D01*
X188401887Y-76200000D01*
X188511120Y-76749151D01*
X188822189Y-77214698D01*
X189204275Y-77470000D01*
X188822189Y-77725302D01*
X188584633Y-78080830D01*
X185780084Y-75276281D01*
X186061371Y-74995485D01*
X186249785Y-74541734D01*
X186250214Y-74050421D01*
X186062592Y-73596343D01*
X185715485Y-73248629D01*
X185261734Y-73060215D01*
X184770421Y-73059786D01*
X184483586Y-73178304D01*
X184366890Y-73098569D01*
X184115000Y-73047560D01*
X182915000Y-73047560D01*
X182679683Y-73091838D01*
X182463559Y-73230910D01*
X182318569Y-73443110D01*
X182267560Y-73695000D01*
X182267560Y-74895000D01*
X182311838Y-75130317D01*
X182450910Y-75346441D01*
X182663110Y-75491431D01*
X182915000Y-75542440D01*
X184115000Y-75542440D01*
X184255000Y-75516097D01*
X184255000Y-75586000D01*
X184312852Y-75876839D01*
X184477599Y-76123401D01*
X188741003Y-80386806D01*
X188511120Y-80730849D01*
X188401887Y-81280000D01*
X188511120Y-81829151D01*
X188822189Y-82294698D01*
X189204275Y-82550000D01*
X188822189Y-82805302D01*
X188652005Y-83060000D01*
X187869802Y-83060000D01*
X186249861Y-81440059D01*
X186250214Y-81035421D01*
X186062592Y-80581343D01*
X185715485Y-80233629D01*
X185261734Y-80045215D01*
X184770421Y-80044786D01*
X184483586Y-80163304D01*
X184366890Y-80083569D01*
X184115000Y-80032560D01*
X182915000Y-80032560D01*
X182679683Y-80076838D01*
X182463559Y-80215910D01*
X182318569Y-80428110D01*
X182267560Y-80680000D01*
X182267560Y-81880000D01*
X182311838Y-82115317D01*
X182450910Y-82331441D01*
X182663110Y-82476431D01*
X182915000Y-82527440D01*
X184115000Y-82527440D01*
X184350317Y-82483162D01*
X184484370Y-82396901D01*
X184768266Y-82514785D01*
X185175338Y-82515140D01*
X187017599Y-84357401D01*
X187264160Y-84522148D01*
X187312414Y-84531746D01*
X187555000Y-84580000D01*
X188652005Y-84580000D01*
X188822189Y-84834698D01*
X189204275Y-85090000D01*
X188822189Y-85345302D01*
X188652005Y-85600000D01*
X187615300Y-85600000D01*
X187324461Y-85657852D01*
X187077899Y-85822599D01*
X185752759Y-87147739D01*
X185636890Y-87068569D01*
X185385000Y-87017560D01*
X184185000Y-87017560D01*
X183949683Y-87061838D01*
X183822364Y-87143766D01*
X183453964Y-87017193D01*
X182963587Y-87047518D01*
X182651383Y-87176836D01*
X182601870Y-87402265D01*
X183285000Y-88085395D01*
X183299143Y-88071253D01*
X183478748Y-88250858D01*
X183464605Y-88265000D01*
X183478748Y-88279143D01*
X183299143Y-88458748D01*
X183285000Y-88444605D01*
X182601870Y-89127735D01*
X182651383Y-89353164D01*
X183116036Y-89512807D01*
X183606413Y-89482482D01*
X183828990Y-89390289D01*
X183933110Y-89461431D01*
X184185000Y-89512440D01*
X185028158Y-89512440D01*
X177493814Y-97046784D01*
X177449174Y-97028248D01*
X176883309Y-97027754D01*
X176360328Y-97243845D01*
X175959851Y-97643623D01*
X175742848Y-98166226D01*
X175742354Y-98732091D01*
X141791760Y-98732091D01*
X142042839Y-98682148D01*
X142289401Y-98517401D01*
X145275111Y-95531691D01*
X175742354Y-95531691D01*
X175958445Y-96054672D01*
X176358223Y-96455149D01*
X176880826Y-96672152D01*
X177446691Y-96672646D01*
X177969672Y-96456555D01*
X178370149Y-96056777D01*
X178587152Y-95534174D01*
X178587646Y-94968309D01*
X178371555Y-94445328D01*
X177971777Y-94044851D01*
X177449174Y-93827848D01*
X176883309Y-93827354D01*
X176360328Y-94043445D01*
X175959851Y-94443223D01*
X175742848Y-94965826D01*
X175742354Y-95531691D01*
X145275111Y-95531691D01*
X146454057Y-94352745D01*
X157326861Y-94352745D01*
X157400995Y-94598864D01*
X157938223Y-94791965D01*
X158508454Y-94764778D01*
X158909005Y-94598864D01*
X158983139Y-94352745D01*
X158155000Y-93524605D01*
X157326861Y-94352745D01*
X146454057Y-94352745D01*
X147678579Y-93128223D01*
X156708035Y-93128223D01*
X156735222Y-93698454D01*
X156901136Y-94099005D01*
X157147255Y-94173139D01*
X157975395Y-93345000D01*
X157147255Y-92516861D01*
X156901136Y-92590995D01*
X156708035Y-93128223D01*
X147678579Y-93128223D01*
X148469547Y-92337255D01*
X157326861Y-92337255D01*
X158155000Y-93165395D01*
X158983139Y-92337255D01*
X158909005Y-92091136D01*
X158371777Y-91898035D01*
X157801546Y-91925222D01*
X157400995Y-92091136D01*
X157326861Y-92337255D01*
X148469547Y-92337255D01*
X149012801Y-91794001D01*
X149177548Y-91547440D01*
X149198919Y-91440000D01*
X149235400Y-91256600D01*
X149235400Y-88614039D01*
X151643096Y-88614039D01*
X151803959Y-89002423D01*
X152179866Y-89417389D01*
X152685959Y-89656914D01*
X152908000Y-89535629D01*
X152908000Y-88392000D01*
X153162000Y-88392000D01*
X153162000Y-89535629D01*
X153384041Y-89656914D01*
X153890134Y-89417389D01*
X154266041Y-89002423D01*
X154426904Y-88614039D01*
X154304915Y-88392000D01*
X153162000Y-88392000D01*
X152908000Y-88392000D01*
X151765085Y-88392000D01*
X151643096Y-88614039D01*
X149235400Y-88614039D01*
X149235400Y-82681600D01*
X149177548Y-82390761D01*
X149012801Y-82144199D01*
X148429097Y-81560495D01*
X148562837Y-81360339D01*
X151197822Y-83995324D01*
X151207552Y-84044239D01*
X151372299Y-84290801D01*
X151911924Y-84830426D01*
X151681120Y-85175849D01*
X151571887Y-85725000D01*
X151681120Y-86274151D01*
X151992189Y-86739698D01*
X152396703Y-87009986D01*
X152179866Y-87112611D01*
X151803959Y-87527577D01*
X151643096Y-87915961D01*
X151765085Y-88138000D01*
X152908000Y-88138000D01*
X152908000Y-88118000D01*
X153162000Y-88118000D01*
X153162000Y-88138000D01*
X154304915Y-88138000D01*
X154426904Y-87915961D01*
X154266041Y-87527577D01*
X153890134Y-87112611D01*
X153673297Y-87009986D01*
X154077811Y-86739698D01*
X154388880Y-86274151D01*
X154498113Y-85725000D01*
X154388880Y-85175849D01*
X154077811Y-84710302D01*
X153777022Y-84509321D01*
X153757947Y-84413424D01*
X154077811Y-84199698D01*
X154388880Y-83734151D01*
X154498113Y-83185000D01*
X154388880Y-82635849D01*
X154077811Y-82170302D01*
X153777022Y-81969321D01*
X153757947Y-81873424D01*
X154077811Y-81659698D01*
X154388880Y-81194151D01*
X154498113Y-80645000D01*
X154388880Y-80095849D01*
X154077811Y-79630302D01*
X153695725Y-79375000D01*
X154077811Y-79119698D01*
X154388880Y-78654151D01*
X154498113Y-78105000D01*
X154388880Y-77555849D01*
X154077811Y-77090302D01*
X153777022Y-76889321D01*
X153755498Y-76781110D01*
X153890134Y-76717389D01*
X154266041Y-76302423D01*
X154426904Y-75914039D01*
X154304915Y-75692000D01*
X153162000Y-75692000D01*
X153162000Y-75712000D01*
X152908000Y-75712000D01*
X152908000Y-75692000D01*
X152888000Y-75692000D01*
X152888000Y-75438000D01*
X152908000Y-75438000D01*
X152908000Y-75418000D01*
X153162000Y-75418000D01*
X153162000Y-75438000D01*
X154304915Y-75438000D01*
X154426904Y-75215961D01*
X154266041Y-74827577D01*
X153890134Y-74412611D01*
X153673297Y-74309986D01*
X153937050Y-74133752D01*
X159540656Y-79737358D01*
X159301120Y-80095849D01*
X159191887Y-80645000D01*
X159301120Y-81194151D01*
X159612189Y-81659698D01*
X159994275Y-81915000D01*
X159612189Y-82170302D01*
X159301120Y-82635849D01*
X159191887Y-83185000D01*
X159301120Y-83734151D01*
X159612189Y-84199698D01*
X159994275Y-84455000D01*
X159612189Y-84710302D01*
X159301120Y-85175849D01*
X159191887Y-85725000D01*
X159301120Y-86274151D01*
X159531003Y-86618195D01*
X158988299Y-87160899D01*
X158823552Y-87407461D01*
X158765700Y-87698300D01*
X158765700Y-88775600D01*
X158823552Y-89066439D01*
X158988299Y-89313001D01*
X163029991Y-93354693D01*
X163029752Y-93629187D01*
X163079134Y-93748700D01*
X162133502Y-93748700D01*
X162068256Y-93683454D01*
X162089750Y-93631691D01*
X162090248Y-93060813D01*
X161872243Y-92533200D01*
X161468923Y-92129176D01*
X160941691Y-91910250D01*
X160370813Y-91909752D01*
X159843200Y-92127757D01*
X159439176Y-92531077D01*
X159411577Y-92597544D01*
X159408864Y-92590995D01*
X159162745Y-92516861D01*
X158334605Y-93345000D01*
X159162745Y-94173139D01*
X159408864Y-94099005D01*
X159411196Y-94092517D01*
X159437757Y-94156800D01*
X159841077Y-94560824D01*
X160368309Y-94779750D01*
X160939187Y-94780248D01*
X160993149Y-94757951D01*
X161281299Y-95046101D01*
X161527860Y-95210848D01*
X161818700Y-95268700D01*
X164953900Y-95268700D01*
X165244739Y-95210848D01*
X165491301Y-95046101D01*
X166147925Y-94389477D01*
X166210995Y-94598864D01*
X166748223Y-94791965D01*
X167318454Y-94764778D01*
X167719005Y-94598864D01*
X167793139Y-94352745D01*
X166965000Y-93524605D01*
X166950858Y-93538748D01*
X166771253Y-93359143D01*
X166785395Y-93345000D01*
X167144605Y-93345000D01*
X167972745Y-94173139D01*
X168218864Y-94099005D01*
X168411965Y-93561777D01*
X168384778Y-92991546D01*
X168218864Y-92590995D01*
X167972745Y-92516861D01*
X167144605Y-93345000D01*
X166785395Y-93345000D01*
X166771253Y-93330858D01*
X166950858Y-93151252D01*
X166965000Y-93165395D01*
X167793139Y-92337255D01*
X167719005Y-92091136D01*
X167181777Y-91898035D01*
X166611546Y-91925222D01*
X166369231Y-92025592D01*
X166328348Y-91820061D01*
X166163601Y-91573499D01*
X164760102Y-90170000D01*
X166811887Y-90170000D01*
X166921120Y-90719151D01*
X167232189Y-91184698D01*
X167697736Y-91495767D01*
X168246887Y-91605000D01*
X168303113Y-91605000D01*
X168852264Y-91495767D01*
X169317811Y-91184698D01*
X169628880Y-90719151D01*
X169738113Y-90170000D01*
X169628880Y-89620849D01*
X169317811Y-89155302D01*
X168852264Y-88844233D01*
X168303113Y-88735000D01*
X168246887Y-88735000D01*
X167697736Y-88844233D01*
X167232189Y-89155302D01*
X166921120Y-89620849D01*
X166811887Y-90170000D01*
X164760102Y-90170000D01*
X162714452Y-88124350D01*
X166994632Y-83844170D01*
X167232189Y-84199698D01*
X167515000Y-84388667D01*
X167515000Y-84521333D01*
X167232189Y-84710302D01*
X166921120Y-85175849D01*
X166811887Y-85725000D01*
X166921120Y-86274151D01*
X167232189Y-86739698D01*
X167697736Y-87050767D01*
X168246887Y-87160000D01*
X168303113Y-87160000D01*
X168852264Y-87050767D01*
X169317811Y-86739698D01*
X169628880Y-86274151D01*
X169738113Y-85725000D01*
X169628880Y-85175849D01*
X169317811Y-84710302D01*
X169035000Y-84521333D01*
X169035000Y-84388667D01*
X169317811Y-84199698D01*
X169628880Y-83734151D01*
X169738113Y-83185000D01*
X169628880Y-82635849D01*
X169379691Y-82262911D01*
X169978501Y-81664101D01*
X170143248Y-81417539D01*
X170201100Y-81126700D01*
X170201100Y-80645000D01*
X174431887Y-80645000D01*
X174541120Y-81194151D01*
X174852189Y-81659698D01*
X175234275Y-81915000D01*
X174852189Y-82170302D01*
X174541120Y-82635849D01*
X174431887Y-83185000D01*
X174541120Y-83734151D01*
X174852189Y-84199698D01*
X175135000Y-84388667D01*
X175135000Y-84521333D01*
X174852189Y-84710302D01*
X174541120Y-85175849D01*
X174431887Y-85725000D01*
X174541120Y-86274151D01*
X174852189Y-86739698D01*
X175135000Y-86928667D01*
X175135000Y-88931354D01*
X175083200Y-88952757D01*
X174679176Y-89356077D01*
X174460250Y-89883309D01*
X174459752Y-90454187D01*
X174677757Y-90981800D01*
X175081077Y-91385824D01*
X175608309Y-91604750D01*
X176179187Y-91605248D01*
X176706800Y-91387243D01*
X177110824Y-90983923D01*
X177329750Y-90456691D01*
X177330248Y-89885813D01*
X177112243Y-89358200D01*
X176708923Y-88954176D01*
X176655000Y-88931785D01*
X176655000Y-88096036D01*
X182037193Y-88096036D01*
X182067518Y-88586413D01*
X182196836Y-88898617D01*
X182422265Y-88948130D01*
X183105395Y-88265000D01*
X182422265Y-87581870D01*
X182196836Y-87631383D01*
X182037193Y-88096036D01*
X176655000Y-88096036D01*
X176655000Y-86928667D01*
X176937811Y-86739698D01*
X177248880Y-86274151D01*
X177358113Y-85725000D01*
X177248880Y-85175849D01*
X176937811Y-84710302D01*
X176655000Y-84521333D01*
X176655000Y-84388667D01*
X176937811Y-84199698D01*
X177248880Y-83734151D01*
X177358113Y-83185000D01*
X177248880Y-82635849D01*
X176937811Y-82170302D01*
X176555725Y-81915000D01*
X176937811Y-81659698D01*
X177248880Y-81194151D01*
X177358113Y-80645000D01*
X177248880Y-80095849D01*
X176937811Y-79630302D01*
X176533297Y-79360014D01*
X176750134Y-79257389D01*
X177126041Y-78842423D01*
X177286904Y-78454039D01*
X177164915Y-78232000D01*
X176022000Y-78232000D01*
X176022000Y-78252000D01*
X175768000Y-78252000D01*
X175768000Y-78232000D01*
X174625085Y-78232000D01*
X174503096Y-78454039D01*
X174663959Y-78842423D01*
X175039866Y-79257389D01*
X175256703Y-79360014D01*
X174852189Y-79630302D01*
X174541120Y-80095849D01*
X174431887Y-80645000D01*
X170201100Y-80645000D01*
X170201100Y-77575100D01*
X170143248Y-77284261D01*
X169978501Y-77037699D01*
X169398997Y-76458195D01*
X169628880Y-76114151D01*
X169738113Y-75565000D01*
X169628880Y-75015849D01*
X169317811Y-74550302D01*
X168935725Y-74295000D01*
X169317811Y-74039698D01*
X169628880Y-73574151D01*
X169738113Y-73025000D01*
X169628880Y-72475849D01*
X169558354Y-72370300D01*
X173644400Y-72370300D01*
X173935239Y-72312448D01*
X174181801Y-72147701D01*
X174843223Y-71486279D01*
X174852189Y-71499698D01*
X175234275Y-71755000D01*
X174852189Y-72010302D01*
X174541120Y-72475849D01*
X174431887Y-73025000D01*
X174541120Y-73574151D01*
X174852189Y-74039698D01*
X175172053Y-74253424D01*
X175152978Y-74349321D01*
X174852189Y-74550302D01*
X174541120Y-75015849D01*
X174431887Y-75565000D01*
X174541120Y-76114151D01*
X174852189Y-76579698D01*
X175256703Y-76849986D01*
X175039866Y-76952611D01*
X174663959Y-77367577D01*
X174503096Y-77755961D01*
X174625085Y-77978000D01*
X175768000Y-77978000D01*
X175768000Y-77958000D01*
X176022000Y-77958000D01*
X176022000Y-77978000D01*
X177164915Y-77978000D01*
X177286904Y-77755961D01*
X177126041Y-77367577D01*
X176750134Y-76952611D01*
X176533297Y-76849986D01*
X176937811Y-76579698D01*
X177248880Y-76114151D01*
X177358113Y-75565000D01*
X177248880Y-75015849D01*
X177018997Y-74671805D01*
X183417401Y-68273401D01*
X183582148Y-68026840D01*
X183607693Y-67898413D01*
X183715317Y-67878162D01*
X183931441Y-67739090D01*
X184076431Y-67526890D01*
X184127440Y-67275000D01*
X184127440Y-66075000D01*
X184083162Y-65839683D01*
X184001234Y-65712364D01*
X184127807Y-65343964D01*
X184097482Y-64853587D01*
X183968164Y-64541383D01*
X183742735Y-64491870D01*
X183059605Y-65175000D01*
X183073748Y-65189143D01*
X182894143Y-65368748D01*
X182880000Y-65354605D01*
X182865858Y-65368748D01*
X182686253Y-65189143D01*
X182700395Y-65175000D01*
X182017265Y-64491870D01*
X181791836Y-64541383D01*
X181632193Y-65006036D01*
X181662518Y-65496413D01*
X181754711Y-65718990D01*
X181683569Y-65823110D01*
X181632560Y-66075000D01*
X181632560Y-67275000D01*
X181676838Y-67510317D01*
X181815459Y-67725739D01*
X177175368Y-72365830D01*
X176937811Y-72010302D01*
X176555725Y-71755000D01*
X176937811Y-71499698D01*
X177248880Y-71034151D01*
X177358113Y-70485000D01*
X177248880Y-69935849D01*
X176937811Y-69470302D01*
X176472264Y-69159233D01*
X175923113Y-69050000D01*
X175866887Y-69050000D01*
X175317736Y-69159233D01*
X174852189Y-69470302D01*
X174668563Y-69745118D01*
X174478861Y-69782852D01*
X174232299Y-69947599D01*
X173329598Y-70850300D01*
X169722440Y-70850300D01*
X169722440Y-69685000D01*
X169678162Y-69449683D01*
X169539090Y-69233559D01*
X169326890Y-69088569D01*
X169075000Y-69037560D01*
X167475000Y-69037560D01*
X167239683Y-69081838D01*
X167023559Y-69220910D01*
X166878569Y-69433110D01*
X166827560Y-69685000D01*
X166827560Y-71285000D01*
X166871838Y-71520317D01*
X166925495Y-71603703D01*
X161542603Y-76986595D01*
X161315725Y-76835000D01*
X161697811Y-76579698D01*
X162008880Y-76114151D01*
X162118113Y-75565000D01*
X162008880Y-75015849D01*
X161697811Y-74550302D01*
X161315725Y-74295000D01*
X161697811Y-74039698D01*
X162008880Y-73574151D01*
X162118113Y-73025000D01*
X162008880Y-72475849D01*
X161697811Y-72010302D01*
X161293297Y-71740014D01*
X161510134Y-71637389D01*
X161886041Y-71222423D01*
X162046904Y-70834039D01*
X161924915Y-70612000D01*
X160782000Y-70612000D01*
X160782000Y-70632000D01*
X160528000Y-70632000D01*
X160528000Y-70612000D01*
X159385085Y-70612000D01*
X159263096Y-70834039D01*
X159423959Y-71222423D01*
X159799866Y-71637389D01*
X160016703Y-71740014D01*
X159612189Y-72010302D01*
X159301120Y-72475849D01*
X159191887Y-73025000D01*
X159301120Y-73574151D01*
X159612189Y-74039698D01*
X159994275Y-74295000D01*
X159612189Y-74550302D01*
X159301120Y-75015849D01*
X159191887Y-75565000D01*
X159301120Y-76114151D01*
X159612189Y-76579698D01*
X159994275Y-76835000D01*
X159612189Y-77090302D01*
X159384285Y-77431383D01*
X154920300Y-72967398D01*
X154920300Y-72454200D01*
X154862448Y-72163361D01*
X154697701Y-71916799D01*
X154385303Y-71604401D01*
X154431431Y-71536890D01*
X154482440Y-71285000D01*
X154482440Y-70674962D01*
X155021441Y-70135961D01*
X159263096Y-70135961D01*
X159385085Y-70358000D01*
X160528000Y-70358000D01*
X160528000Y-69214371D01*
X160782000Y-69214371D01*
X160782000Y-70358000D01*
X161924915Y-70358000D01*
X162046904Y-70135961D01*
X161886041Y-69747577D01*
X161510134Y-69332611D01*
X161004041Y-69093086D01*
X160782000Y-69214371D01*
X160528000Y-69214371D01*
X160305959Y-69093086D01*
X159799866Y-69332611D01*
X159423959Y-69747577D01*
X159263096Y-70135961D01*
X155021441Y-70135961D01*
X156747401Y-68410001D01*
X156912148Y-68163439D01*
X156970000Y-67872600D01*
X156970000Y-65987334D01*
X157045317Y-65973162D01*
X157172636Y-65891234D01*
X157541036Y-66017807D01*
X158031413Y-65987482D01*
X158343617Y-65858164D01*
X158393130Y-65632735D01*
X157710000Y-64949605D01*
X157695858Y-64963748D01*
X157516253Y-64784143D01*
X157530395Y-64770000D01*
X157889605Y-64770000D01*
X158572735Y-65453130D01*
X158798164Y-65403617D01*
X158957807Y-64938964D01*
X158927482Y-64448587D01*
X158798164Y-64136383D01*
X158572735Y-64086870D01*
X157889605Y-64770000D01*
X157530395Y-64770000D01*
X157516253Y-64755858D01*
X157695858Y-64576253D01*
X157710000Y-64590395D01*
X158393130Y-63907265D01*
X158343617Y-63681836D01*
X157878964Y-63522193D01*
X157388587Y-63552518D01*
X157166010Y-63644711D01*
X157061890Y-63573569D01*
X156903945Y-63541584D01*
X156747401Y-63307299D01*
X155505102Y-62065000D01*
X169367560Y-62065000D01*
X169367560Y-63665000D01*
X169411838Y-63900317D01*
X169550910Y-64116441D01*
X169763110Y-64261431D01*
X170015000Y-64312440D01*
X171615000Y-64312440D01*
X171615930Y-64312265D01*
X182196870Y-64312265D01*
X182880000Y-64995395D01*
X183563130Y-64312265D01*
X183513617Y-64086836D01*
X183048964Y-63927193D01*
X182558587Y-63957518D01*
X182246383Y-64086836D01*
X182196870Y-64312265D01*
X171615930Y-64312265D01*
X171850317Y-64268162D01*
X172066441Y-64129090D01*
X172211431Y-63916890D01*
X172220370Y-63872745D01*
X172486861Y-63872745D01*
X172560995Y-64118864D01*
X173098223Y-64311965D01*
X173668454Y-64284778D01*
X174069005Y-64118864D01*
X174143139Y-63872745D01*
X173315000Y-63044605D01*
X172486861Y-63872745D01*
X172220370Y-63872745D01*
X172259646Y-63678799D01*
X172307255Y-63693139D01*
X173135395Y-62865000D01*
X173494605Y-62865000D01*
X174322745Y-63693139D01*
X174568864Y-63619005D01*
X174761965Y-63081777D01*
X174734778Y-62511546D01*
X174568864Y-62110995D01*
X174322745Y-62036861D01*
X173494605Y-62865000D01*
X173135395Y-62865000D01*
X172307255Y-62036861D01*
X172259833Y-62051145D01*
X172223351Y-61857255D01*
X172486861Y-61857255D01*
X173315000Y-62685395D01*
X174143139Y-61857255D01*
X174069005Y-61611136D01*
X173531777Y-61418035D01*
X172961546Y-61445222D01*
X172560995Y-61611136D01*
X172486861Y-61857255D01*
X172223351Y-61857255D01*
X172218162Y-61829683D01*
X172079090Y-61613559D01*
X171866890Y-61468569D01*
X171615000Y-61417560D01*
X170015000Y-61417560D01*
X169779683Y-61461838D01*
X169563559Y-61600910D01*
X169418569Y-61813110D01*
X169367560Y-62065000D01*
X155505102Y-62065000D01*
X152243309Y-58803207D01*
X184754665Y-58803207D01*
X185048630Y-59514658D01*
X185592479Y-60059457D01*
X186303416Y-60354663D01*
X187073207Y-60355335D01*
X187410972Y-60215774D01*
X200122599Y-72927401D01*
X200369160Y-73092148D01*
X200401441Y-73098569D01*
X200660000Y-73150000D01*
X204292560Y-73150000D01*
X204292560Y-73190000D01*
X204336838Y-73425317D01*
X204475910Y-73641441D01*
X204688110Y-73786431D01*
X204940000Y-73837440D01*
X206540000Y-73837440D01*
X206775317Y-73793162D01*
X206991441Y-73654090D01*
X207136431Y-73441890D01*
X207145370Y-73397745D01*
X207411861Y-73397745D01*
X207485995Y-73643864D01*
X208023223Y-73836965D01*
X208593454Y-73809778D01*
X208994005Y-73643864D01*
X209068139Y-73397745D01*
X208240000Y-72569605D01*
X207411861Y-73397745D01*
X207145370Y-73397745D01*
X207184646Y-73203799D01*
X207232255Y-73218139D01*
X208060395Y-72390000D01*
X208419605Y-72390000D01*
X209247745Y-73218139D01*
X209493864Y-73144005D01*
X209686965Y-72606777D01*
X209659778Y-72036546D01*
X209493864Y-71635995D01*
X209247745Y-71561861D01*
X208419605Y-72390000D01*
X208060395Y-72390000D01*
X207232255Y-71561861D01*
X207184833Y-71576145D01*
X207148351Y-71382255D01*
X207411861Y-71382255D01*
X208240000Y-72210395D01*
X209068139Y-71382255D01*
X208994005Y-71136136D01*
X208456777Y-70943035D01*
X207886546Y-70970222D01*
X207485995Y-71136136D01*
X207411861Y-71382255D01*
X207148351Y-71382255D01*
X207143162Y-71354683D01*
X207004090Y-71138559D01*
X206791890Y-70993569D01*
X206540000Y-70942560D01*
X204940000Y-70942560D01*
X204704683Y-70986838D01*
X204488559Y-71125910D01*
X204343569Y-71338110D01*
X204292560Y-71590000D01*
X204292560Y-71630000D01*
X200974802Y-71630000D01*
X189699811Y-60355009D01*
X190073207Y-60355335D01*
X190784658Y-60061370D01*
X191329457Y-59517521D01*
X191624663Y-58806584D01*
X191625335Y-58036793D01*
X191370482Y-57420000D01*
X205997560Y-57420000D01*
X205997560Y-59420000D01*
X206041838Y-59655317D01*
X206180910Y-59871441D01*
X206393110Y-60016431D01*
X206645000Y-60067440D01*
X206885000Y-60067440D01*
X206885000Y-67970800D01*
X206942852Y-68261639D01*
X207107599Y-68508201D01*
X215740584Y-77141186D01*
X215722048Y-77185826D01*
X215721554Y-77751691D01*
X215937645Y-78274672D01*
X216337423Y-78675149D01*
X216860026Y-78892152D01*
X217425891Y-78892646D01*
X217948872Y-78676555D01*
X218349349Y-78276777D01*
X218566352Y-77754174D01*
X218566846Y-77188309D01*
X218350755Y-76665328D01*
X217950977Y-76264851D01*
X217428374Y-76047848D01*
X216862509Y-76047354D01*
X216815698Y-76066696D01*
X208405000Y-67655998D01*
X208405000Y-63325750D01*
X215800000Y-63325750D01*
X215800000Y-64916309D01*
X215896673Y-65149698D01*
X216075301Y-65328327D01*
X216308690Y-65425000D01*
X217899250Y-65425000D01*
X218058000Y-65266250D01*
X218058000Y-63167000D01*
X218312000Y-63167000D01*
X218312000Y-65266250D01*
X218470750Y-65425000D01*
X220061310Y-65425000D01*
X220294699Y-65328327D01*
X220473327Y-65149698D01*
X220487560Y-65115337D01*
X220487560Y-67790000D01*
X220531838Y-68025317D01*
X220670910Y-68241441D01*
X220883110Y-68386431D01*
X221135000Y-68437440D01*
X221488058Y-68437440D01*
X219807199Y-70118299D01*
X219642452Y-70364861D01*
X219584600Y-70655700D01*
X219584600Y-76244987D01*
X219539928Y-76263445D01*
X219139451Y-76663223D01*
X218922448Y-77185826D01*
X218921954Y-77751691D01*
X219138045Y-78274672D01*
X219537823Y-78675149D01*
X220060426Y-78892152D01*
X220626291Y-78892646D01*
X221149272Y-78676555D01*
X221549749Y-78276777D01*
X221766752Y-77754174D01*
X221766754Y-77751691D01*
X222122354Y-77751691D01*
X222338445Y-78274672D01*
X222738223Y-78675149D01*
X223260826Y-78892152D01*
X223826691Y-78892646D01*
X224349672Y-78676555D01*
X224750149Y-78276777D01*
X224967152Y-77754174D01*
X224967646Y-77188309D01*
X224751555Y-76665328D01*
X224351777Y-76264851D01*
X223829174Y-76047848D01*
X223263309Y-76047354D01*
X222740328Y-76263445D01*
X222339851Y-76663223D01*
X222122848Y-77185826D01*
X222122354Y-77751691D01*
X221766754Y-77751691D01*
X221767246Y-77188309D01*
X221551155Y-76665328D01*
X221151377Y-76264851D01*
X221104600Y-76245428D01*
X221104600Y-70970502D01*
X223422401Y-68652701D01*
X223566233Y-68437440D01*
X224635000Y-68437440D01*
X224870317Y-68393162D01*
X225086441Y-68254090D01*
X225231431Y-68041890D01*
X225282440Y-67790000D01*
X225282440Y-64290000D01*
X225238162Y-64054683D01*
X225099090Y-63838559D01*
X224886890Y-63693569D01*
X224635000Y-63642560D01*
X221135000Y-63642560D01*
X220899683Y-63686838D01*
X220683559Y-63825910D01*
X220570000Y-63992109D01*
X220570000Y-63325750D01*
X220411250Y-63167000D01*
X218312000Y-63167000D01*
X218058000Y-63167000D01*
X215958750Y-63167000D01*
X215800000Y-63325750D01*
X208405000Y-63325750D01*
X208405000Y-61163691D01*
X215800000Y-61163691D01*
X215800000Y-62754250D01*
X215958750Y-62913000D01*
X218058000Y-62913000D01*
X218058000Y-60813750D01*
X218312000Y-60813750D01*
X218312000Y-62913000D01*
X220411250Y-62913000D01*
X220570000Y-62754250D01*
X220570000Y-62085304D01*
X220596673Y-62149698D01*
X220775301Y-62328327D01*
X221008690Y-62425000D01*
X222599250Y-62425000D01*
X222758000Y-62266250D01*
X222758000Y-60167000D01*
X223012000Y-60167000D01*
X223012000Y-62266250D01*
X223170750Y-62425000D01*
X224761310Y-62425000D01*
X224994699Y-62328327D01*
X225173327Y-62149698D01*
X225270000Y-61916309D01*
X225270000Y-60325750D01*
X225111250Y-60167000D01*
X223012000Y-60167000D01*
X222758000Y-60167000D01*
X220658750Y-60167000D01*
X220500000Y-60325750D01*
X220500000Y-60994696D01*
X220473327Y-60930302D01*
X220294699Y-60751673D01*
X220061310Y-60655000D01*
X218470750Y-60655000D01*
X218312000Y-60813750D01*
X218058000Y-60813750D01*
X217899250Y-60655000D01*
X216308690Y-60655000D01*
X216075301Y-60751673D01*
X215896673Y-60930302D01*
X215800000Y-61163691D01*
X208405000Y-61163691D01*
X208405000Y-60067440D01*
X208645000Y-60067440D01*
X208880317Y-60023162D01*
X209096441Y-59884090D01*
X209241431Y-59671890D01*
X209261551Y-59572532D01*
X211672073Y-59572532D01*
X211770736Y-59839387D01*
X212380461Y-60065908D01*
X213030460Y-60041856D01*
X213519264Y-59839387D01*
X213617927Y-59572532D01*
X212645000Y-58599605D01*
X211672073Y-59572532D01*
X209261551Y-59572532D01*
X209292440Y-59420000D01*
X209292440Y-58155461D01*
X210999092Y-58155461D01*
X211023144Y-58805460D01*
X211225613Y-59294264D01*
X211492468Y-59392927D01*
X212465395Y-58420000D01*
X212824605Y-58420000D01*
X213797532Y-59392927D01*
X214064387Y-59294264D01*
X214290908Y-58684539D01*
X214271635Y-58163691D01*
X220500000Y-58163691D01*
X220500000Y-59754250D01*
X220658750Y-59913000D01*
X222758000Y-59913000D01*
X222758000Y-57813750D01*
X223012000Y-57813750D01*
X223012000Y-59913000D01*
X225111250Y-59913000D01*
X225270000Y-59754250D01*
X225270000Y-58163691D01*
X225173327Y-57930302D01*
X224994699Y-57751673D01*
X224761310Y-57655000D01*
X223170750Y-57655000D01*
X223012000Y-57813750D01*
X222758000Y-57813750D01*
X222599250Y-57655000D01*
X221008690Y-57655000D01*
X220775301Y-57751673D01*
X220596673Y-57930302D01*
X220500000Y-58163691D01*
X214271635Y-58163691D01*
X214266856Y-58034540D01*
X214064387Y-57545736D01*
X213797532Y-57447073D01*
X212824605Y-58420000D01*
X212465395Y-58420000D01*
X211492468Y-57447073D01*
X211225613Y-57545736D01*
X210999092Y-58155461D01*
X209292440Y-58155461D01*
X209292440Y-57420000D01*
X209263740Y-57267468D01*
X211672073Y-57267468D01*
X212645000Y-58240395D01*
X213617927Y-57267468D01*
X213519264Y-57000613D01*
X212909539Y-56774092D01*
X212259540Y-56798144D01*
X211770736Y-57000613D01*
X211672073Y-57267468D01*
X209263740Y-57267468D01*
X209248162Y-57184683D01*
X209109090Y-56968559D01*
X208896890Y-56823569D01*
X208645000Y-56772560D01*
X206645000Y-56772560D01*
X206409683Y-56816838D01*
X206193559Y-56955910D01*
X206048569Y-57168110D01*
X205997560Y-57420000D01*
X191370482Y-57420000D01*
X191331370Y-57325342D01*
X190787521Y-56780543D01*
X190076584Y-56485337D01*
X189306793Y-56484665D01*
X188595342Y-56778630D01*
X188189770Y-57183495D01*
X187787521Y-56780543D01*
X187076584Y-56485337D01*
X186306793Y-56484665D01*
X185595342Y-56778630D01*
X185050543Y-57322479D01*
X184755337Y-58033416D01*
X184754665Y-58803207D01*
X152243309Y-58803207D01*
X151977499Y-58537397D01*
X152143223Y-58596965D01*
X152713454Y-58569778D01*
X153114005Y-58403864D01*
X153188139Y-58157745D01*
X152360000Y-57329605D01*
X152345858Y-57343748D01*
X152166252Y-57164142D01*
X152180395Y-57150000D01*
X152539605Y-57150000D01*
X153367745Y-57978139D01*
X153613864Y-57904005D01*
X153806965Y-57366777D01*
X153779778Y-56796546D01*
X153613864Y-56395995D01*
X153367745Y-56321861D01*
X152539605Y-57150000D01*
X152180395Y-57150000D01*
X151352255Y-56321861D01*
X151106136Y-56395995D01*
X151103804Y-56402483D01*
X151077243Y-56338200D01*
X150881640Y-56142255D01*
X151531861Y-56142255D01*
X152360000Y-56970395D01*
X153188139Y-56142255D01*
X153114005Y-55896136D01*
X152576777Y-55703035D01*
X152006546Y-55730222D01*
X151605995Y-55896136D01*
X151531861Y-56142255D01*
X150881640Y-56142255D01*
X150673923Y-55934176D01*
X150620000Y-55911785D01*
X150620000Y-55245000D01*
X150562148Y-54954161D01*
X150562148Y-54954160D01*
X150397401Y-54707599D01*
X148733256Y-53043454D01*
X148754750Y-52991691D01*
X148755248Y-52420813D01*
X148537243Y-51893200D01*
X148154711Y-51510000D01*
X227260069Y-51510000D01*
X227781984Y-51613815D01*
X228165157Y-51869844D01*
X228421185Y-52253015D01*
X228525000Y-52774931D01*
X228525000Y-116135069D01*
X228421185Y-116656985D01*
X228165157Y-117040156D01*
X227781984Y-117296185D01*
X227260069Y-117400000D01*
X74364931Y-117400000D01*
X73843015Y-117296185D01*
X73459844Y-117040157D01*
X73203815Y-116656984D01*
X73100000Y-116135069D01*
X73100000Y-114649089D01*
X129324743Y-114649089D01*
X129550344Y-115195086D01*
X129967717Y-115613188D01*
X130513319Y-115839742D01*
X131104089Y-115840257D01*
X131650086Y-115614656D01*
X132068188Y-115197283D01*
X132294742Y-114651681D01*
X132294744Y-114649089D01*
X135824743Y-114649089D01*
X136050344Y-115195086D01*
X136467717Y-115613188D01*
X137013319Y-115839742D01*
X137604089Y-115840257D01*
X138150086Y-115614656D01*
X138366160Y-115398958D01*
X139470647Y-115398958D01*
X139550920Y-115650259D01*
X140106279Y-115851718D01*
X140696458Y-115825315D01*
X141119080Y-115650259D01*
X141199353Y-115398958D01*
X140335000Y-114534605D01*
X139470647Y-115398958D01*
X138366160Y-115398958D01*
X138568188Y-115197283D01*
X138794742Y-114651681D01*
X138795200Y-114126279D01*
X138838282Y-114126279D01*
X138864685Y-114716458D01*
X139039741Y-115139080D01*
X139291042Y-115219353D01*
X140155395Y-114355000D01*
X140514605Y-114355000D01*
X141378958Y-115219353D01*
X141630259Y-115139080D01*
X141808005Y-114649089D01*
X145349743Y-114649089D01*
X145575344Y-115195086D01*
X145992717Y-115613188D01*
X146538319Y-115839742D01*
X147129089Y-115840257D01*
X147675086Y-115614656D01*
X148093188Y-115197283D01*
X148319742Y-114651681D01*
X148319744Y-114649089D01*
X148374743Y-114649089D01*
X148600344Y-115195086D01*
X149017717Y-115613188D01*
X149563319Y-115839742D01*
X150154089Y-115840257D01*
X150700086Y-115614656D01*
X151118188Y-115197283D01*
X151344742Y-114651681D01*
X151344744Y-114649089D01*
X154874743Y-114649089D01*
X155100344Y-115195086D01*
X155517717Y-115613188D01*
X156063319Y-115839742D01*
X156654089Y-115840257D01*
X157200086Y-115614656D01*
X157618188Y-115197283D01*
X157844742Y-114651681D01*
X157844744Y-114649089D01*
X157899743Y-114649089D01*
X158125344Y-115195086D01*
X158542717Y-115613188D01*
X159088319Y-115839742D01*
X159679089Y-115840257D01*
X160225086Y-115614656D01*
X160643188Y-115197283D01*
X160869742Y-114651681D01*
X160869744Y-114649089D01*
X164399743Y-114649089D01*
X164625344Y-115195086D01*
X165042717Y-115613188D01*
X165588319Y-115839742D01*
X166179089Y-115840257D01*
X166725086Y-115614656D01*
X167143188Y-115197283D01*
X167369742Y-114651681D01*
X167369744Y-114649089D01*
X167424743Y-114649089D01*
X167650344Y-115195086D01*
X168067717Y-115613188D01*
X168613319Y-115839742D01*
X169204089Y-115840257D01*
X169750086Y-115614656D01*
X169966160Y-115398958D01*
X174545647Y-115398958D01*
X174625920Y-115650259D01*
X175181279Y-115851718D01*
X175771458Y-115825315D01*
X176194080Y-115650259D01*
X176274353Y-115398958D01*
X175410000Y-114534605D01*
X174545647Y-115398958D01*
X169966160Y-115398958D01*
X170168188Y-115197283D01*
X170394742Y-114651681D01*
X170395200Y-114126279D01*
X173913282Y-114126279D01*
X173939685Y-114716458D01*
X174114741Y-115139080D01*
X174366042Y-115219353D01*
X175230395Y-114355000D01*
X175589605Y-114355000D01*
X176453958Y-115219353D01*
X176705259Y-115139080D01*
X176906718Y-114583721D01*
X176880315Y-113993542D01*
X176705259Y-113570920D01*
X176453958Y-113490647D01*
X175589605Y-114355000D01*
X175230395Y-114355000D01*
X174366042Y-113490647D01*
X174114741Y-113570920D01*
X173913282Y-114126279D01*
X170395200Y-114126279D01*
X170395257Y-114060911D01*
X170169656Y-113514914D01*
X169966140Y-113311042D01*
X174545647Y-113311042D01*
X175410000Y-114175395D01*
X176274353Y-113311042D01*
X176194080Y-113059741D01*
X175638721Y-112858282D01*
X175048542Y-112884685D01*
X174625920Y-113059741D01*
X174545647Y-113311042D01*
X169966140Y-113311042D01*
X169752283Y-113096812D01*
X169206681Y-112870258D01*
X168615911Y-112869743D01*
X168069914Y-113095344D01*
X167651812Y-113512717D01*
X167425258Y-114058319D01*
X167424743Y-114649089D01*
X167369744Y-114649089D01*
X167370257Y-114060911D01*
X167144656Y-113514914D01*
X166727283Y-113096812D01*
X166181681Y-112870258D01*
X165590911Y-112869743D01*
X165044914Y-113095344D01*
X164626812Y-113512717D01*
X164400258Y-114058319D01*
X164399743Y-114649089D01*
X160869744Y-114649089D01*
X160870257Y-114060911D01*
X160644656Y-113514914D01*
X160227283Y-113096812D01*
X159681681Y-112870258D01*
X159090911Y-112869743D01*
X158544914Y-113095344D01*
X158126812Y-113512717D01*
X157900258Y-114058319D01*
X157899743Y-114649089D01*
X157844744Y-114649089D01*
X157845257Y-114060911D01*
X157619656Y-113514914D01*
X157202283Y-113096812D01*
X156656681Y-112870258D01*
X156065911Y-112869743D01*
X155519914Y-113095344D01*
X155101812Y-113512717D01*
X154875258Y-114058319D01*
X154874743Y-114649089D01*
X151344744Y-114649089D01*
X151345257Y-114060911D01*
X151119656Y-113514914D01*
X150702283Y-113096812D01*
X150156681Y-112870258D01*
X149565911Y-112869743D01*
X149019914Y-113095344D01*
X148601812Y-113512717D01*
X148375258Y-114058319D01*
X148374743Y-114649089D01*
X148319744Y-114649089D01*
X148320257Y-114060911D01*
X148094656Y-113514914D01*
X147677283Y-113096812D01*
X147131681Y-112870258D01*
X146540911Y-112869743D01*
X145994914Y-113095344D01*
X145576812Y-113512717D01*
X145350258Y-114058319D01*
X145349743Y-114649089D01*
X141808005Y-114649089D01*
X141831718Y-114583721D01*
X141805315Y-113993542D01*
X141630259Y-113570920D01*
X141378958Y-113490647D01*
X140514605Y-114355000D01*
X140155395Y-114355000D01*
X139291042Y-113490647D01*
X139039741Y-113570920D01*
X138838282Y-114126279D01*
X138795200Y-114126279D01*
X138795257Y-114060911D01*
X138569656Y-113514914D01*
X138366140Y-113311042D01*
X139470647Y-113311042D01*
X140335000Y-114175395D01*
X141199353Y-113311042D01*
X141119080Y-113059741D01*
X140563721Y-112858282D01*
X139973542Y-112884685D01*
X139550920Y-113059741D01*
X139470647Y-113311042D01*
X138366140Y-113311042D01*
X138152283Y-113096812D01*
X137606681Y-112870258D01*
X137015911Y-112869743D01*
X136469914Y-113095344D01*
X136051812Y-113512717D01*
X135825258Y-114058319D01*
X135824743Y-114649089D01*
X132294744Y-114649089D01*
X132295257Y-114060911D01*
X132069656Y-113514914D01*
X131652283Y-113096812D01*
X131106681Y-112870258D01*
X130515911Y-112869743D01*
X129969914Y-113095344D01*
X129551812Y-113512717D01*
X129325258Y-114058319D01*
X129324743Y-114649089D01*
X73100000Y-114649089D01*
X73100000Y-105753764D01*
X86100841Y-105753764D01*
X86170059Y-105995742D01*
X86692780Y-106182155D01*
X87247049Y-106154341D01*
X87629941Y-105995742D01*
X87699159Y-105753764D01*
X86900000Y-104954605D01*
X86100841Y-105753764D01*
X73100000Y-105753764D01*
X73100000Y-93763223D01*
X74793035Y-93763223D01*
X74820222Y-94333454D01*
X74986136Y-94734005D01*
X75232255Y-94808139D01*
X76060395Y-93980000D01*
X75232255Y-93151861D01*
X74986136Y-93225995D01*
X74793035Y-93763223D01*
X73100000Y-93763223D01*
X73100000Y-84374767D01*
X73809138Y-84374767D01*
X73951183Y-84718543D01*
X74213973Y-84981792D01*
X74557501Y-85124438D01*
X74604377Y-85124479D01*
X76730000Y-87250102D01*
X76730000Y-92631242D01*
X76456777Y-92533035D01*
X75886546Y-92560222D01*
X75485995Y-92726136D01*
X75411861Y-92972255D01*
X76240000Y-93800395D01*
X76254142Y-93786252D01*
X76433748Y-93965858D01*
X76419605Y-93980000D01*
X76433748Y-93994143D01*
X76254142Y-94173748D01*
X76240000Y-94159605D01*
X75411861Y-94987745D01*
X75485995Y-95233864D01*
X76023223Y-95426965D01*
X76593454Y-95399778D01*
X76994005Y-95233864D01*
X77051126Y-95044228D01*
X85836969Y-103830071D01*
X85806216Y-103860824D01*
X85921234Y-103975842D01*
X85679258Y-104045059D01*
X85492845Y-104567780D01*
X85520659Y-105122049D01*
X85679258Y-105504941D01*
X85921236Y-105574159D01*
X86720395Y-104775000D01*
X86706253Y-104760858D01*
X86885858Y-104581253D01*
X86900000Y-104595395D01*
X86914143Y-104581253D01*
X87093748Y-104760858D01*
X87079605Y-104775000D01*
X87609595Y-105304990D01*
X87716687Y-105564172D01*
X88108764Y-105956934D01*
X88207687Y-105998011D01*
X85853738Y-108351960D01*
X85325880Y-107823181D01*
X84596573Y-107520346D01*
X83806891Y-107519657D01*
X83077057Y-107821218D01*
X82518181Y-108379120D01*
X82215346Y-109108427D01*
X82214657Y-109898109D01*
X82516218Y-110627943D01*
X83074120Y-111186819D01*
X83803427Y-111489654D01*
X84593109Y-111490343D01*
X85322943Y-111188782D01*
X85881819Y-110630880D01*
X86056996Y-110209006D01*
X86066339Y-110207148D01*
X86312901Y-110042401D01*
X90543901Y-105811401D01*
X90708648Y-105564839D01*
X90766500Y-105274000D01*
X90766500Y-101793200D01*
X90708648Y-101502361D01*
X90543901Y-101255799D01*
X86255701Y-96967599D01*
X86076152Y-96847629D01*
X85883782Y-96382057D01*
X85325880Y-95823181D01*
X84596573Y-95520346D01*
X83806891Y-95519657D01*
X83077057Y-95821218D01*
X82518181Y-96379120D01*
X82215346Y-97108427D01*
X82214657Y-97898109D01*
X82327351Y-98170849D01*
X79411653Y-95255151D01*
X79551800Y-95197243D01*
X79955824Y-94793923D01*
X80174750Y-94266691D01*
X80175248Y-93695813D01*
X79957243Y-93168200D01*
X79553923Y-92764176D01*
X79026691Y-92545250D01*
X78455813Y-92544752D01*
X78250000Y-92629792D01*
X78250000Y-92349285D01*
X88149760Y-92349285D01*
X88360169Y-92858515D01*
X88749436Y-93248461D01*
X89258298Y-93459759D01*
X89809285Y-93460240D01*
X90318515Y-93249831D01*
X90708461Y-92860564D01*
X90919759Y-92351702D01*
X90920240Y-91800715D01*
X90709831Y-91291485D01*
X90320564Y-90901539D01*
X89811702Y-90690241D01*
X89260715Y-90689760D01*
X88751485Y-90900169D01*
X88361539Y-91289436D01*
X88150241Y-91798298D01*
X88149760Y-92349285D01*
X78250000Y-92349285D01*
X78250000Y-87469285D01*
X88149760Y-87469285D01*
X88360169Y-87978515D01*
X88749436Y-88368461D01*
X89258298Y-88579759D01*
X89809285Y-88580240D01*
X90318515Y-88369831D01*
X90708461Y-87980564D01*
X90919759Y-87471702D01*
X90920240Y-86920715D01*
X90709831Y-86411485D01*
X90320564Y-86021539D01*
X89811702Y-85810241D01*
X89260715Y-85809760D01*
X88751485Y-86020169D01*
X88361539Y-86409436D01*
X88150241Y-86918298D01*
X88149760Y-87469285D01*
X78250000Y-87469285D01*
X78250000Y-86935300D01*
X78229054Y-86830000D01*
X78192148Y-86644460D01*
X78027401Y-86397899D01*
X75679422Y-84049920D01*
X75679462Y-84004433D01*
X75537417Y-83660657D01*
X75274627Y-83397408D01*
X74931099Y-83254762D01*
X74559133Y-83254438D01*
X74215357Y-83396483D01*
X73952108Y-83659273D01*
X73809462Y-84002801D01*
X73809138Y-84374767D01*
X73100000Y-84374767D01*
X73100000Y-57314677D01*
X96254794Y-57314677D01*
X96434820Y-57750372D01*
X96767875Y-58084009D01*
X97203255Y-58264794D01*
X97674677Y-58265206D01*
X98110372Y-58085180D01*
X98444009Y-57752125D01*
X98624794Y-57316745D01*
X98625206Y-56845323D01*
X98445180Y-56409628D01*
X98112125Y-56075991D01*
X97676745Y-55895206D01*
X97205323Y-55894794D01*
X96769628Y-56074820D01*
X96435991Y-56407875D01*
X96255206Y-56843255D01*
X96254794Y-57314677D01*
X73100000Y-57314677D01*
X73100000Y-53712745D01*
X141491861Y-53712745D01*
X141565995Y-53958864D01*
X142103223Y-54151965D01*
X142673454Y-54124778D01*
X143074005Y-53958864D01*
X143148139Y-53712745D01*
X142320000Y-52884605D01*
X141491861Y-53712745D01*
X73100000Y-53712745D01*
X73100000Y-52774931D01*
X73157029Y-52488223D01*
X140873035Y-52488223D01*
X140900222Y-53058454D01*
X141066136Y-53459005D01*
X141312255Y-53533139D01*
X142140395Y-52705000D01*
X142499605Y-52705000D01*
X143327745Y-53533139D01*
X143573864Y-53459005D01*
X143766965Y-52921777D01*
X143739778Y-52351546D01*
X143573864Y-51950995D01*
X143327745Y-51876861D01*
X142499605Y-52705000D01*
X142140395Y-52705000D01*
X141312255Y-51876861D01*
X141066136Y-51950995D01*
X140873035Y-52488223D01*
X73157029Y-52488223D01*
X73203815Y-52253016D01*
X73459844Y-51869843D01*
X73843015Y-51613815D01*
X74364931Y-51510000D01*
X141548264Y-51510000D01*
X141491861Y-51697255D01*
G36*
X95213748Y-107935858D02*
X95199605Y-107950000D01*
X95213748Y-107964143D01*
X95042790Y-108135100D01*
X95025495Y-108135100D01*
X95020000Y-108129605D01*
X95014505Y-108135100D01*
X94997210Y-108135100D01*
X94826253Y-107964143D01*
X94840395Y-107950000D01*
X94826253Y-107935858D01*
X95005858Y-107756253D01*
X95020000Y-107770395D01*
X95034143Y-107756253D01*
X95213748Y-107935858D01*
X95213748Y-107935858D01*
G37*
X95213748Y-107935858D02*
X95199605Y-107950000D01*
X95213748Y-107964143D01*
X95042790Y-108135100D01*
X95025495Y-108135100D01*
X95020000Y-108129605D01*
X95014505Y-108135100D01*
X94997210Y-108135100D01*
X94826253Y-107964143D01*
X94840395Y-107950000D01*
X94826253Y-107935858D01*
X95005858Y-107756253D01*
X95020000Y-107770395D01*
X95034143Y-107756253D01*
X95213748Y-107935858D01*
G36*
X103643652Y-61346061D02*
X103585800Y-61636900D01*
X103585800Y-66275498D01*
X102438022Y-65127720D01*
X102438062Y-65082233D01*
X102296017Y-64738457D01*
X102033227Y-64475208D01*
X101689699Y-64332562D01*
X101317733Y-64332238D01*
X100973957Y-64474283D01*
X100710708Y-64737073D01*
X100568062Y-65080601D01*
X100567738Y-65452567D01*
X100709783Y-65796343D01*
X100972573Y-66059592D01*
X101316101Y-66202238D01*
X101362977Y-66202279D01*
X102942900Y-67782202D01*
X102942900Y-76675798D01*
X98442501Y-72175399D01*
X98195939Y-72010652D01*
X98073003Y-71986198D01*
X98007527Y-71920608D01*
X97663999Y-71777962D01*
X97292033Y-71777638D01*
X96948257Y-71919683D01*
X96685008Y-72182473D01*
X96542362Y-72526001D01*
X96542038Y-72897967D01*
X96684083Y-73241743D01*
X96946873Y-73504992D01*
X97113444Y-73574159D01*
X97113138Y-73925567D01*
X97255183Y-74269343D01*
X97517973Y-74532592D01*
X97861501Y-74675238D01*
X97908377Y-74675279D01*
X98155200Y-74922102D01*
X98155200Y-76823183D01*
X97726691Y-76645250D01*
X97155813Y-76644752D01*
X96628200Y-76862757D01*
X96224176Y-77266077D01*
X96005250Y-77793309D01*
X96004752Y-78364187D01*
X96222757Y-78891800D01*
X96626077Y-79295824D01*
X97153309Y-79514750D01*
X97724187Y-79515248D01*
X98155200Y-79337157D01*
X98155200Y-85615762D01*
X97966777Y-85548035D01*
X97396546Y-85575222D01*
X96995995Y-85741136D01*
X96921861Y-85987255D01*
X97750000Y-86815395D01*
X97764143Y-86801253D01*
X97943748Y-86980858D01*
X97929605Y-86995000D01*
X97943748Y-87009143D01*
X97764143Y-87188748D01*
X97750000Y-87174605D01*
X96921861Y-88002745D01*
X96995995Y-88248864D01*
X97533223Y-88441965D01*
X98103454Y-88414778D01*
X98155200Y-88393344D01*
X98155200Y-91330762D01*
X97966777Y-91263035D01*
X97396546Y-91290222D01*
X96995995Y-91456136D01*
X96921861Y-91702255D01*
X97750000Y-92530395D01*
X97764143Y-92516253D01*
X97943748Y-92695858D01*
X97929605Y-92710000D01*
X97943748Y-92724143D01*
X97764143Y-92903748D01*
X97750000Y-92889605D01*
X96921861Y-93717745D01*
X96995995Y-93963864D01*
X97533223Y-94156965D01*
X98103454Y-94129778D01*
X98155200Y-94108344D01*
X98155200Y-104314698D01*
X95982599Y-106487299D01*
X95827085Y-106720043D01*
X95684683Y-106746838D01*
X95557364Y-106828766D01*
X95188964Y-106702193D01*
X94820600Y-106724973D01*
X94820600Y-94085492D01*
X94963309Y-94144750D01*
X95534187Y-94145248D01*
X96061800Y-93927243D01*
X96465824Y-93523923D01*
X96493423Y-93457456D01*
X96496136Y-93464005D01*
X96742255Y-93538139D01*
X97570395Y-92710000D01*
X96742255Y-91881861D01*
X96496136Y-91955995D01*
X96493804Y-91962483D01*
X96467243Y-91898200D01*
X96063923Y-91494176D01*
X95536691Y-91275250D01*
X94965813Y-91274752D01*
X94820600Y-91334753D01*
X94820600Y-88370492D01*
X94963309Y-88429750D01*
X95534187Y-88430248D01*
X96061800Y-88212243D01*
X96465824Y-87808923D01*
X96493423Y-87742456D01*
X96496136Y-87749005D01*
X96742255Y-87823139D01*
X97570395Y-86995000D01*
X96742255Y-86166861D01*
X96496136Y-86240995D01*
X96493804Y-86247483D01*
X96467243Y-86183200D01*
X96063923Y-85779176D01*
X95536691Y-85560250D01*
X94965813Y-85559752D01*
X94820600Y-85619753D01*
X94820600Y-70117202D01*
X103748183Y-61189619D01*
X103643652Y-61346061D01*
X103643652Y-61346061D01*
G37*
X103643652Y-61346061D02*
X103585800Y-61636900D01*
X103585800Y-66275498D01*
X102438022Y-65127720D01*
X102438062Y-65082233D01*
X102296017Y-64738457D01*
X102033227Y-64475208D01*
X101689699Y-64332562D01*
X101317733Y-64332238D01*
X100973957Y-64474283D01*
X100710708Y-64737073D01*
X100568062Y-65080601D01*
X100567738Y-65452567D01*
X100709783Y-65796343D01*
X100972573Y-66059592D01*
X101316101Y-66202238D01*
X101362977Y-66202279D01*
X102942900Y-67782202D01*
X102942900Y-76675798D01*
X98442501Y-72175399D01*
X98195939Y-72010652D01*
X98073003Y-71986198D01*
X98007527Y-71920608D01*
X97663999Y-71777962D01*
X97292033Y-71777638D01*
X96948257Y-71919683D01*
X96685008Y-72182473D01*
X96542362Y-72526001D01*
X96542038Y-72897967D01*
X96684083Y-73241743D01*
X96946873Y-73504992D01*
X97113444Y-73574159D01*
X97113138Y-73925567D01*
X97255183Y-74269343D01*
X97517973Y-74532592D01*
X97861501Y-74675238D01*
X97908377Y-74675279D01*
X98155200Y-74922102D01*
X98155200Y-76823183D01*
X97726691Y-76645250D01*
X97155813Y-76644752D01*
X96628200Y-76862757D01*
X96224176Y-77266077D01*
X96005250Y-77793309D01*
X96004752Y-78364187D01*
X96222757Y-78891800D01*
X96626077Y-79295824D01*
X97153309Y-79514750D01*
X97724187Y-79515248D01*
X98155200Y-79337157D01*
X98155200Y-85615762D01*
X97966777Y-85548035D01*
X97396546Y-85575222D01*
X96995995Y-85741136D01*
X96921861Y-85987255D01*
X97750000Y-86815395D01*
X97764143Y-86801253D01*
X97943748Y-86980858D01*
X97929605Y-86995000D01*
X97943748Y-87009143D01*
X97764143Y-87188748D01*
X97750000Y-87174605D01*
X96921861Y-88002745D01*
X96995995Y-88248864D01*
X97533223Y-88441965D01*
X98103454Y-88414778D01*
X98155200Y-88393344D01*
X98155200Y-91330762D01*
X97966777Y-91263035D01*
X97396546Y-91290222D01*
X96995995Y-91456136D01*
X96921861Y-91702255D01*
X97750000Y-92530395D01*
X97764143Y-92516253D01*
X97943748Y-92695858D01*
X97929605Y-92710000D01*
X97943748Y-92724143D01*
X97764143Y-92903748D01*
X97750000Y-92889605D01*
X96921861Y-93717745D01*
X96995995Y-93963864D01*
X97533223Y-94156965D01*
X98103454Y-94129778D01*
X98155200Y-94108344D01*
X98155200Y-104314698D01*
X95982599Y-106487299D01*
X95827085Y-106720043D01*
X95684683Y-106746838D01*
X95557364Y-106828766D01*
X95188964Y-106702193D01*
X94820600Y-106724973D01*
X94820600Y-94085492D01*
X94963309Y-94144750D01*
X95534187Y-94145248D01*
X96061800Y-93927243D01*
X96465824Y-93523923D01*
X96493423Y-93457456D01*
X96496136Y-93464005D01*
X96742255Y-93538139D01*
X97570395Y-92710000D01*
X96742255Y-91881861D01*
X96496136Y-91955995D01*
X96493804Y-91962483D01*
X96467243Y-91898200D01*
X96063923Y-91494176D01*
X95536691Y-91275250D01*
X94965813Y-91274752D01*
X94820600Y-91334753D01*
X94820600Y-88370492D01*
X94963309Y-88429750D01*
X95534187Y-88430248D01*
X96061800Y-88212243D01*
X96465824Y-87808923D01*
X96493423Y-87742456D01*
X96496136Y-87749005D01*
X96742255Y-87823139D01*
X97570395Y-86995000D01*
X96742255Y-86166861D01*
X96496136Y-86240995D01*
X96493804Y-86247483D01*
X96467243Y-86183200D01*
X96063923Y-85779176D01*
X95536691Y-85560250D01*
X94965813Y-85559752D01*
X94820600Y-85619753D01*
X94820600Y-70117202D01*
X103748183Y-61189619D01*
X103643652Y-61346061D01*
G36*
X143180699Y-82452401D02*
X143427261Y-82617148D01*
X143718100Y-82675000D01*
X145629898Y-82675000D01*
X137121198Y-91183700D01*
X133467785Y-91183700D01*
X133543113Y-90805000D01*
X133433880Y-90255849D01*
X133122811Y-89790302D01*
X132822022Y-89589321D01*
X132800498Y-89481110D01*
X132935134Y-89417389D01*
X133311041Y-89002423D01*
X133471904Y-88614039D01*
X133349915Y-88392000D01*
X132207000Y-88392000D01*
X132207000Y-88412000D01*
X131953000Y-88412000D01*
X131953000Y-88392000D01*
X131933000Y-88392000D01*
X131933000Y-88138000D01*
X131953000Y-88138000D01*
X131953000Y-88118000D01*
X132207000Y-88118000D01*
X132207000Y-88138000D01*
X133349915Y-88138000D01*
X133471904Y-87915961D01*
X133311041Y-87527577D01*
X133139305Y-87337997D01*
X133742801Y-86734501D01*
X133907548Y-86487939D01*
X133965400Y-86197100D01*
X133965400Y-73237102D01*
X143180699Y-82452401D01*
X143180699Y-82452401D01*
G37*
X143180699Y-82452401D02*
X143427261Y-82617148D01*
X143718100Y-82675000D01*
X145629898Y-82675000D01*
X137121198Y-91183700D01*
X133467785Y-91183700D01*
X133543113Y-90805000D01*
X133433880Y-90255849D01*
X133122811Y-89790302D01*
X132822022Y-89589321D01*
X132800498Y-89481110D01*
X132935134Y-89417389D01*
X133311041Y-89002423D01*
X133471904Y-88614039D01*
X133349915Y-88392000D01*
X132207000Y-88392000D01*
X132207000Y-88412000D01*
X131953000Y-88412000D01*
X131953000Y-88392000D01*
X131933000Y-88392000D01*
X131933000Y-88138000D01*
X131953000Y-88138000D01*
X131953000Y-88118000D01*
X132207000Y-88118000D01*
X132207000Y-88138000D01*
X133349915Y-88138000D01*
X133471904Y-87915961D01*
X133311041Y-87527577D01*
X133139305Y-87337997D01*
X133742801Y-86734501D01*
X133907548Y-86487939D01*
X133965400Y-86197100D01*
X133965400Y-73237102D01*
X143180699Y-82452401D01*
G36*
X149100000Y-55559802D02*
X149100000Y-55911354D01*
X149048200Y-55932757D01*
X148644176Y-56336077D01*
X148425250Y-56863309D01*
X148424752Y-57434187D01*
X148642757Y-57961800D01*
X149046077Y-58365824D01*
X149573309Y-58584750D01*
X149875512Y-58585014D01*
X155092739Y-63802241D01*
X155013569Y-63918110D01*
X154962560Y-64170000D01*
X154962560Y-65370000D01*
X155006838Y-65605317D01*
X155145910Y-65821441D01*
X155358110Y-65966431D01*
X155450000Y-65985039D01*
X155450000Y-67557798D01*
X153947464Y-69060334D01*
X153835000Y-69037560D01*
X152235000Y-69037560D01*
X151999683Y-69081838D01*
X151783559Y-69220910D01*
X151638569Y-69433110D01*
X151587560Y-69685000D01*
X151587560Y-70502758D01*
X149205300Y-68120498D01*
X149205300Y-67374200D01*
X149147448Y-67083361D01*
X148982701Y-66836799D01*
X148444037Y-66298135D01*
X148673880Y-65954151D01*
X148783113Y-65405000D01*
X148673880Y-64855849D01*
X148362811Y-64390302D01*
X147980725Y-64135000D01*
X148362811Y-63879698D01*
X148673880Y-63414151D01*
X148783113Y-62865000D01*
X148673880Y-62315849D01*
X148362811Y-61850302D01*
X147897264Y-61539233D01*
X147348113Y-61430000D01*
X147291887Y-61430000D01*
X146742736Y-61539233D01*
X146277189Y-61850302D01*
X145966120Y-62315849D01*
X145856887Y-62865000D01*
X145966120Y-63414151D01*
X146277189Y-63879698D01*
X146659275Y-64135000D01*
X146277189Y-64390302D01*
X145966120Y-64855849D01*
X145856887Y-65405000D01*
X145966120Y-65954151D01*
X146277189Y-66419698D01*
X146577978Y-66620679D01*
X146597053Y-66716576D01*
X146277189Y-66930302D01*
X145966120Y-67395849D01*
X145856887Y-67945000D01*
X145966120Y-68494151D01*
X146277189Y-68959698D01*
X146659275Y-69215000D01*
X146277189Y-69470302D01*
X145966120Y-69935849D01*
X145856887Y-70485000D01*
X145966120Y-71034151D01*
X146277189Y-71499698D01*
X146577978Y-71700679D01*
X146597053Y-71796576D01*
X146277189Y-72010302D01*
X145966120Y-72475849D01*
X145856887Y-73025000D01*
X145966120Y-73574151D01*
X146277189Y-74039698D01*
X146577978Y-74240679D01*
X146597053Y-74336576D01*
X146277189Y-74550302D01*
X145966120Y-75015849D01*
X145856887Y-75565000D01*
X145966120Y-76114151D01*
X146277189Y-76579698D01*
X146659275Y-76835000D01*
X146277189Y-77090302D01*
X145966120Y-77555849D01*
X145856887Y-78105000D01*
X145958332Y-78615000D01*
X144950102Y-78615000D01*
X133742701Y-67407599D01*
X133496139Y-67242852D01*
X133306437Y-67205118D01*
X133122811Y-66930302D01*
X132822022Y-66729321D01*
X132802947Y-66633424D01*
X133122811Y-66419698D01*
X133433880Y-65954151D01*
X133543113Y-65405000D01*
X133433880Y-64855849D01*
X133122811Y-64390302D01*
X132987665Y-64300000D01*
X133006309Y-64300000D01*
X133239698Y-64203327D01*
X133418327Y-64024699D01*
X133515000Y-63791310D01*
X133515000Y-63150750D01*
X133356250Y-62992000D01*
X132207000Y-62992000D01*
X132207000Y-63012000D01*
X131953000Y-63012000D01*
X131953000Y-62992000D01*
X130803750Y-62992000D01*
X130645000Y-63150750D01*
X130645000Y-63791310D01*
X130741673Y-64024699D01*
X130920302Y-64203327D01*
X131153691Y-64300000D01*
X131172335Y-64300000D01*
X131037189Y-64390302D01*
X130799592Y-64745890D01*
X129856227Y-63802525D01*
X130066192Y-63592927D01*
X130208838Y-63249399D01*
X130209162Y-62877433D01*
X130067117Y-62533657D01*
X130034000Y-62500482D01*
X130034000Y-61938690D01*
X130645000Y-61938690D01*
X130645000Y-62579250D01*
X130803750Y-62738000D01*
X131953000Y-62738000D01*
X131953000Y-61588750D01*
X132207000Y-61588750D01*
X132207000Y-62738000D01*
X133356250Y-62738000D01*
X133515000Y-62579250D01*
X133515000Y-61938690D01*
X133418327Y-61705301D01*
X133239698Y-61526673D01*
X133006309Y-61430000D01*
X132365750Y-61430000D01*
X132207000Y-61588750D01*
X131953000Y-61588750D01*
X131794250Y-61430000D01*
X131153691Y-61430000D01*
X130920302Y-61526673D01*
X130741673Y-61705301D01*
X130645000Y-61938690D01*
X130034000Y-61938690D01*
X130034000Y-61540802D01*
X131741546Y-59833256D01*
X131793309Y-59854750D01*
X132364187Y-59855248D01*
X132891800Y-59637243D01*
X133101663Y-59427745D01*
X133751861Y-59427745D01*
X133825995Y-59673864D01*
X134363223Y-59866965D01*
X134933454Y-59839778D01*
X135334005Y-59673864D01*
X135408139Y-59427745D01*
X134580000Y-58599605D01*
X133751861Y-59427745D01*
X133101663Y-59427745D01*
X133295824Y-59233923D01*
X133323423Y-59167456D01*
X133326136Y-59174005D01*
X133572255Y-59248139D01*
X134400395Y-58420000D01*
X134759605Y-58420000D01*
X135587745Y-59248139D01*
X135833864Y-59174005D01*
X136026965Y-58636777D01*
X135999778Y-58066546D01*
X135833864Y-57665995D01*
X135587745Y-57591861D01*
X134759605Y-58420000D01*
X134400395Y-58420000D01*
X134386252Y-58405858D01*
X134565858Y-58226252D01*
X134580000Y-58240395D01*
X135408139Y-57412255D01*
X135334005Y-57166136D01*
X134796777Y-56973035D01*
X134592004Y-56982798D01*
X135549102Y-56025700D01*
X144759300Y-56025700D01*
X145050139Y-55967848D01*
X145296701Y-55803101D01*
X146981546Y-54118256D01*
X147033309Y-54139750D01*
X147604187Y-54140248D01*
X147658149Y-54117951D01*
X149100000Y-55559802D01*
X149100000Y-55559802D01*
G37*
X149100000Y-55559802D02*
X149100000Y-55911354D01*
X149048200Y-55932757D01*
X148644176Y-56336077D01*
X148425250Y-56863309D01*
X148424752Y-57434187D01*
X148642757Y-57961800D01*
X149046077Y-58365824D01*
X149573309Y-58584750D01*
X149875512Y-58585014D01*
X155092739Y-63802241D01*
X155013569Y-63918110D01*
X154962560Y-64170000D01*
X154962560Y-65370000D01*
X155006838Y-65605317D01*
X155145910Y-65821441D01*
X155358110Y-65966431D01*
X155450000Y-65985039D01*
X155450000Y-67557798D01*
X153947464Y-69060334D01*
X153835000Y-69037560D01*
X152235000Y-69037560D01*
X151999683Y-69081838D01*
X151783559Y-69220910D01*
X151638569Y-69433110D01*
X151587560Y-69685000D01*
X151587560Y-70502758D01*
X149205300Y-68120498D01*
X149205300Y-67374200D01*
X149147448Y-67083361D01*
X148982701Y-66836799D01*
X148444037Y-66298135D01*
X148673880Y-65954151D01*
X148783113Y-65405000D01*
X148673880Y-64855849D01*
X148362811Y-64390302D01*
X147980725Y-64135000D01*
X148362811Y-63879698D01*
X148673880Y-63414151D01*
X148783113Y-62865000D01*
X148673880Y-62315849D01*
X148362811Y-61850302D01*
X147897264Y-61539233D01*
X147348113Y-61430000D01*
X147291887Y-61430000D01*
X146742736Y-61539233D01*
X146277189Y-61850302D01*
X145966120Y-62315849D01*
X145856887Y-62865000D01*
X145966120Y-63414151D01*
X146277189Y-63879698D01*
X146659275Y-64135000D01*
X146277189Y-64390302D01*
X145966120Y-64855849D01*
X145856887Y-65405000D01*
X145966120Y-65954151D01*
X146277189Y-66419698D01*
X146577978Y-66620679D01*
X146597053Y-66716576D01*
X146277189Y-66930302D01*
X145966120Y-67395849D01*
X145856887Y-67945000D01*
X145966120Y-68494151D01*
X146277189Y-68959698D01*
X146659275Y-69215000D01*
X146277189Y-69470302D01*
X145966120Y-69935849D01*
X145856887Y-70485000D01*
X145966120Y-71034151D01*
X146277189Y-71499698D01*
X146577978Y-71700679D01*
X146597053Y-71796576D01*
X146277189Y-72010302D01*
X145966120Y-72475849D01*
X145856887Y-73025000D01*
X145966120Y-73574151D01*
X146277189Y-74039698D01*
X146577978Y-74240679D01*
X146597053Y-74336576D01*
X146277189Y-74550302D01*
X145966120Y-75015849D01*
X145856887Y-75565000D01*
X145966120Y-76114151D01*
X146277189Y-76579698D01*
X146659275Y-76835000D01*
X146277189Y-77090302D01*
X145966120Y-77555849D01*
X145856887Y-78105000D01*
X145958332Y-78615000D01*
X144950102Y-78615000D01*
X133742701Y-67407599D01*
X133496139Y-67242852D01*
X133306437Y-67205118D01*
X133122811Y-66930302D01*
X132822022Y-66729321D01*
X132802947Y-66633424D01*
X133122811Y-66419698D01*
X133433880Y-65954151D01*
X133543113Y-65405000D01*
X133433880Y-64855849D01*
X133122811Y-64390302D01*
X132987665Y-64300000D01*
X133006309Y-64300000D01*
X133239698Y-64203327D01*
X133418327Y-64024699D01*
X133515000Y-63791310D01*
X133515000Y-63150750D01*
X133356250Y-62992000D01*
X132207000Y-62992000D01*
X132207000Y-63012000D01*
X131953000Y-63012000D01*
X131953000Y-62992000D01*
X130803750Y-62992000D01*
X130645000Y-63150750D01*
X130645000Y-63791310D01*
X130741673Y-64024699D01*
X130920302Y-64203327D01*
X131153691Y-64300000D01*
X131172335Y-64300000D01*
X131037189Y-64390302D01*
X130799592Y-64745890D01*
X129856227Y-63802525D01*
X130066192Y-63592927D01*
X130208838Y-63249399D01*
X130209162Y-62877433D01*
X130067117Y-62533657D01*
X130034000Y-62500482D01*
X130034000Y-61938690D01*
X130645000Y-61938690D01*
X130645000Y-62579250D01*
X130803750Y-62738000D01*
X131953000Y-62738000D01*
X131953000Y-61588750D01*
X132207000Y-61588750D01*
X132207000Y-62738000D01*
X133356250Y-62738000D01*
X133515000Y-62579250D01*
X133515000Y-61938690D01*
X133418327Y-61705301D01*
X133239698Y-61526673D01*
X133006309Y-61430000D01*
X132365750Y-61430000D01*
X132207000Y-61588750D01*
X131953000Y-61588750D01*
X131794250Y-61430000D01*
X131153691Y-61430000D01*
X130920302Y-61526673D01*
X130741673Y-61705301D01*
X130645000Y-61938690D01*
X130034000Y-61938690D01*
X130034000Y-61540802D01*
X131741546Y-59833256D01*
X131793309Y-59854750D01*
X132364187Y-59855248D01*
X132891800Y-59637243D01*
X133101663Y-59427745D01*
X133751861Y-59427745D01*
X133825995Y-59673864D01*
X134363223Y-59866965D01*
X134933454Y-59839778D01*
X135334005Y-59673864D01*
X135408139Y-59427745D01*
X134580000Y-58599605D01*
X133751861Y-59427745D01*
X133101663Y-59427745D01*
X133295824Y-59233923D01*
X133323423Y-59167456D01*
X133326136Y-59174005D01*
X133572255Y-59248139D01*
X134400395Y-58420000D01*
X134759605Y-58420000D01*
X135587745Y-59248139D01*
X135833864Y-59174005D01*
X136026965Y-58636777D01*
X135999778Y-58066546D01*
X135833864Y-57665995D01*
X135587745Y-57591861D01*
X134759605Y-58420000D01*
X134400395Y-58420000D01*
X134386252Y-58405858D01*
X134565858Y-58226252D01*
X134580000Y-58240395D01*
X135408139Y-57412255D01*
X135334005Y-57166136D01*
X134796777Y-56973035D01*
X134592004Y-56982798D01*
X135549102Y-56025700D01*
X144759300Y-56025700D01*
X145050139Y-55967848D01*
X145296701Y-55803101D01*
X146981546Y-54118256D01*
X147033309Y-54139750D01*
X147604187Y-54140248D01*
X147658149Y-54117951D01*
X149100000Y-55559802D01*
G36*
X123952000Y-60147200D02*
X123972000Y-60147200D01*
X123972000Y-60401200D01*
X123952000Y-60401200D01*
X123952000Y-60421200D01*
X123698000Y-60421200D01*
X123698000Y-60401200D01*
X123678000Y-60401200D01*
X123678000Y-60147200D01*
X123698000Y-60147200D01*
X123698000Y-60127200D01*
X123952000Y-60127200D01*
X123952000Y-60147200D01*
X123952000Y-60147200D01*
G37*
X123952000Y-60147200D02*
X123972000Y-60147200D01*
X123972000Y-60401200D01*
X123952000Y-60401200D01*
X123952000Y-60421200D01*
X123698000Y-60421200D01*
X123698000Y-60401200D01*
X123678000Y-60401200D01*
X123678000Y-60147200D01*
X123698000Y-60147200D01*
X123698000Y-60127200D01*
X123952000Y-60127200D01*
X123952000Y-60147200D01*
M02*
