%TF.GenerationSoftware,KiCad,Pcbnew,(5.0.0-rc2-dev-493-gd776eaca8)*%
%TF.CreationDate,2018-08-13T21:14:29-07:00*%
%TF.ProjectId,YM2151_STM32_VGM,594D323135315F53544D33325F56474D,rev?*%
%TF.SameCoordinates,Original*%
%TF.FileFunction,Paste,Top*%
%TF.FilePolarity,Positive*%
%FSLAX46Y46*%
G04 Gerber Fmt 4.6, Leading zero omitted, Abs format (unit mm)*
G04 Created by KiCad (PCBNEW (5.0.0-rc2-dev-493-gd776eaca8)) date 08/13/18 21:14:29*
%MOMM*%
%LPD*%
G01*
G04 APERTURE LIST*
%ADD10C,0.150000*%
%ADD11R,1.500000X1.000000*%
%ADD12R,1.500000X0.700000*%
%ADD13R,2.800000X1.500000*%
%ADD14R,1.450000X0.450000*%
%ADD15R,1.016000X2.692400*%
%ADD16R,10.160000X8.940800*%
%ADD17R,0.635000X1.524000*%
%ADD18R,3.800000X2.000000*%
%ADD19R,1.500000X2.000000*%
%ADD20R,1.200000X0.900000*%
G04 APERTURE END LIST*
D10*
X74295000Y-118110000D02*
X227330000Y-118110000D01*
X72390000Y-52705000D02*
X72390000Y-116205000D01*
X227330000Y-50800000D02*
X74295000Y-50800000D01*
X229235000Y-52705000D02*
X229235000Y-116205000D01*
X227330000Y-118110000D02*
G75*
G03X229235000Y-116205000I0J1905000D01*
G01*
X229235000Y-52705000D02*
G75*
G03X227330000Y-50800000I-1905000J0D01*
G01*
X72390000Y-116205000D02*
G75*
G03X74295000Y-118110000I1905000J0D01*
G01*
X74295000Y-50800000D02*
G75*
G03X72390000Y-52705000I0J-1905000D01*
G01*
D11*
X100240000Y-75455000D03*
X100240000Y-72955000D03*
X100240000Y-70455000D03*
X100240000Y-67955000D03*
X100240000Y-65455000D03*
X100240000Y-62955000D03*
X100240000Y-60525000D03*
X100240000Y-58825000D03*
X100240000Y-77955000D03*
D12*
X100240000Y-57525000D03*
X100240000Y-56325000D03*
D13*
X98440000Y-80030000D03*
X76940000Y-82230000D03*
X76940000Y-54930000D03*
X98440000Y-54930000D03*
D14*
X142580000Y-56810000D03*
X142580000Y-57460000D03*
X142580000Y-58110000D03*
X142580000Y-58760000D03*
X146980000Y-58760000D03*
X146980000Y-58110000D03*
X146980000Y-57460000D03*
X146980000Y-56810000D03*
D15*
X195351400Y-66827400D03*
X197053200Y-66827400D03*
X198755000Y-66827400D03*
X200456800Y-66827400D03*
X202158600Y-66827400D03*
D16*
X198755000Y-57632600D03*
D17*
X76835000Y-90325000D03*
X79375000Y-84935000D03*
X75565000Y-90325000D03*
X78105000Y-90325000D03*
X79375000Y-90325000D03*
X78105000Y-84935000D03*
X80645000Y-84935000D03*
X81915000Y-84935000D03*
X81915000Y-90325000D03*
X84455000Y-84935000D03*
X80645000Y-90325000D03*
X83185000Y-90325000D03*
X83185000Y-84935000D03*
X84455000Y-90325000D03*
X76835000Y-84935000D03*
X75565000Y-84935000D03*
D18*
X97155000Y-97815000D03*
D19*
X97155000Y-104115000D03*
X99455000Y-104115000D03*
X94855000Y-104115000D03*
D20*
X192405000Y-67690000D03*
X192405000Y-64390000D03*
M02*
